<?xml version="1.0" encoding="UTF-8" standalone="no"?>
<!-- Generator: Adobe Illustrator 19.0.0, SVG Export Plug-In . SVG Version: 6.00 Build 0)  -->

<svg
   version="1.1"
   id="Layer_1"
   x="0px"
   y="0px"
   viewBox="0 0 512 512"
   style="enable-background:new 0 0 512 512;"
   xml:space="preserve"
   sodipodi:docname="email.svg"
   inkscape:version="1.1.1 (3bf5ae0d25, 2021-09-20)"
   xmlns:inkscape="http://www.inkscape.org/namespaces/inkscape"
   xmlns:sodipodi="http://sodipodi.sourceforge.net/DTD/sodipodi-0.dtd"
   xmlns="http://www.w3.org/2000/svg"
   xmlns:svg="http://www.w3.org/2000/svg"><defs
   id="defs45" /><sodipodi:namedview
   id="namedview43"
   pagecolor="#ffffff"
   bordercolor="#666666"
   borderopacity="1.0"
   inkscape:pageshadow="2"
   inkscape:pageopacity="0.0"
   inkscape:pagecheckerboard="0"
   showgrid="false"
   inkscape:snap-global="false"
   inkscape:zoom="0.70158251"
   inkscape:cx="-7.8394201"
   inkscape:cy="186.00806"
   inkscape:window-width="1330"
   inkscape:window-height="743"
   inkscape:window-x="36"
   inkscape:window-y="0"
   inkscape:window-maximized="1"
   inkscape:current-layer="Layer_1" />
<path
   style="fill:#94c1ff;fill-opacity:1"
   d="M503.756,118.065c0-9.069-7.42-16.489-16.489-16.489H24.733c-9.069,0-16.489,7.42-16.489,16.489  v275.87c0,9.069,7.42,16.489,16.489,16.489h462.533c9.069,0,16.489-7.42,16.489-16.489V118.065z"
   id="path2" />

<path
   style="opacity:0.2;enable-background:new    ;"
   d="M487.267,101.576H24.733c-9.069,0-16.489,7.42-16.489,16.489v2.199  l247.755,172.539l247.755-172.539v-2.199C503.756,108.996,496.336,101.576,487.267,101.576z"
   id="path6" />
<path
   style="fill:#94c1ff;fill-opacity:1"
   d="M487.267,101.576H24.733c-4.091,0-7.839,1.52-10.73,4.01l241.996,168.529l241.996-168.529  C495.105,103.096,491.358,101.576,487.267,101.576z"
   id="path8" />
<path
   style="fill:#116fff;fill-opacity:1"
   d="M487.267,93.332H24.733C11.095,93.332,0,104.427,0,118.065v275.87  c0,13.639,11.095,24.733,24.733,24.733h462.533c13.639,0,24.733-11.095,24.733-24.733v-275.87  C512,104.427,500.904,93.332,487.267,93.332z M477.49,109.821l-221.49,154.247L34.51,109.821H477.49z M495.511,393.935  c0,4.547-3.698,8.244-8.244,8.244H24.733c-4.547,0-8.244-3.698-8.244-8.244v-275.87c0-0.229,0.016-0.453,0.034-0.677L251.288,280.88  c1.416,0.985,3.064,1.479,4.711,1.479c1.648,0,3.296-0.494,4.711-1.479l234.765-163.492c0.019,0.224,0.034,0.448,0.034,0.677v275.87  H495.511z"
   id="path10" />
<g
   id="g12">
</g>
<g
   id="g14">
</g>
<g
   id="g16">
</g>
<g
   id="g18">
</g>
<g
   id="g20">
</g>
<g
   id="g22">
</g>
<g
   id="g24">
</g>
<g
   id="g26">
</g>
<g
   id="g28">
</g>
<g
   id="g30">
</g>
<g
   id="g32">
</g>
<g
   id="g34">
</g>
<g
   id="g36">
</g>
<g
   id="g38">
</g>
<g
   id="g40">
</g>
<path
   style="opacity:0.530978;fill:#116fff;fill-opacity:1;stroke-width:0.864298;enable-background:new"
   d="M 256.001,275.41468 9.311,402.14879 c 2.148,4.26768 7.372,7.43201 13.636,7.94372 L 256,290.36312 489.055,410.09251 c 6.267,-0.51021 11.492,-3.6738 13.641,-7.94147 z"
   id="path4" /></svg>
