<?xml version="1.0" encoding="UTF-8" standalone="no"?>
<svg
   id="visual"
   viewBox="0 0 900 600"
   width="900"
   height="600"
   version="1.1"
   xmlns="http://www.w3.org/2000/svg"
   xmlns:svg="http://www.w3.org/2000/svg">
  <defs
     id="defs9" />
  <rect
     x="0"
     y="0"
     width="900"
     height="600"
     fill="#ffffff"
     id="rect2" />
  <path
     d="M0 149L21.5 156.8C43 164.7 86 180.3 128.8 178.3C171.7 176.3 214.3 156.7 257.2 141.2C300 125.7 343 114.3 385.8 122.8C428.7 131.3 471.3 159.7 514.2 168.5C557 177.3 600 166.7 642.8 154.3C685.7 142 728.3 128 771.2 138.5C814 149 857 184 878.5 201.5L900 219L900 0L878.5 0C857 0 814 0 771.2 0C728.3 0 685.7 0 642.8 0C600 0 557 0 514.2 0C471.3 0 428.7 0 385.8 0C343 0 300 0 257.2 0C214.3 0 171.7 0 128.8 0C86 0 43 0 21.5 0L0 0Z"
     fill="#24262a"
     stroke-linecap="round"
     stroke-linejoin="miter"
     id="path4" />
</svg>
