<?xml version="1.0" encoding="UTF-8" standalone="no"?>
<!-- Generator: Adobe Illustrator 16.0.0, SVG Export Plug-In . SVG Version: 6.00 Build 0)  -->

<svg
   version="1.1"
   id="Layer_1"
   x="0px"
   y="0px"
   width="512px"
   height="512px"
   viewBox="0 0 512 512"
   enable-background="new 0 0 512 512"
   xml:space="preserve"
   sodipodi:docname="mobile.svg"
   inkscape:version="1.1.1 (3bf5ae0d25, 2021-09-20)"
   xmlns:inkscape="http://www.inkscape.org/namespaces/inkscape"
   xmlns:sodipodi="http://sodipodi.sourceforge.net/DTD/sodipodi-0.dtd"
   xmlns="http://www.w3.org/2000/svg"
   xmlns:svg="http://www.w3.org/2000/svg"><defs
   id="defs381" /><sodipodi:namedview
   id="namedview379"
   pagecolor="#ffffff"
   bordercolor="#666666"
   borderopacity="1.0"
   inkscape:pageshadow="2"
   inkscape:pageopacity="0.0"
   inkscape:pagecheckerboard="0"
   showgrid="false"
   inkscape:zoom="0.49609375"
   inkscape:cx="-50.393701"
   inkscape:cy="174.3622"
   inkscape:window-width="1330"
   inkscape:window-height="743"
   inkscape:window-x="36"
   inkscape:window-y="0"
   inkscape:window-maximized="1"
   inkscape:current-layer="Layer_1" />
<g
   id="_x32_1_phone_x2C__smartphone_x2C__call_x2C__business_x2C__job_x2C__work_x2C__office_1_">
	<g
   id="g6">
		<g
   id="g4">
			<path
   fill="#5C9EFF"
   d="M399.902,475.85c0,17.59-14.389,31.979-31.979,31.979H144.076c-17.589,0-31.978-14.389-31.978-31.979     v-439.7c0-17.59,14.388-31.978,31.978-31.978h223.848c17.59,0,31.979,14.388,31.979,31.978V475.85z"
   id="path2" />
		</g>
	</g>
	<g
   id="g12">
		<g
   id="g10">
			<path
   fill="#94C1FF"
   d="M128.087,475.85v-439.7c0-17.59,14.389-31.978,31.978-31.978h-15.989     c-17.589,0-31.978,14.388-31.978,31.978v439.7c0,17.59,14.388,31.979,31.978,31.979h15.989     C142.476,507.828,128.087,493.439,128.087,475.85z"
   id="path8" />
		</g>
	</g>
	<g
   id="g18">
		<g
   id="g16">
			<path
   fill="#2287FF"
   d="M383.991,475.85v-439.7c0-17.59-14.381-31.978-31.979-31.978h15.989     c17.598,0,31.979,14.388,31.979,31.978v439.7c0,17.59-14.381,31.979-31.979,31.979h-15.989     C369.61,507.828,383.991,493.439,383.991,475.85z"
   id="path14" />
		</g>
	</g>
	<g
   id="g24">
		<g
   id="g22">
			<rect
   x="112.099"
   y="52.139"
   fill="#D7E9FF"
   width="287.804"
   height="383.738"
   id="rect20" />
		</g>
	</g>
	<g
   id="g30">
		<g
   id="g28">
			<polygon
   fill="#FFFFFF"
   points="256.074,260.028 240.085,267.945 216.102,243.961 223.214,234.233    "
   id="polygon26" />
		</g>
	</g>
	<g
   id="g36">
		<g
   id="g34">
			<polygon
   fill="#FFFFFF"
   points="256.395,260.028 272.38,267.945 296.363,243.961 289.259,234.233    "
   id="polygon32" />
		</g>
	</g>
	<g
   id="g42">
		<g
   id="g40">
			<path
   fill="#94C1FF"
   d="M287.65,124.285c0,0,32.385-4.552,24.233,47.725l-15.989-23.983c0,0-18.955,7.995-39.742,7.995     c-20.704,0-40.207-7.995-40.207-7.995l-15.911,23.906l-0.078,0.078c-8.237-87.939,96.016-70.428,96.016-70.428     C280.452,107.897,287.65,124.285,287.65,124.285z"
   id="path38" />
		</g>
	</g>
	<g
   id="g50">
		<g
   id="g48">
			<g
   id="g46">
				<path
   fill="#5C9EFF"
   d="M287.65,124.285c0,0,19.846-3.85,17.348,37.396l6.886,10.329      C320.035,119.733,287.65,124.285,287.65,124.285z"
   id="path44" />
			</g>
		</g>
	</g>
	<g
   id="g58">
		<g
   id="g56">
			<g
   id="g54">
				<path
   fill="#D7E9FF"
   d="M279.688,100.215c-28.977-0.781-85.898,5.933-79.731,71.794l0.078-0.078l7.55-11.336      C208.646,110.458,251.46,100.965,279.688,100.215z"
   id="path52" />
			</g>
		</g>
	</g>
	<g
   id="g64">
		<g
   id="g62">
			<path
   fill="#D7E9FF"
   d="M312.118,180.083c0,37.974-34.617,72.997-55.966,72.997c-21.259,0-55.962-35.023-55.962-72.997v-8.073     l-0.156-0.078l15.911-23.906c0,0,19.503,7.995,40.207,7.995c20.787,0,39.742-7.995,39.742-7.995l15.989,23.983h0.234V180.083z"
   id="path60" />
		</g>
	</g>
	<g
   id="g72">
		<g
   id="g70">
			<g
   id="g68">
				<path
   fill="#94C1FF"
   d="M311.884,172.01l-15.989-23.983c0,0-5.246,2.186-13.146,4.263l13.146,19.721h0.234v8.073      c0,33.516-26.95,64.69-47.955,71.561c2.787,0.913,5.48,1.437,7.979,1.437c21.349,0,55.966-35.023,55.966-72.997v-8.073H311.884z      "
   id="path66" />
			</g>
		</g>
	</g>
	<g
   id="g80">
		<g
   id="g78">
			<g
   id="g76">
				<path
   fill="#FFFFFF"
   d="M216.18,180.083v-8.073l-0.156-0.078l13.108-19.69c-7.924-2.061-13.187-4.216-13.187-4.216      l-15.911,23.906l0.156,0.078v8.073c0,37.974,34.703,72.997,55.962,72.997c2.506,0,5.207-0.523,8.014-1.437      C243.2,244.773,216.18,213.599,216.18,180.083z"
   id="path74" />
			</g>
		</g>
	</g>
	<g
   id="g86">
		<g
   id="g84">
			<path
   fill="#5C9EFF"
   d="M351.857,315.912H159.983v-7.994c0,0,0-5.356,0-18.629c0-13.35,6.714-18.377,19.986-23.343     c6.551-2.476,18.308-6.87,27.981-11.508l9.353-9.275l22.782,22.782l15.989-7.917l15.993,7.917l22.703-22.704l9.119,9.119     c9.743,4.716,21.423,9.11,27.981,11.586c13.35,4.966,19.986,9.993,19.986,23.343c0,13.272,0,18.629,0,18.629V315.912z"
   id="path82" />
		</g>
	</g>
	<g
   id="g94">
		<g
   id="g92">
			<g
   id="g90">
				<path
   fill="#94C1FF"
   d="M175.973,289.289c0-13.35,6.714-18.377,19.986-23.343c6.55-2.476,18.308-6.87,27.981-11.508l1.327-1.312      l-7.964-7.964l-9.353,9.275c-9.673,4.638-21.431,9.032-27.981,11.508c-13.272,4.966-19.986,9.993-19.986,23.343      c0,13.272,0,18.629,0,18.629v7.994h15.989v-7.994C175.973,307.918,175.973,302.562,175.973,289.289z"
   id="path88" />
			</g>
		</g>
	</g>
	<g
   id="g102">
		<g
   id="g100">
			<g
   id="g98">
				<path
   fill="#2287FF"
   d="M336.023,289.289c0-13.35-6.714-18.377-19.986-23.343c-6.542-2.476-18.3-6.87-27.98-11.508l-1.327-1.312      l7.963-7.964l9.354,9.275c9.681,4.638,21.438,9.032,27.98,11.508c13.272,4.966,19.986,9.993,19.986,23.343      c0,13.272,0,18.629,0,18.629v7.994h-15.989v-7.994C336.023,307.918,336.023,302.562,336.023,289.289z"
   id="path96" />
			</g>
		</g>
	</g>
	<g
   id="g108">
		<g
   id="g106">
			<polygon
   fill="#D7E9FF"
   points="264.385,315.912 248.4,315.912 252.397,271.942 260.392,271.942    "
   id="polygon104" />
		</g>
	</g>
	<g
   id="g114">
		<g
   id="g112">
			<rect
   x="249.001"
   y="261.074"
   fill="#D7E9FF"
   width="14.24"
   height="10.868"
   id="rect110" />
		</g>
	</g>
	<g
   id="g120">
		<g
   id="g118">
			<path
   fill="#94C1FF"
   d="M216.027,375.918c0,15.459-12.526,27.981-27.98,27.981c-15.455,0-27.981-12.522-27.981-27.981     c0-15.45,12.527-27.98,27.981-27.98C203.501,347.938,216.027,360.468,216.027,375.918z"
   id="path116" />
		</g>
	</g>
	<g
   id="g126">
		<g
   id="g124">
			<path
   fill="#D7E9FF"
   d="M168.061,375.918c0-14.084,10.438-25.623,23.983-27.574c-1.315-0.195-2.627-0.406-3.997-0.406     c-15.455,0-27.981,12.53-27.981,27.98c0,15.459,12.527,27.981,27.981,27.981c1.37,0,2.682-0.211,3.997-0.406     C178.498,401.541,168.061,390.01,168.061,375.918z"
   id="path122" />
		</g>
	</g>
	<g
   id="g132">
		<g
   id="g130">
			<path
   fill="#5C9EFF"
   d="M208.275,375.918c0,14.084-10.438,25.623-23.984,27.575c1.316,0.195,2.627,0.406,3.998,0.406     c15.455,0,27.981-12.53,27.981-27.981c0-15.458-12.526-27.98-27.981-27.98c-1.37,0-2.682,0.211-3.998,0.406     C197.837,350.295,208.275,361.826,208.275,375.918z"
   id="path128" />
		</g>
	</g>
	<g
   id="g138">
		<g
   id="g136">
			<path
   fill="#D7E9FF"
   d="M271.989,471.853c0,11.048-8.95,19.986-19.986,19.986c-11.035,0-19.986-8.938-19.986-19.986     c0-11.039,8.951-19.986,19.986-19.986C263.039,451.866,271.989,460.813,271.989,471.853z"
   id="path134" />
		</g>
	</g>
	<g
   id="g144">
		<g
   id="g142">
			<path
   fill="#FFFFFF"
   d="M240.011,471.853c0-9.673,6.871-17.729,15.989-19.58c-1.292-0.266-2.627-0.406-3.997-0.406     c-11.035,0-19.986,8.947-19.986,19.986c0,11.048,8.951,19.986,19.986,19.986c1.37,0,2.705-0.14,3.997-0.405     C246.882,489.583,240.011,481.525,240.011,471.853z"
   id="path140" />
		</g>
	</g>
	<g
   id="g150">
		<g
   id="g148">
			<path
   fill="#94C1FF"
   d="M263.995,471.853c0,9.673-6.87,17.73-15.989,19.581c1.292,0.266,2.627,0.405,3.997,0.405     c11.036,0,19.986-8.946,19.986-19.986c0-11.047-8.95-19.986-19.986-19.986c-1.37,0-2.705,0.141-3.997,0.406     C257.125,454.123,263.995,462.18,263.995,471.853z"
   id="path146" />
		</g>
	</g>
	<g
   id="g156">
		<g
   id="g154">
			<path
   fill="#94C1FF"
   d="M351.943,375.918c0,15.459-12.531,27.981-27.981,27.981s-27.981-12.522-27.981-27.981     c0-15.45,12.531-27.98,27.981-27.98S351.943,360.468,351.943,375.918z"
   id="path152" />
		</g>
	</g>
	<g
   id="g162">
		<g
   id="g160">
			<path
   fill="#5C9EFF"
   d="M345.119,375.918c0,14.084-10.438,25.623-23.983,27.575c1.319,0.195,2.631,0.406,3.997,0.406     c15.45,0,27.98-12.53,27.98-27.981c0-15.458-12.53-27.98-27.98-27.98c-1.366,0-2.678,0.211-3.997,0.406     C334.682,350.295,345.119,361.826,345.119,375.918z"
   id="path158" />
		</g>
	</g>
	<g
   id="g168">
		<g
   id="g166">
			<rect
   x="112.099"
   y="52.139"
   fill="#FFFFFF"
   width="15.989"
   height="383.738"
   id="rect164" />
		</g>
	</g>
	<g
   id="g174">
		<g
   id="g172">
			<rect
   x="383.913"
   y="52.139"
   fill="#94C1FF"
   width="15.989"
   height="383.738"
   id="rect170" />
		</g>
	</g>
	<g
   id="g180">
		<g
   id="g178">
			<path
   fill="#D7E9FF"
   d="M304.124,375.918c0-14.084,10.431-25.623,23.983-27.574c-1.319-0.195-2.631-0.406-3.997-0.406     c-15.458,0-27.981,12.53-27.981,27.98c0,15.459,12.523,27.981,27.981,27.981c1.366,0,2.678-0.211,3.997-0.406     C314.555,401.541,304.124,390.01,304.124,375.918z"
   id="path176" />
		</g>
	</g>
	<g
   id="_x32_1_phone_x2C__smartphone_x2C__call_x2C__business_x2C__job_x2C__work_x2C__office">
		<g
   id="g186">
			<g
   id="g184">
				<path
   fill="#116FFF"
   d="M208.271,32.152c-2.206,0-4.036-1.788-4.036-3.997c0-2.21,1.749-3.998,3.958-3.998h0.078      c2.209,0,3.998,1.788,3.998,3.998C212.269,30.364,210.48,32.152,208.271,32.152z"
   id="path182" />
			</g>
		</g>
		<g
   id="g192">
			<g
   id="g190">
				<path
   fill="#116FFF"
   d="M359.93,511.826H144.076c-19.838,0-35.975-16.138-35.975-35.977v-439.7      c0-19.838,16.137-35.976,35.975-35.976h223.848c19.838,0,35.976,16.138,35.976,35.976v439.7      C403.899,495.781,379.846,511.826,359.93,511.826z M144.076,8.168c-15.427,0-27.98,12.554-27.98,27.981v439.7      c0,15.428,12.554,27.981,27.98,27.981H359.93c15.856,0,35.976-13.171,35.976-27.981v-439.7      c0-15.427-12.554-27.981-27.981-27.981H144.076z"
   id="path188" />
			</g>
		</g>
		<g
   id="g198">
			<g
   id="g196">
				<path
   fill="#116FFF"
   d="M391.908,56.136H120.093c-2.209,0-3.997-1.788-3.997-3.997s1.788-3.997,3.997-3.997h271.815      c2.209,0,3.997,1.788,3.997,3.997S394.117,56.136,391.908,56.136z"
   id="path194" />
			</g>
		</g>
		<g
   id="g204">
			<g
   id="g202">
				<path
   fill="#116FFF"
   d="M391.908,439.875H120.093c-2.209,0-3.997-1.788-3.997-3.998c0-2.209,1.788-3.997,3.997-3.997h271.815      c2.209,0,3.997,1.788,3.997,3.997C395.905,438.087,394.117,439.875,391.908,439.875z"
   id="path200" />
			</g>
		</g>
		<g
   id="g210">
			<g
   id="g208">
				<path
   fill="#116FFF"
   d="M252.003,495.836c-13.226,0-23.983-10.758-23.983-23.983s10.758-23.983,23.983-23.983      s23.983,10.758,23.983,23.983S265.229,495.836,252.003,495.836z M252.003,455.863c-8.818,0-15.989,7.176-15.989,15.989      c0,8.814,7.171,15.989,15.989,15.989s15.989-7.175,15.989-15.989C267.992,463.039,260.821,455.863,252.003,455.863z"
   id="path206" />
			</g>
		</g>
		<g
   id="g216">
			<g
   id="g214">
				<path
   fill="#116FFF"
   d="M303.968,32.152h-71.951c-2.209,0-3.997-1.788-3.997-3.997c0-2.21,1.788-3.998,3.997-3.998h71.951      c2.209,0,3.997,1.788,3.997,3.998C307.965,30.364,306.177,32.152,303.968,32.152z"
   id="path212" />
			</g>
		</g>
		<g
   id="g222">
			<g
   id="g220">
				<path
   fill="#116FFF"
   d="M108.101,80.12c-2.209,0-3.998-1.788-3.998-3.998v-7.994c0-2.21,1.788-3.998,3.998-3.998      s3.998,1.788,3.998,3.998v7.994C112.099,78.332,110.311,80.12,108.101,80.12z"
   id="path218" />
			</g>
		</g>
		<g
   id="g228">
			<g
   id="g226">
				<path
   fill="#116FFF"
   d="M108.101,112.098c-2.209,0-3.998-1.788-3.998-3.997V92.111c0-2.209,1.788-3.997,3.998-3.997      s3.998,1.788,3.998,3.997v15.989C112.099,110.31,110.311,112.098,108.101,112.098z"
   id="path224" />
			</g>
		</g>
		<g
   id="g234">
			<g
   id="g232">
				<path
   fill="#116FFF"
   d="M108.101,144.076c-2.209,0-3.998-1.788-3.998-3.997V124.09c0-2.21,1.788-3.998,3.998-3.998      s3.998,1.788,3.998,3.998v15.989C112.099,142.288,110.311,144.076,108.101,144.076z"
   id="path230" />
			</g>
		</g>
		<g
   id="g240">
			<g
   id="g238">
				<path
   fill="#116FFF"
   d="M403.899,160.065c-2.209,0-3.997-1.788-3.997-3.998v-23.984c0-2.209,1.788-3.997,3.997-3.997      c2.21,0,3.997,1.788,3.997,3.997v23.984C407.896,158.277,406.109,160.065,403.899,160.065z"
   id="path236" />
			</g>
		</g>
		<g
   id="g324">
			<g
   id="g316">
				<g
   id="g254">
					<g
   id="g246">
						<g
   id="g244">
							<path
   fill="#116FFF"
   d="M160.065,319.909c-2.209,0-3.997-1.788-3.997-3.997v-26.639c0-15.582,8.279-21.727,22.582-27.074         c4.274-1.586,17.258-6.41,27.661-11.375c1.987-0.96,4.376-0.117,5.328,1.881c0.953,1.999,0.109,4.38-1.885,5.332         c-10.723,5.122-23.96,10.041-28.309,11.656c-13.643,5.099-17.382,9.307-17.382,19.58v26.639         C164.063,318.121,162.275,319.909,160.065,319.909z"
   id="path242" />
						</g>
					</g>
					<g
   id="g252">
						<g
   id="g250">
							<path
   fill="#116FFF"
   d="M351.936,319.909c-2.21,0-3.998-1.788-3.998-3.997v-26.639c0-10.273-3.739-14.481-17.387-19.58         c-11.789-4.38-21.056-8.205-28.324-11.688c-1.99-0.952-2.834-3.341-1.881-5.332c0.952-1.991,3.349-2.826,5.332-1.881         c7.05,3.38,16.098,7.112,27.66,11.407c14.318,5.348,22.595,11.492,22.595,27.074v26.639         C355.933,318.121,354.145,319.909,351.936,319.909z"
   id="path248" />
						</g>
					</g>
				</g>
				<g
   id="g260">
					<g
   id="g258">
						<path
   fill="#116FFF"
   d="M256.242,257.054c-22.59,0-59.959-35.952-59.959-76.924c0-2.21,1.788-3.998,3.997-3.998        c2.209,0,3.998,1.788,3.998,3.998c0,35.546,32.419,68.93,51.964,68.93c19.541,0,51.965-33.384,51.965-68.93        c0-2.21,1.788-3.998,3.997-3.998c2.21,0,3.997,1.788,3.997,3.998C316.201,221.102,278.828,257.054,256.242,257.054z"
   id="path256" />
					</g>
				</g>
				<g
   id="g266">
					<g
   id="g264">
						<path
   fill="#116FFF"
   d="M200.038,176.015c-0.324,0-0.651-0.039-0.979-0.125c-1.64-0.414-2.842-1.812-3.002-3.498        c-2.112-22.586,2.779-40.589,14.549-53.51c17.109-18.784,44.849-22.727,65.1-22.727c12.086,0,20.635,1.405,20.986,1.468        c1.765,0.297,3.115,1.726,3.318,3.498c0.195,1.772-0.805,3.466-2.452,4.146c-3.411,1.397-5.598,3.388-6.69,6.09        c-1.249,3.115-0.812,6.589-0.25,8.861c4.075,0.164,12.289,1.476,18.534,8.775c7.62,8.893,9.884,23.57,6.761,43.643        c-0.249,1.624-1.482,2.936-3.091,3.287c-1.608,0.359-3.271-0.32-4.185-1.687l-14.217-21.321        c-6.363,2.303-21.611,7.112-38.178,7.112c-16.621,0-32.208-4.841-38.649-7.136l-14.229,21.345        C202.611,175.367,201.354,176.015,200.038,176.015z M295.973,144.037c1.305,0,2.562,0.64,3.326,1.78l9.868,14.794        c0.609-11.976-1.452-21.001-6.081-26.419c-4.475-5.215-10.337-5.996-13.437-5.996c-0.78,0-1.28,0.055-1.39,0.062        c-1.78,0.25-3.482-0.734-4.192-2.35c-0.164-0.375-3.966-9.228-0.609-17.542c0.562-1.405,1.288-2.693,2.163-3.88        c-2.857-0.195-6.215-0.335-9.916-0.335c-18.639,0-44.044,3.489-59.189,20.111c-8.042,8.837-12.355,20.626-12.886,35.163        l9.072-13.607c1.058-1.585,3.064-2.226,4.844-1.483c0.188,0.078,19.015,7.697,38.696,7.697        c19.666,0,37.998-7.604,38.186-7.682C294.927,144.139,295.45,144.037,295.973,144.037z"
   id="path262" />
					</g>
				</g>
				<g
   id="g272">
					<g
   id="g270">
						<path
   fill="#116FFF"
   d="M312.204,184.127c-2.209,0-3.997-1.788-3.997-3.997v-8.112c0-2.209,1.788-3.997,3.997-3.997        c2.21,0,3.997,1.788,3.997,3.997v8.112C316.201,182.339,314.414,184.127,312.204,184.127z"
   id="path268" />
					</g>
				</g>
				<g
   id="g278">
					<g
   id="g276">
						<path
   fill="#116FFF"
   d="M200.28,184.127c-2.209,0-3.997-1.788-3.997-3.997v-8.112c0-2.209,1.788-3.997,3.997-3.997        c2.209,0,3.998,1.788,3.998,3.997v8.112C204.278,182.339,202.49,184.127,200.28,184.127z"
   id="path274" />
					</g>
				</g>
				<g
   id="g284">
					<g
   id="g282">
						<path
   fill="#116FFF"
   d="M240.136,271.942c-1.034,0-2.057-0.406-2.826-1.171l-23.983-23.977c-1.562-1.562-1.562-4.091,0-5.652        s4.091-1.562,5.652,0l21.954,21.946l13.534-6.714c1.979-0.968,4.375-0.171,5.356,1.811c0.983,1.976,0.176,4.372-1.804,5.355        l-16.106,7.987C241.346,271.81,240.741,271.942,240.136,271.942z"
   id="path280" />
					</g>
				</g>
				<g
   id="g290">
					<g
   id="g288">
						<path
   fill="#116FFF"
   d="M272.106,271.942c-0.601,0-1.21-0.133-1.772-0.414l-16.11-7.987c-1.979-0.983-2.787-3.38-1.803-5.355        c0.979-1.982,3.376-2.779,5.355-1.811l13.534,6.714l21.953-21.946c1.562-1.562,4.092-1.562,5.652,0        c1.562,1.562,1.562,4.091,0,5.652l-23.983,23.977C274.16,271.536,273.145,271.942,272.106,271.942z"
   id="path286" />
					</g>
				</g>
				<g
   id="g296">
					<g
   id="g294">
						<path
   fill="#116FFF"
   d="M256.43,279.937c-1.022,0-2.045-0.39-2.826-1.171l-7.995-7.994c-1.561-1.562-1.561-4.092,0-5.652        c1.562-1.562,4.091-1.562,5.652,0l7.995,7.994c1.562,1.562,1.562,4.091,0,5.652        C258.475,279.547,257.452,279.937,256.43,279.937z"
   id="path292" />
					</g>
				</g>
				<g
   id="g302">
					<g
   id="g300">
						<path
   fill="#116FFF"
   d="M256.43,279.937c-1.022,0-2.045-0.39-2.826-1.171c-1.562-1.562-1.562-4.091,0-5.652l7.994-7.994        c1.562-1.562,4.092-1.562,5.652,0c1.562,1.561,1.562,4.09,0,5.652l-7.994,7.994        C258.475,279.547,257.452,279.937,256.43,279.937z"
   id="path298" />
					</g>
				</g>
				<g
   id="g308">
					<g
   id="g306">
						<path
   fill="#116FFF"
   d="M248.439,311.915c-0.148,0-0.296-0.008-0.445-0.023c-2.194-0.242-3.775-2.218-3.533-4.419        l3.998-35.976c0.242-2.187,2.288-3.747,4.415-3.528c2.194,0.241,3.775,2.217,3.533,4.418l-3.997,35.976        C252.183,310.4,250.449,311.915,248.439,311.915z"
   id="path304" />
					</g>
				</g>
				<g
   id="g314">
					<g
   id="g312">
						<path
   fill="#116FFF"
   d="M264.416,311.915c-2.006,0-3.739-1.515-3.966-3.553l-3.997-35.976        c-0.242-2.201,1.339-4.177,3.533-4.418c2.225-0.219,4.172,1.35,4.414,3.528l3.998,35.976c0.242,2.201-1.344,4.177-3.529,4.419        C264.713,311.907,264.564,311.915,264.416,311.915z"
   id="path310" />
					</g>
				</g>
			</g>
			<g
   id="g322">
				<g
   id="g320">
					<path
   fill="#116FFF"
   d="M351.936,319.909h-191.87c-2.209,0-3.997-1.788-3.997-3.997s1.788-3.997,3.997-3.997h191.87       c2.209,0,3.997,1.788,3.997,3.997S354.145,319.909,351.936,319.909z"
   id="path318" />
				</g>
			</g>
		</g>
		<g
   id="g330">
			<g
   id="g328">
				<path
   fill="#116FFF"
   d="M188.047,407.896c-17.633,0-31.979-14.342-31.979-31.979s14.346-31.979,31.979-31.979      c17.632,0,31.978,14.342,31.978,31.979S205.679,407.896,188.047,407.896z M188.047,351.935      c-13.226,0-23.984,10.759-23.984,23.983c0,13.226,10.758,23.984,23.984,23.984c13.225,0,23.983-10.759,23.983-23.984      C212.03,362.693,201.272,351.935,188.047,351.935z"
   id="path326" />
			</g>
		</g>
		<g
   id="g336">
			<g
   id="g334">
				<path
   fill="#116FFF"
   d="M200.038,383.912c-1.647,0-3.189-1.022-3.767-2.662c-0.195-0.507-2.202-5.332-8.225-5.332      c-6.266,0-8.206,5.277-8.225,5.332c-0.734,2.077-3.01,3.186-5.098,2.437c-2.081-0.742-3.174-3.021-2.436-5.106      c0.152-0.429,3.903-10.656,15.759-10.656c11.855,0,15.606,10.228,15.759,10.656c0.737,2.085-0.355,4.364-2.436,5.106      C200.929,383.843,200.479,383.912,200.038,383.912z"
   id="path332" />
			</g>
		</g>
		<g
   id="g342">
			<g
   id="g340">
				<path
   fill="#116FFF"
   d="M180.052,383.912h-3.997c-2.209,0-3.997-1.787-3.997-3.996c0-2.21,1.788-3.998,3.997-3.998h3.997      c2.21,0,3.998,1.788,3.998,3.998C184.049,382.125,182.262,383.912,180.052,383.912z"
   id="path338" />
			</g>
		</g>
		<g
   id="g348">
			<g
   id="g346">
				<path
   fill="#116FFF"
   d="M200.038,383.912h-3.997c-2.209,0-3.997-1.787-3.997-3.996c0-2.21,1.788-3.998,3.997-3.998h3.997      c2.21,0,3.998,1.788,3.998,3.998C204.036,382.125,202.248,383.912,200.038,383.912z"
   id="path344" />
			</g>
		</g>
		<g
   id="g374">
			<g
   id="g354">
				<g
   id="g352">
					<path
   fill="#116FFF"
   d="M323.962,407.896c-8.549,0-16.575-3.326-22.609-9.369c-6.043-6.042-9.369-14.068-9.369-22.609       s3.326-16.574,9.369-22.609c12.069-12.086,33.134-12.086,45.219,0c6.043,6.035,9.369,14.068,9.369,22.609       s-3.326,16.575-9.369,22.609C340.536,404.57,332.511,407.896,323.962,407.896z M323.954,351.935       c-6.401,0-12.421,2.498-16.949,7.026c-4.536,4.528-7.026,10.548-7.026,16.957c0,6.402,2.49,12.43,7.026,16.957       c9.056,9.057,24.858,9.057,33.914,0c4.536-4.527,7.026-10.547,7.026-16.957c0-6.409-2.49-12.429-7.026-16.957       S330.363,351.935,323.954,351.935z"
   id="path350" />
				</g>
			</g>
			<g
   id="g360">
				<g
   id="g358">
					<path
   fill="#116FFF"
   d="M330.06,386.599c-3.482,0-7.784-1.062-11.75-5.028c-8.377-8.385-3.802-18.261-3.606-18.683       c0.944-1.99,3.325-2.842,5.332-1.882c1.99,0.953,2.834,3.334,1.881,5.333c-0.227,0.491-2.209,5.324,2.046,9.579       c4.419,4.427,9.532,2.062,9.587,2.046c1.991-0.952,4.38-0.102,5.332,1.89c0.945,1.99,0.094,4.379-1.896,5.324       C336.766,385.287,333.916,386.599,330.06,386.599z"
   id="path356" />
				</g>
			</g>
			<g
   id="g366">
				<g
   id="g364">
					<path
   fill="#116FFF"
   d="M335.267,385.568c-1.022,0-2.046-0.391-2.826-1.172l-2.826-2.826c-1.562-1.562-1.562-4.091,0-5.652       s4.091-1.562,5.652,0l2.826,2.826c1.562,1.562,1.562,4.092,0,5.652C337.312,385.178,336.289,385.568,335.267,385.568z"
   id="path362" />
				</g>
			</g>
			<g
   id="g372">
				<g
   id="g370">
					<path
   fill="#116FFF"
   d="M321.136,371.437c-1.022,0-2.046-0.39-2.826-1.171l-2.826-2.826c-1.562-1.562-1.562-4.091,0-5.652       s4.091-1.562,5.652,0l2.826,2.826c1.562,1.562,1.562,4.091,0,5.652C323.182,371.047,322.158,371.437,321.136,371.437z"
   id="path368" />
				</g>
			</g>
		</g>
	</g>
</g>
</svg>
