<?xml version="1.0" encoding="utf-8"?>
<!-- Generator: Adobe Illustrator 16.0.0, SVG Export Plug-In . SVG Version: 6.00 Build 0)  -->
<!DOCTYPE svg PUBLIC "-//W3C//DTD SVG 1.1//EN" "http://www.w3.org/Graphics/SVG/1.1/DTD/svg11.dtd">
<svg version="1.1" id="Layer_1" xmlns="http://www.w3.org/2000/svg" xmlns:xlink="http://www.w3.org/1999/xlink" x="0px" y="0px"
	 width="512px" height="512px" viewBox="0 0 512 512" enable-background="new 0 0 512 512" xml:space="preserve">
<g id="_x31_8_mountain_x2C__flag_x2C__success_x2C__business_x2C__job_x2C__work_x2C__office_1_">
	<g>
		<g>
			<path fill="#D7E9FF" d="M36.147,259.997H76.12c-8.83,0-15.989,7.159-15.989,15.989s7.159,15.989,15.989,15.989h23.983
				c-8.83,0-15.989,7.159-15.989,15.989s15.154,15.988,23.984,15.988H92.109c-8.83,0-15.989,7.16-15.989,15.989
				c0,8.83,7.159,15.989,15.989,15.989H355.93c8.829,0,15.989-7.159,15.989-15.989c0-8.829-7.16-15.989-15.989-15.989h111.923
				c8.83,0,15.99-7.158,15.99-15.988s-7.16-15.989-15.99-15.989H427.88c8.83,0,15.989-7.159,15.989-15.989
				s-7.159-15.989-15.989-15.989h-47.967c8.83,0,15.989-7.159,15.989-15.989s-7.159-15.989-15.989-15.989h103.93
				c8.829,0,15.988-7.159,15.988-15.988c0-8.83-7.159-15.989-15.988-15.989h-39.974c8.83,0,15.989-7.159,15.989-15.989
				s-7.159-15.989-15.989-15.989h-31.978c8.83,0,15.988-7.159,15.988-15.989s-7.158-15.989-15.988-15.989H355.93
				c8.829,0,15.989-7.159,15.989-15.989c0-8.829-7.16-15.988-15.989-15.988h111.923c8.83,0,15.99-7.159,15.99-15.989
				s-7.16-15.989-15.99-15.989H427.88c8.83,0,15.989-7.159,15.989-15.989s-7.159-15.989-15.989-15.989H108.098
				c-8.83,0-15.989,7.159-15.989,15.989s7.159,15.989,15.989,15.989H68.125c-8.83,0-15.989,7.159-15.989,15.989
				s7.159,15.989,15.989,15.989H52.136c-8.83,0-15.989,7.159-15.989,15.988c0,8.83,7.159,15.989,15.989,15.989h39.973
				c-8.83,0-15.989,7.159-15.989,15.989s7.159,15.989,15.989,15.989H76.12c-8.83,0-15.989,7.159-15.989,15.989
				s7.159,15.989,15.989,15.989h47.967c-8.83,0-15.989,7.159-15.989,15.989c0,8.829,7.159,15.988,15.989,15.988h-87.94
				c-8.83,0-15.989,7.159-15.989,15.989S27.317,259.997,36.147,259.997z"/>
		</g>
	</g>
	<g>
		<g>
			<polygon fill="#94C1FF" points="180.869,344.65 76.124,499.834 4.173,499.834 4.173,411.894 116.097,252.003 			"/>
		</g>
	</g>
	<g>
		<g>
			<polygon fill="#D7E9FF" points="124.087,263.433 116.097,252.003 4.173,411.894 4.173,435.128 			"/>
		</g>
	</g>
	<g>
		<g>
			<polygon fill="#5C9EFF" points="507.826,499.834 76.124,499.834 291.973,180.052 			"/>
		</g>
	</g>
	<g>
		<g>
			<polygon fill="#94C1FF" points="291.973,180.052 76.124,499.834 92.113,499.834 299.968,191.896 			"/>
		</g>
	</g>
	<g>
		<g>
			<path fill="#FFFFFF" d="M92.113,76.13c0,13.249-10.739,23.984-23.984,23.984c-13.245,0-23.983-10.735-23.983-23.984
				c0-13.248,10.739-23.983,23.983-23.983C81.374,52.146,92.113,62.882,92.113,76.13z"/>
		</g>
	</g>
	<g>
		<g>
			<polygon fill="#2287FF" points="291.973,180.052 283.979,191.896 491.837,499.834 507.826,499.834 			"/>
		</g>
	</g>
	<g>
		<g>
			<polygon fill="#5C9EFF" points="116.097,252.003 108.098,263.433 164.88,344.65 60.135,499.834 76.124,499.834 180.869,344.65 
							"/>
		</g>
	</g>
	<g>
		<g>
			<rect x="291.973" y="68.128" fill="#5C9EFF" width="79.946" height="23.983"/>
		</g>
	</g>
	<g>
		<g>
			<polygon fill="#5C9EFF" points="435.875,116.095 347.935,116.095 371.919,92.111 435.875,92.111 419.886,104.104 			"/>
		</g>
	</g>
	<g>
		<g>
			<rect x="291.973" y="68.128" fill="#94C1FF" width="79.946" height="7.994"/>
		</g>
	</g>
	<g>
		<g>
			<polygon fill="#94C1FF" points="425.218,100.106 363.924,100.106 371.919,92.111 435.875,92.111 			"/>
		</g>
	</g>
	<g>
		<g>
			<polygon fill="#FFFFFF" points="235.438,263.807 291.973,180.052 345.937,259.997 315.956,259.997 283.979,275.986 			"/>
		</g>
	</g>
	<g>
		<g>
			<polygon fill="#D7E9FF" points="116.097,252.003 76.924,307.965 116.097,316.623 155.269,307.965 			"/>
		</g>
	</g>
	<g id="_x31_8_mountain_x2C__flag_x2C__success_x2C__business_x2C__job_x2C__work_x2C__office">
		<g>
			<g>
				<path fill="#116FFF" d="M4.169,415.891c-0.792,0-1.589-0.234-2.288-0.726c-1.811-1.265-2.249-3.755-0.984-5.566l111.924-159.892
					c1.269-1.803,3.759-2.248,5.566-0.976c1.812,1.265,2.249,3.755,0.984,5.566L7.448,414.189
					C6.671,415.298,5.43,415.891,4.169,415.891z"/>
			</g>
		</g>
		<g>
			<g>
				<path fill="#116FFF" d="M76.12,503.831c-0.77,0-1.546-0.219-2.233-0.687c-1.831-1.234-2.311-3.717-1.077-5.544l215.854-319.782
					c1.249-1.842,3.747-2.318,5.543-1.077c1.834,1.233,2.318,3.717,1.077,5.543L79.438,502.066
					C78.665,503.215,77.404,503.831,76.12,503.831z"/>
			</g>
		</g>
		<g>
			<g>
				<path fill="#116FFF" d="M507.826,503.831c-1.28,0-2.538-0.616-3.311-1.765L288.663,182.284c-1.242-1.826-0.758-4.31,1.077-5.543
					c1.804-1.241,4.302-0.765,5.543,1.077l215.853,319.782c1.242,1.827,0.758,4.31-1.077,5.544
					C509.38,503.612,508.599,503.831,507.826,503.831z"/>
			</g>
		</g>
		<g>
			<g>
				<path fill="#116FFF" d="M172.051,335.93c-1.261,0-2.502-0.594-3.279-1.702l-55.95-79.93c-1.265-1.812-0.827-4.302,0.984-5.566
					c1.815-1.272,4.302-0.827,5.566,0.976l55.95,79.93c1.265,1.812,0.828,4.303-0.984,5.566
					C173.644,335.695,172.843,335.93,172.051,335.93z"/>
			</g>
		</g>
		<g>
			<g>
				<path fill="#116FFF" d="M435.875,503.831c-1.327,0-2.631-0.663-3.389-1.882l-39.957-63.94c-1.171-1.866-0.601-4.333,1.272-5.504
					c1.858-1.163,4.333-0.609,5.504,1.272l39.957,63.94c1.172,1.866,0.602,4.333-1.271,5.505
					C437.335,503.636,436.601,503.831,435.875,503.831z"/>
			</g>
		</g>
		<g>
			<g>
				<path fill="#116FFF" d="M148.071,503.831c-0.722,0-1.456-0.195-2.116-0.608c-1.87-1.172-2.439-3.639-1.269-5.505l39.965-63.94
					c1.171-1.874,3.634-2.443,5.508-1.272c1.87,1.171,2.44,3.638,1.269,5.504l-39.965,63.94
					C150.706,503.168,149.402,503.831,148.071,503.831z"/>
			</g>
		</g>
		<g>
			<g>
				<path fill="#116FFF" d="M283.979,279.983c-0.32,0-0.648-0.039-0.976-0.117l-48.538-12.179c-2.143-0.539-3.442-2.709-2.904-4.856
					c0.531-2.14,2.725-3.427,4.849-2.904l48.545,12.179c2.14,0.539,3.436,2.71,2.904,4.856
					C287.397,278.773,285.774,279.983,283.979,279.983z"/>
			</g>
		</g>
		<g>
			<g>
				<path fill="#116FFF" d="M283.979,279.983c-1.46,0-2.873-0.812-3.576-2.209c-0.983-1.976-0.187-4.372,1.788-5.364l31.979-15.988
					c0.554-0.273,1.171-0.422,1.787-0.422h29.98c2.209,0,3.997,1.787,3.997,3.997s-1.788,3.997-3.997,3.997h-29.035l-31.135,15.568
					C285.188,279.851,284.579,279.983,283.979,279.983z"/>
			</g>
		</g>
		<g>
			<g>
				<path fill="#116FFF" d="M291.973,168.06c-2.209,0-3.997-1.787-3.997-3.997V52.139c0-2.209,1.788-3.997,3.997-3.997
					c2.21,0,3.997,1.788,3.997,3.997v111.924C295.97,166.272,294.183,168.06,291.973,168.06z"/>
			</g>
		</g>
		<g>
			<g>
				<path fill="#116FFF" d="M371.919,72.125h-79.946c-2.209,0-3.997-1.788-3.997-3.997c0-2.21,1.788-3.997,3.997-3.997h79.946
					c2.209,0,3.997,1.787,3.997,3.997C375.916,70.337,374.128,72.125,371.919,72.125z"/>
			</g>
		</g>
		<g>
			<g>
				<path fill="#116FFF" d="M371.919,96.108h-79.946c-2.209,0-3.997-1.787-3.997-3.997c0-2.209,1.788-3.997,3.997-3.997h79.946
					c2.209,0,3.997,1.788,3.997,3.997C375.916,94.321,374.128,96.108,371.919,96.108z"/>
			</g>
		</g>
		<g>
			<g>
				<path fill="#116FFF" d="M371.919,96.108c-2.21,0-3.998-1.787-3.998-3.997V68.128c0-2.21,1.788-3.997,3.998-3.997
					c2.209,0,3.997,1.787,3.997,3.997v23.983C375.916,94.321,374.128,96.108,371.919,96.108z"/>
			</g>
		</g>
		<g>
			<g>
				<path fill="#116FFF" d="M435.875,96.108h-55.962c-2.209,0-3.997-1.787-3.997-3.997c0-2.209,1.788-3.997,3.997-3.997h55.962
					c2.209,0,3.997,1.788,3.997,3.997C439.872,94.321,438.084,96.108,435.875,96.108z"/>
			</g>
		</g>
		<g>
			<g>
				<path fill="#116FFF" d="M435.875,120.093h-87.94c-2.209,0-3.997-1.788-3.997-3.998c0-2.209,1.788-3.997,3.997-3.997h87.94
					c2.209,0,3.997,1.788,3.997,3.997C439.872,118.305,438.084,120.093,435.875,120.093z"/>
			</g>
		</g>
		<g>
			<g>
				<path fill="#116FFF" d="M435.875,120.093c-0.835,0-1.679-0.258-2.397-0.797l-15.988-11.991
					c-1.008-0.758-1.601-1.944-1.601-3.201s0.593-2.443,1.601-3.201l15.988-11.992c1.765-1.319,4.264-0.968,5.599,0.805
					c1.319,1.765,0.96,4.271-0.805,5.598l-11.726,8.791l11.726,8.791c1.765,1.327,2.124,3.833,0.805,5.598
					C438.287,119.538,437.085,120.093,435.875,120.093z"/>
			</g>
		</g>
		<g>
			<g>
				<path fill="#116FFF" d="M347.935,120.093c-1.022,0-2.045-0.391-2.826-1.171c-1.562-1.562-1.562-4.092,0-5.653l23.984-23.983
					c1.561-1.562,4.09-1.562,5.652,0c1.561,1.562,1.561,4.091,0,5.652l-23.984,23.984
					C349.98,119.702,348.958,120.093,347.935,120.093z"/>
			</g>
		</g>
		<g>
			<g>
				<path fill="#116FFF" d="M116.097,320.62c-0.289,0-0.578-0.031-0.863-0.094l-39.172-8.658c-2.155-0.477-3.518-2.607-3.041-4.763
					c0.476-2.154,2.607-3.521,4.766-3.045l38.31,8.471l38.31-8.471c2.136-0.483,4.29,0.883,4.767,3.045
					c0.476,2.155-0.886,4.286-3.041,4.763l-39.173,8.658C116.674,320.589,116.386,320.62,116.097,320.62z"/>
			</g>
		</g>
		<g>
			<g>
				<path fill="#116FFF" d="M68.129,104.104c-15.427,0-27.98-12.554-27.98-27.981c0-15.427,12.554-27.98,27.98-27.98
					c15.427,0,27.981,12.554,27.981,27.98C96.11,91.55,83.556,104.104,68.129,104.104z M68.129,56.136
					c-11.02,0-19.986,8.963-19.986,19.986c0,11.024,8.967,19.986,19.986,19.986c11.02,0,19.986-8.962,19.986-19.986
					C88.115,65.099,79.149,56.136,68.129,56.136z"/>
			</g>
		</g>
		<g>
			<g>
				<path fill="#116FFF" d="M68.129,40.146c-2.209,0-3.997-1.787-3.997-3.997V12.166c0-2.21,1.788-3.997,3.997-3.997
					c2.21,0,3.998,1.787,3.998,3.997v23.983C72.126,38.359,70.339,40.146,68.129,40.146z"/>
			</g>
		</g>
		<g>
			<g>
				<path fill="#116FFF" d="M68.129,144.076c-2.209,0-3.997-1.788-3.997-3.997v-23.984c0-2.209,1.788-3.997,3.997-3.997
					c2.21,0,3.998,1.788,3.998,3.997v23.984C72.126,142.288,70.339,144.076,68.129,144.076z"/>
			</g>
		</g>
		<g>
			<g>
				<path fill="#116FFF" d="M48.146,45.503c-1.382,0-2.725-0.719-3.466-1.999L32.688,22.729c-1.104-1.913-0.449-4.356,1.464-5.458
					c1.905-1.116,4.353-0.452,5.461,1.46l11.992,20.775c1.104,1.913,0.449,4.356-1.464,5.457
					C49.513,45.331,48.826,45.503,48.146,45.503z"/>
			</g>
		</g>
		<g>
			<g>
				<path fill="#116FFF" d="M100.111,135.512c-1.382,0-2.725-0.719-3.466-1.999l-11.992-20.774
					c-1.105-1.913-0.449-4.356,1.464-5.457c1.905-1.125,4.353-0.453,5.461,1.46l11.992,20.774c1.105,1.913,0.449,4.356-1.464,5.457
					C101.478,135.34,100.791,135.512,100.111,135.512z"/>
			</g>
		</g>
		<g>
			<g>
				<path fill="#116FFF" d="M33.508,60.134c-0.679,0-1.366-0.172-1.995-0.539L10.738,47.603c-1.912-1.101-2.568-3.544-1.464-5.457
					c1.105-1.913,3.553-2.584,5.461-1.46l20.775,11.992c1.913,1.101,2.568,3.544,1.464,5.457
					C36.233,59.415,34.89,60.134,33.508,60.134z"/>
			</g>
		</g>
		<g>
			<g>
				<path fill="#116FFF" d="M123.51,112.098c-0.68,0-1.366-0.172-1.995-0.538l-20.767-11.992c-1.913-1.101-2.569-3.545-1.464-5.457
					c1.109-1.913,3.544-2.584,5.461-1.46l20.767,11.991c1.913,1.102,2.569,3.545,1.464,5.458
					C126.234,111.38,124.892,112.098,123.51,112.098z"/>
			</g>
		</g>
		<g>
			<g>
				<path fill="#116FFF" d="M4.173,80.128c-2.206,0-3.997-1.788-3.997-3.998c0-2.209,1.788-3.997,3.997-3.997l23.983-0.008
					c2.206,0,3.998,1.788,3.998,3.997c0,2.21-1.788,3.998-3.998,3.998L4.173,80.128z"/>
			</g>
		</g>
		<g>
			<g>
				<path fill="#116FFF" d="M132.086,80.128L132.086,80.128l-23.984-0.008c-2.209,0-3.998-1.788-3.998-3.998
					c0-2.209,1.792-3.997,3.998-3.997l0,0l23.984,0.008c2.209,0,3.997,1.788,3.997,3.997
					C136.083,78.34,134.291,80.128,132.086,80.128z"/>
			</g>
		</g>
		<g>
			<g>
				<path fill="#116FFF" d="M12.749,112.105c-1.382,0-2.725-0.718-3.467-1.998c-1.104-1.913-0.448-4.356,1.464-5.458L31.514,92.65
					c1.901-1.124,4.356-0.453,5.461,1.46c1.104,1.912,0.449,4.356-1.464,5.457l-20.767,12
					C14.115,111.934,13.428,112.105,12.749,112.105z"/>
			</g>
		</g>
		<g>
			<g>
				<path fill="#116FFF" d="M102.75,60.134c-1.382,0-2.725-0.719-3.466-1.999c-1.105-1.913-0.449-4.356,1.464-5.465l20.775-11.984
					c1.905-1.101,4.353-0.445,5.461,1.468c1.105,1.913,0.449,4.356-1.464,5.457l-20.774,11.992
					C104.116,59.962,103.43,60.134,102.75,60.134z"/>
			</g>
		</g>
		<g>
			<g>
				<path fill="#116FFF" d="M36.155,135.512c-0.679,0-1.362-0.172-1.995-0.539c-1.913-1.101-2.568-3.544-1.464-5.457l11.984-20.774
					c1.104-1.913,3.54-2.585,5.461-1.46c1.913,1.101,2.568,3.544,1.464,5.457l-11.984,20.774
					C38.88,134.793,37.537,135.512,36.155,135.512z"/>
			</g>
		</g>
		<g>
			<g>
				<path fill="#116FFF" d="M88.111,45.503c-0.679,0-1.366-0.172-1.994-0.539c-1.913-1.101-2.569-3.544-1.464-5.457l12-20.768
					c1.105-1.912,3.548-2.584,5.461-1.46c1.913,1.102,2.569,3.545,1.464,5.458l-12,20.767
					C90.836,44.784,89.494,45.503,88.111,45.503z"/>
			</g>
		</g>
		<g>
			<g>
				<path fill="#116FFF" d="M180.049,184.057c-1.963,0-3.673-1.444-3.954-3.442c-1.745-12.406-19.842-12.547-20.025-12.547
					c-2.209,0-3.997-1.788-3.997-3.997s1.788-3.997,3.997-3.997c8.721,0,25.779,4.06,27.942,19.432
					c0.308,2.187-1.214,4.208-3.4,4.513C180.42,184.041,180.232,184.057,180.049,184.057z"/>
			</g>
		</g>
		<g>
			<g>
				<path fill="#116FFF" d="M180.053,184.057c-0.449,0-0.905-0.078-1.351-0.234c-2.076-0.749-3.158-3.037-2.412-5.113
					c4.06-11.305,24.288-17.762,26.579-18.464c2.124-0.633,4.341,0.546,4.989,2.654c0.644,2.115-0.543,4.349-2.654,4.996
					c-7.183,2.194-19.343,7.815-21.388,13.515C183.23,183.042,181.692,184.057,180.053,184.057z"/>
			</g>
		</g>
		<g>
			<g>
				<path fill="#116FFF" d="M60.135,216.027c-1.69,0-3.256-1.077-3.802-2.771c-2.276-7.034-10.399-5.504-11.324-5.317
					c-2.104,0.477-4.278-0.89-4.754-3.044c-0.477-2.147,0.862-4.271,3.006-4.755c5.551-1.288,17.023-0.656,20.677,10.664
					c0.68,2.101-0.472,4.349-2.572,5.028C60.954,215.965,60.541,216.027,60.135,216.027z"/>
			</g>
		</g>
		<g>
			<g>
				<path fill="#116FFF" d="M60.139,216.027c-0.211,0-0.426-0.016-0.645-0.055c-2.178-0.352-3.657-2.404-3.306-4.583
					c1.374-8.463,15.235-10.805,19.451-11.32c2.202-0.312,4.177,1.288,4.45,3.475c0.27,2.193-1.288,4.185-3.478,4.457
					c-6.359,0.789-12.304,3.271-12.531,4.669C63.761,214.63,62.067,216.027,60.139,216.027z"/>
			</g>
		</g>
	</g>
</g>
</svg>
