<?xml version="1.0" encoding="utf-8"?>
<!-- Generator: Adobe Illustrator 16.0.0, SVG Export Plug-In . SVG Version: 6.00 Build 0)  -->
<!DOCTYPE svg PUBLIC "-//W3C//DTD SVG 1.1//EN" "http://www.w3.org/Graphics/SVG/1.1/DTD/svg11.dtd">
<svg version="1.1" id="Layer_1" xmlns="http://www.w3.org/2000/svg" xmlns:xlink="http://www.w3.org/1999/xlink" x="0px" y="0px"
	 width="512px" height="512px" viewBox="0 0 512 512" enable-background="new 0 0 512 512" xml:space="preserve">
<g id="_x31_6._cap_x2C__design_x2C__advertising_x2C__brand_x2C__print_1_">
	<g>
		<path fill="#5C9EFF" d="M507.938,423.967c0,0-143.965,0-251.938,0s-251.938,0-251.938,0c0-4.882,8.076-10.482,23.994-15.918
			c18.714-6.396,48.227-12.56,87.979-17.035c37.588-4.319,84.46-7.037,139.966-7.037c55.502,0,102.373,2.718,139.966,7.037
			c39.748,4.476,69.265,10.639,87.979,17.035C499.862,413.484,507.938,419.085,507.938,423.967z"/>
	</g>
	<g>
		<path fill="#94C1FF" d="M116.034,407.01c37.588-4.319,84.46-7.037,139.966-7.037c55.502,0,102.373,2.718,139.966,7.037
			c39.584,4.46,68.999,10.592,87.729,16.957c15.223,0,24.244,0,24.244,0c0-4.882-8.076-10.482-23.994-15.918
			c-18.714-6.396-48.23-12.56-87.979-17.035c-37.593-4.319-84.464-7.037-139.966-7.037c-55.506,0-102.377,2.718-139.966,7.037
			c-39.752,4.476-69.265,10.639-87.979,17.035c-15.918,5.436-23.994,11.036-23.994,15.918c0,0,9.021,0,24.24,0
			C47.027,417.602,76.446,411.47,116.034,407.01z"/>
	</g>
	<g>
		<path fill="#D7E9FF" d="M235.442,104.998l0.562,7.045c0,0-119.971,47.988-119.971,215.947v62.938v0.086
			c-39.752,4.476-69.265,10.639-87.979,17.035v-76.06C28.056,213.058,119.154,115.401,235.442,104.998z"/>
	</g>
	<g>
		<path fill="#D7E9FF" d="M483.944,331.989v76.06c-18.714-6.396-48.23-12.56-87.979-17.035v-0.086V327.99
			c0-167.959-119.971-215.947-119.971-215.947l0.562-7.045C392.842,115.401,483.944,213.058,483.944,331.989z"/>
	</g>
	<g>
		<path fill="#94C1FF" d="M275.995,96.047v8.873v0.078c-6.562-0.633-13.278-0.953-19.995-0.953c-6.721,0-13.438,0.32-19.995,0.953
			v-0.078v-8.873c0-4.483,3.597-7.998,7.998-7.998h23.994C272.395,88.049,275.995,91.563,275.995,96.047z"/>
	</g>
	<g>
		<path fill="#94C1FF" d="M275.995,104.998c0.234-0.078,0.398-0.078,0.562,0l-0.562,7.045c0,0,119.971,47.988,119.971,215.947
			v62.938v0.086c-37.593-4.319-84.464-7.037-139.966-7.037c-55.506,0-102.377,2.718-139.966,7.037v-0.086V327.99
			c0-167.959,119.971-215.947,119.971-215.947l-0.562-7.045c0.16-0.078,0.32-0.078,0.562,0c6.557-0.633,13.274-0.953,19.995-0.953
			C262.717,104.045,269.434,104.365,275.995,104.998z"/>
	</g>
	<g>
		<g>
			<circle fill="#D7E9FF" cx="256" cy="267.989" r="63.984"/>
		</g>
		<g>
			<path fill="#656D78" d="M216.291,318.102c10.915,8.662,24.693,13.872,39.709,13.872c4.733,0,9.342-0.547,13.777-1.531
				l10.217-11.966l-31.992-42.489L216.291,318.102z"/>
		</g>
		<g>
			<path fill="#5C9EFF" d="M216.291,318.102c10.915,8.662,24.693,13.872,39.709,13.872c4.733,0,9.342-0.547,13.777-1.531
				l10.217-11.966l-31.992-42.489L216.291,318.102z"/>
		</g>
		<g>
			<circle fill="#FFFFFF" cx="236.005" cy="239.996" r="11.997"/>
		</g>
		<g>
			<path fill="#94C1FF" d="M234.22,328.084c6.807,2.476,14.118,3.89,21.78,3.89c30.406,0,55.814-21.229,62.32-49.676l-26.321-38.303
				L234.22,328.084z"/>
		</g>
	</g>
	<g opacity="0.2">
		<path d="M116.034,391.014c37.588-4.319,84.46-7.037,139.966-7.037c55.502,0,102.373,2.718,139.966,7.037
			c39.748,4.476,69.265,10.639,87.979,17.035v-7.998c-18.714-6.396-48.23-12.56-87.979-17.035
			c-37.593-4.319-84.464-7.037-139.966-7.037c-55.506,0-102.377,2.718-139.966,7.037c-39.752,4.476-69.265,10.639-87.979,17.035
			v7.998C46.77,401.652,76.282,395.489,116.034,391.014z"/>
	</g>
	<g>
		<g>
			<path fill="#FFFFFF" d="M52.05,331.989c0-118.932,91.099-216.588,207.387-226.991c0.16-0.078,0.32-0.078,0.562,0
				c2.64-0.258,5.312-0.422,7.998-0.578c-3.983-0.227-7.982-0.375-11.997-0.375c-6.721,0-13.438,0.32-19.995,0.953
				c-0.242-0.078-0.402-0.078-0.562,0C119.154,115.401,28.056,213.058,28.056,331.989v68.062c6.627-2.266,14.68-4.499,23.994-6.639
				V331.989z"/>
		</g>
	</g>
	<g>
		<g>
			<path fill="#94C1FF" d="M276.558,104.998c-0.156-0.078-0.32-0.078-0.562,0c-6.562-0.633-13.274-0.953-19.995-0.953
				c-4.015,0-8.014,0.148-11.997,0.375c2.683,0.156,5.358,0.32,7.998,0.578c0.242-0.078,0.402-0.078,0.562,0
				c116.284,10.403,207.387,108.06,207.387,226.991v61.423c9.311,2.14,17.362,4.373,23.994,6.639v-68.062
				C483.944,213.058,392.842,115.401,276.558,104.998z"/>
		</g>
	</g>
	<g id="_x31_6._cap_x2C__design_x2C__advertising_x2C__brand_x2C__print">
		<g>
			<path fill="#116FFF" d="M483.944,335.98c-2.21,0-3.999-1.789-3.999-3.999c0-123.485-100.46-223.945-223.941-223.945
				c-123.485,0-223.949,100.46-223.949,223.945c0,2.21-1.789,3.999-3.999,3.999s-3.999-1.789-3.999-3.999
				c0-127.891,104.053-231.943,231.947-231.943c127.887,0,231.939,104.053,231.939,231.943
				C487.943,334.191,486.154,335.98,483.944,335.98z"/>
		</g>
		<g>
			<path fill="#116FFF" d="M507.938,427.958c-2.21,0-3.999-1.788-3.999-3.999c0-9.912-76.239-35.991-247.939-35.991
				S8.061,414.047,8.061,423.959c0,2.211-1.789,3.999-3.999,3.999s-3.999-1.788-3.999-3.999c0-24.252,114.812-43.989,255.938-43.989
				c141.122,0,255.938,19.737,255.938,43.989C511.938,426.17,510.148,427.958,507.938,427.958z"/>
		</g>
		<g>
			<path fill="#116FFF" d="M507.938,427.958H4.062c-2.21,0-3.999-1.788-3.999-3.999s1.789-3.999,3.999-3.999h503.877
				c2.21,0,3.999,1.788,3.999,3.999S510.148,427.958,507.938,427.958z"/>
		</g>
		<g>
			<path fill="#116FFF" d="M28.056,395.966c-2.21,0-3.999-1.788-3.999-3.999v-59.985c0-2.21,1.789-3.999,3.999-3.999
				s3.999,1.789,3.999,3.999v59.985C32.055,394.178,30.266,395.966,28.056,395.966z"/>
		</g>
		<g>
			<path fill="#116FFF" d="M483.944,395.966c-2.21,0-3.999-1.788-3.999-3.999v-59.985c0-2.21,1.789-3.999,3.999-3.999
				s3.999,1.789,3.999,3.999v59.985C487.943,394.178,486.154,395.966,483.944,395.966z"/>
		</g>
		<g>
			<path fill="#116FFF" d="M236.005,100.038c-2.21,0-3.999-1.789-3.999-3.999c0-6.616,5.381-11.997,11.997-11.997
				c2.21,0,3.999,1.789,3.999,3.999s-1.789,3.999-3.999,3.999c-2.207,0-3.999,1.796-3.999,3.999
				C240.004,98.25,238.215,100.038,236.005,100.038z"/>
		</g>
		<g>
			<path fill="#116FFF" d="M275.995,100.038c-2.21,0-3.999-1.789-3.999-3.999c0-2.203-1.797-3.999-3.999-3.999
				c-2.21,0-3.999-1.789-3.999-3.999s1.789-3.999,3.999-3.999c6.615,0,11.997,5.381,11.997,11.997
				C279.994,98.25,278.205,100.038,275.995,100.038z"/>
		</g>
		<g>
			<path fill="#116FFF" d="M267.997,92.04h-23.994c-2.21,0-3.999-1.789-3.999-3.999s1.789-3.999,3.999-3.999h23.994
				c2.21,0,3.999,1.789,3.999,3.999S270.207,92.04,267.997,92.04z"/>
		</g>
		<g>
			<path fill="#116FFF" d="M116.034,331.981c-2.21,0-3.999-1.788-3.999-3.999c0-88.041,33.188-143.027,61.024-173.646
				c30.266-33.296,60.2-45.512,61.461-46.012c2.043-0.828,4.374,0.18,5.194,2.218c0.82,2.055-0.172,4.382-2.222,5.202
				c-1.175,0.477-117.459,49.129-117.459,212.237C120.033,330.193,118.245,331.981,116.034,331.981z"/>
		</g>
		<g>
			<path fill="#116FFF" d="M116.034,379.97c-2.21,0-3.999-1.788-3.999-3.999v-47.988c0-2.211,1.789-3.999,3.999-3.999
				s3.999,1.788,3.999,3.999v47.988C120.033,378.182,118.245,379.97,116.034,379.97z"/>
		</g>
		<g>
			<path fill="#116FFF" d="M395.958,331.981c-2.21,0-3.999-1.788-3.999-3.999c0-85.487-32.055-138.685-58.946-168.271
				c-29.04-31.938-58.221-43.849-58.51-43.966c-2.054-0.82-3.054-3.147-2.226-5.194c0.812-2.054,3.155-3.054,5.193-2.226
				c1.258,0.5,31.196,12.716,61.462,46.012c27.837,30.618,61.024,85.604,61.024,173.646
				C399.957,330.193,398.168,331.981,395.958,331.981z"/>
		</g>
		<g>
			<path fill="#116FFF" d="M395.958,379.97c-2.21,0-3.999-1.788-3.999-3.999v-47.988c0-2.211,1.789-3.999,3.999-3.999
				s3.999,1.788,3.999,3.999v47.988C399.957,378.182,398.168,379.97,395.958,379.97z"/>
		</g>
		<g id="_x38_._business_x2C__card_x2C__design_x2C__advertising_x2C__brand_x2C__print_2_">
			<g>
				<path fill="#116FFF" d="M256,335.98c-37.487,0-67.983-30.5-67.983-67.983s30.496-67.983,67.983-67.983
					c37.49,0,67.983,30.5,67.983,67.983S293.49,335.98,256,335.98z M256,208.012c-33.078,0-59.985,26.907-59.985,59.985
					s26.907,59.985,59.985,59.985s59.985-26.907,59.985-59.985S289.078,208.012,256,208.012z"/>
			</g>
			<g>
				<path fill="#116FFF" d="M216.287,322.109c-0.836,0-1.68-0.266-2.402-0.805c-1.765-1.328-2.117-3.836-0.789-5.601l31.711-42.114
					c1.328-1.766,3.831-2.117,5.6-0.789c1.766,1.328,2.117,3.835,0.789,5.6l-31.711,42.115
					C218.7,321.562,217.501,322.109,216.287,322.109z"/>
			</g>
			<g>
				<path fill="#116FFF" d="M259.483,295.287c-1.214,0-2.417-0.555-3.202-1.602l-11.478-15.293c-1.324-1.765-0.969-4.271,0.796-5.6
					c1.777-1.312,4.276-0.961,5.6,0.805l11.478,15.293c1.32,1.765,0.969,4.272-0.797,5.6
					C261.159,295.029,260.319,295.287,259.483,295.287z"/>
			</g>
			<g>
				<path fill="#116FFF" d="M234.216,332.091c-0.781,0-1.57-0.227-2.261-0.703c-1.82-1.249-2.281-3.741-1.031-5.562l57.779-84.088
					c1.258-1.804,3.757-2.273,5.561-1.031c1.82,1.25,2.281,3.741,1.031,5.561l-57.779,84.088
					C236.739,331.481,235.489,332.091,234.216,332.091z"/>
			</g>
			<g>
				<path fill="#116FFF" d="M318.328,286.305c-1.28,0-2.53-0.609-3.304-1.733l-26.321-38.303c-1.25-1.82-0.789-4.312,1.031-5.561
					c1.827-1.242,4.318-0.773,5.561,1.031l26.322,38.303c1.249,1.82,0.788,4.312-1.031,5.561
					C319.891,286.078,319.109,286.305,318.328,286.305z"/>
			</g>
			<g>
				<path fill="#116FFF" d="M236.005,256c-8.822,0-15.996-7.178-15.996-15.996s7.174-15.996,15.996-15.996
					s15.996,7.178,15.996,15.996S244.827,256,236.005,256z M236.005,232.006c-4.409,0-7.998,3.585-7.998,7.998
					s3.589,7.998,7.998,7.998s7.998-3.585,7.998-7.998S240.414,232.006,236.005,232.006z"/>
			</g>
		</g>
	</g>
</g>
</svg>
