<?xml version="1.0" encoding="utf-8"?>
<!-- Generator: Adobe Illustrator 16.0.0, SVG Export Plug-In . SVG Version: 6.00 Build 0)  -->
<!DOCTYPE svg PUBLIC "-//W3C//DTD SVG 1.1//EN" "http://www.w3.org/Graphics/SVG/1.1/DTD/svg11.dtd">
<svg version="1.1" id="Layer_1" xmlns="http://www.w3.org/2000/svg" xmlns:xlink="http://www.w3.org/1999/xlink" x="0px" y="0px"
	 width="512px" height="512px" viewBox="0 0 512 512" enable-background="new 0 0 512 512" xml:space="preserve">
<g id="_x31__handshake_x2C__deal_x2C__partnership_x2C__hand_x2C__business_x2C__job_x2C__work_1_">
	<g>
		<g>
			<path fill="#94C1FF" d="M374.523,325.196l-36.718-36.718c-0.008-0.016-0.016-0.023-0.023-0.031s-0.023-0.016-0.031-0.023
				l-98.901-98.905l-21.376-1.261l-62.051-28.367l-86.156,86.156l28.508,84.544l90.286,90.29c0.593,4.114,2.412,8.08,5.574,11.242
				c0.008,0.008,0.02,0.016,0.031,0.023l67.773,67.782c0.012,0.008,0.016,0.016,0.027,0.023c7.808,7.807,20.463,7.807,28.263,0
				c7.807-7.8,7.807-20.455,0-28.262c-0.008-0.008-0.016-0.016-0.023-0.023l-30.831-30.831l8.486-8.479l30.823,30.822
				c0.008,0.016,0.016,0.023,0.023,0.031c7.808,7.808,20.462,7.808,28.27,0c7.8-7.799,7.8-20.462,0-28.262
				c-0.008-0.008-0.023-0.016-0.031-0.023l-30.83-30.831l11.078-11.078l31.057,31.064c0.016,0.008,0.016,0.016,0.023,0.031
				c7.808,7.8,20.463,7.8,28.271,0c7.799-7.807,7.799-20.462,0-28.27c-0.008-0.008-0.023-0.016-0.031-0.023l-31.058-31.057
				l11.306-11.312l31.057,31.057c0.016,0.016,0.023,0.023,0.031,0.031c7.799,7.808,20.455,7.808,28.262,0
				c7.799-7.799,7.799-20.463,0-28.262c-0.008-0.008-0.023-0.016-0.031-0.023L374.523,325.196z"/>
		</g>
	</g>
	<g>
		<g>
			<polygon fill="#5C9EFF" points="43.803,5.769 4.291,226.286 18.391,240.387 148.407,110.369 			"/>
		</g>
	</g>
	<g>
		<g>
			<polygon fill="#FFFFFF" points="481.935,217.776 453.672,246.043 346.262,138.636 374.531,110.369 			"/>
		</g>
	</g>
	<g>
		<g>
			<polygon fill="#94C1FF" points="507.994,214.326 493.239,229.085 363.219,99.068 456.553,5.733 			"/>
		</g>
	</g>
	<g>
		<g>
			
				<rect x="21.584" y="169.524" transform="matrix(0.7071 -0.7071 0.7071 0.7071 -105.4357 124.4694)" fill="#FFFFFF" width="151.891" height="39.966"/>
		</g>
	</g>
	<g>
		<g>
			<path fill="#FFFFFF" d="M17.629,191.662c3.126,3.122,3.123,8.182,0,11.305c-3.123,3.122-8.182,3.122-11.305,0
				c-3.123-3.123-3.127-8.183,0-11.305C9.447,188.539,14.507,188.539,17.629,191.662z"/>
		</g>
	</g>
	<g>
		<g>
			<g>
				<path fill="#5C9EFF" d="M142.997,375.817l9.369-9.368l0.012-0.008l-9.376,9.376l39.567,39.567l15.017-15.014l0.016-0.008
					l0.445-0.452c10.91-10.907,10.91-28.66,0-39.567c-10.907-10.914-28.66-10.914-39.571,0l-0.437,0.438l-0.011,0.016l-5.2,5.199
					c10.907-10.906,10.907-28.66,0-39.566c-10.91-10.915-28.664-10.915-39.574,0l-0.434,0.429l-0.016,0.023l-9.368,9.369
					L142.997,375.817z"/>
			</g>
		</g>
		<g>
			<g>
				<g>
					<path fill="#5C9EFF" d="M237.616,439.485l-0.437,0.438l-0.012,0.016l-16.043,16.043l-0.012,0.008l-0.012,0.008l0.012-0.016
						l21.696-21.695l0.016-0.008l0.445-0.445c10.911-10.914,10.911-28.668,0-39.574c-10.906-10.907-28.66-10.907-39.57,0
						l-0.434,0.437l-0.016,0.023l-20.677,20.674l8.315,8.314c0.597,4.114,2.412,8.08,5.574,11.242
						c0.008,0.008,0.02,0.016,0.031,0.023l22.68,22.68c0.488-0.421,1.026-0.749,1.491-1.218c-0.465,0.469-0.796,1.007-1.218,1.499
						l39.297,39.294c0.488-0.422,1.027-0.758,1.491-1.219l0.438-0.437l0.012-0.016l16.048-16.044l0.016-0.008l0.445-0.453
						c3.646-3.638,5.957-8.072,7.166-12.733l-25.482-25.482l7.854-7.847C256.877,429.516,245.479,431.623,237.616,439.485z"/>
				</g>
			</g>
			<g>
				<g>
					<path fill="#5C9EFF" d="M266.729,432.989c0.694,0.25,1.39,0.508,2.069,0.812l-1.438-1.444L266.729,432.989z"/>
				</g>
			</g>
		</g>
	</g>
	<g>
		<g>
			<path fill="#D7E9FF" d="M117.312,333.667c-0.008,0.008-0.016,0.016-0.023,0.031l-11.246,11.242
				c-0.012,0.008-0.023,0.016-0.031,0.023c-7.804,7.807-7.804,20.463,0,28.262c7.803,7.808,20.463,7.808,28.266,0
				c0.008-0.008,0.012-0.016,0.023-0.023l11.246-11.25c0.012-0.008,0.023-0.016,0.031-0.023c7.804-7.799,7.804-20.463,0-28.262
				C137.774,325.859,125.115,325.859,117.312,333.667z"/>
		</g>
	</g>
	<g>
		<g>
			<path fill="#D7E9FF" d="M162.531,367.581c-0.008,0.008-0.012,0.016-0.023,0.031l-16.899,16.895
				c-0.012,0.008-0.02,0.016-0.031,0.023c-7.803,7.808-7.803,20.463,0,28.27c7.804,7.8,20.463,7.8,28.266,0
				c0.008-0.008,0.016-0.023,0.027-0.031l16.895-16.902c0.012-0.008,0.023-0.016,0.031-0.023c7.803-7.799,7.803-20.463,0-28.262
				C182.993,359.774,170.334,359.774,162.531,367.581z"/>
		</g>
	</g>
	<g>
		<g>
			<path fill="#5C9EFF" d="M289.651,240.32l-50.802-50.802l-8.802-0.52c-11.523,10.974-41.878,39.892-44.891,42.9l-0.008,0.004
				c-10.907,10.911-10.907,28.665,0,39.571c10.91,10.915,28.664,10.915,39.574,0c11.77-11.77,52.305-42.112,65.171-30.913
				C289.894,240.562,289.659,240.328,289.651,240.32z"/>
		</g>
	</g>
	<g>
		<g>
			<path fill="#D7E9FF" d="M241.676,446.723c-0.012,0.008-0.016,0.016-0.027,0.031l-16.898,16.895
				c-0.008,0.016-0.02,0.016-0.027,0.023c-7.803,7.808-7.803,20.463,0,28.27c7.804,7.8,20.459,7.8,28.262,0
				c0.008-0.008,0.016-0.023,0.027-0.031l16.902-16.902c0.008-0.008,0.016-0.016,0.023-0.023c7.808-7.8,7.808-20.462,0-28.262
				C262.135,438.915,249.479,438.915,241.676,446.723z"/>
		</g>
	</g>
	<g>
		<g>
			<path fill="#D7E9FF" d="M207.758,401.495c-0.008,0.008-0.016,0.023-0.027,0.031l-22.551,22.555
				c-0.012,0.008-0.02,0.016-0.031,0.023c-7.8,7.8-7.8,20.463,0,28.263c7.807,7.808,20.462,7.808,28.266,0
				c0.008-0.008,0.016-0.016,0.027-0.031l22.551-22.547c0.012-0.016,0.02-0.016,0.027-0.023c7.804-7.808,7.804-20.463,0-28.271
				C228.221,393.696,215.561,393.696,207.758,401.495z"/>
		</g>
	</g>
	<g>
		<g>
			<path fill="#FFFFFF" d="M117.315,361.921c-7.803-7.799-7.799-20.455,0-28.262l-0.004,0.008c-0.008,0.008-0.016,0.016-0.023,0.031
				l-11.246,11.242c-0.012,0.008-0.023,0.016-0.031,0.023c-7.804,7.807-7.804,20.463,0,28.262c7.803,7.808,20.463,7.808,28.266,0
				c0.008-0.008,0.012-0.016,0.023-0.023l11.246-11.25c0.012-0.008,0.023-0.016,0.031-0.023l0,0
				C137.774,369.72,125.119,369.728,117.315,361.921z"/>
		</g>
	</g>
	<g>
		<g>
			<g>
				<path fill="#FFFFFF" d="M156.886,401.487c-7.795-7.791-7.803-20.432-0.027-28.23l-11.25,11.25
					c-0.012,0.008-0.02,0.016-0.031,0.023c-7.803,7.808-7.803,20.463,0,28.27c7.804,7.8,20.463,7.8,28.266,0
					c0.008-0.008,0.016-0.023,0.027-0.031l11.25-11.25C177.317,409.295,164.682,409.287,156.886,401.487z"/>
			</g>
		</g>
	</g>
	<g>
		<g>
			<g>
				<path fill="#FFFFFF" d="M236.027,480.637c-7.795-7.8-7.799-20.431-0.023-28.238l-11.254,11.25
					c-0.008,0.016-0.02,0.016-0.027,0.023c-7.803,7.808-7.803,20.463,0,28.27c7.804,7.8,20.459,7.8,28.262,0
					c0.008-0.008,0.016-0.023,0.027-0.031l11.25-11.25C256.459,488.437,243.823,488.429,236.027,480.637z"/>
			</g>
		</g>
	</g>
	<g>
		<g>
			<g>
				<path fill="#FFFFFF" d="M196.457,441.062c-7.796-7.792-7.804-20.432-0.027-28.231l-11.25,11.25
					c-0.012,0.008-0.02,0.016-0.031,0.023c-7.8,7.8-7.8,20.463,0,28.263c7.807,7.808,20.462,7.808,28.266,0
					c0.008-0.008,0.016-0.016,0.027-0.031l11.25-11.25C216.888,448.861,204.252,448.854,196.457,441.062z"/>
			</g>
		</g>
	</g>
	<g>
		<g>
			<path fill="#D7E9FF" d="M280.26,490.966c-7.8,7.799-20.459,7.799-28.263,0l0.004,0.008c0.008,0.008,0.02,0.008,0.031,0.023
				l11.242,11.242c0.012,0.016,0.02,0.023,0.027,0.031c7.808,7.808,20.463,7.808,28.271,0c7.799-7.799,7.799-20.463,0-28.262
				c-0.016-0.008-0.023-0.016-0.031-0.023l-11.25-11.25c-0.008-0.008-0.016-0.023-0.023-0.031l0,0
				C288.066,470.503,288.066,483.159,280.26,490.966z"/>
		</g>
	</g>
	<g>
		<g>
			<g>
				<path fill="#D7E9FF" d="M317.008,454.226c-7.8,7.791-20.432,7.799-28.238,0.023l11.25,11.25
					c0.016,0.008,0.016,0.023,0.023,0.031c7.807,7.799,20.462,7.799,28.27,0c7.799-7.808,7.799-20.463,0-28.262
					c-0.008-0.016-0.023-0.016-0.031-0.031l-11.25-11.251C324.807,433.794,324.799,446.426,317.008,454.226z"/>
			</g>
		</g>
	</g>
	<g>
		<g>
			<g>
				<path fill="#D7E9FF" d="M396.148,375.084c-7.799,7.791-20.431,7.799-28.238,0.023l11.25,11.25
					c0.016,0.008,0.016,0.023,0.023,0.031c7.808,7.8,20.463,7.8,28.271,0c7.799-7.808,7.799-20.463,0-28.271
					c-0.008-0.008-0.023-0.008-0.031-0.022l-11.251-11.251C403.948,354.652,403.94,367.284,396.148,375.084z"/>
			</g>
		</g>
	</g>
	<g>
		<g>
			<g>
				<path fill="#D7E9FF" d="M356.574,414.65c-7.791,7.8-20.432,7.8-28.23,0.023l11.25,11.258c0.008,0.008,0.016,0.016,0.023,0.023
					c7.799,7.808,20.463,7.808,28.262,0c7.808-7.799,7.808-20.454,0-28.262c-0.008-0.008-0.016-0.016-0.031-0.023l-11.25-11.25
					C364.374,394.22,364.374,406.859,356.574,414.65z"/>
			</g>
		</g>
	</g>
	<g>
		<g>
			<path fill="#D7E9FF" d="M239.951,190.611c0,0-45.528,43.33-49.146,46.945c-7.804,7.803-7.804,20.462,0,28.266
				c7.803,7.808,20.458,7.808,28.262,0c7.807-7.808,50.622-43.486,70.663-25.436L399.99,350.655
				c29.831-35.547,43.104-115.18,43.104-115.18l-85.527-85.535C357.566,149.94,271.937,167.369,239.951,190.611z"/>
		</g>
	</g>
	<g>
		<g>
			<path fill="#94C1FF" d="M399.99,350.655c3.311-3.943,6.387-8.494,9.291-13.351c0,0-56.384-56.384-119.552-96.918L399.99,350.655z
				"/>
		</g>
	</g>
	<g>
		<g>
			<polygon fill="#5C9EFF" points="155.422,159.891 69.266,246.047 74.965,262.945 170.932,166.979 			"/>
		</g>
	</g>
	<g>
		<g>
			
				<rect x="13.109" y="173.033" transform="matrix(0.7071 -0.7071 0.7071 0.7071 -101.924 115.9948)" fill="#D7E9FF" width="151.892" height="15.993"/>
		</g>
	</g>
	<g>
		<g>
			<path fill="#94C1FF" d="M439.275,254.275c2.562-11.324,3.818-18.8,3.818-18.8l-85.527-85.535c0,0-7.37,1.515-18.449,4.181
				L439.275,254.275z"/>
		</g>
	</g>
	<g>
		<g>
			
				<rect x="414.578" y="93.782" transform="matrix(-0.7071 0.7071 -0.7071 -0.7071 841.4 -9.0613)" fill="#D7E9FF" width="15.998" height="151.894"/>
		</g>
	</g>
	<g>
		<g>
			<polygon fill="#2287FF" points="137.103,121.674 148.407,110.369 43.803,5.769 40.368,24.939 			"/>
		</g>
	</g>
	<g>
		<g>
			<polygon fill="#5C9EFF" points="456.553,5.733 363.219,99.068 374.523,110.373 461.026,23.87 			"/>
		</g>
	</g>
	<g id="_x31__handshake_x2C__deal_x2C__partnership_x2C__hand_x2C__business_x2C__job_x2C__work">
		<g>
			<g>
				<path fill="#116FFF" d="M275.599,510.265c-6.145,0-12.289-2.334-16.966-7.01c-1.561-1.555-1.561-4.092,0-5.653
					c1.562-1.562,4.092-1.562,5.652,0c6.246,6.238,16.396,6.23,22.626,0c6.229-6.237,6.222-16.379-0.016-22.609
					c-1.562-1.562-1.562-4.091,0-5.652s4.091-1.562,5.652,0c9.353,9.345,9.36,24.554,0.016,33.915
					C287.887,507.931,281.742,510.265,275.599,510.265z"/>
			</g>
		</g>
		<g>
			<g>
				<path fill="#116FFF" d="M312.354,473.54c-6.417,0-12.444-2.498-16.973-7.034c-1.562-1.562-1.562-4.099,0-5.652
					c1.562-1.562,4.091-1.562,5.652,0c6.043,6.043,16.582,6.051,22.609,0.008c3.021-3.014,4.685-7.034,4.685-11.305
					s-1.671-8.283-4.692-11.305l-31.088-31.104c-1.562-1.561-1.562-4.091,0-5.652c1.562-1.561,4.091-1.561,5.652,0l31.088,31.104
					c4.536,4.528,7.026,10.555,7.034,16.957c0,6.409-2.49,12.429-7.026,16.957C324.775,471.042,318.756,473.54,312.354,473.54z"/>
			</g>
		</g>
		<g>
			<g>
				<path fill="#116FFF" d="M351.906,433.958c-6.137,0-12.281-2.335-16.958-7.012l-31.088-31.096c-1.562-1.561-1.562-4.091,0-5.652
					s4.091-1.562,5.652,0l31.088,31.096c6.23,6.23,16.38,6.23,22.618,0c6.237-6.245,6.237-16.395,0-22.633l-31.097-31.08
					c-1.562-1.562-1.562-4.091,0-5.652s4.091-1.562,5.652,0l31.097,31.08c9.353,9.354,9.353,24.577,0,33.938
					C364.194,431.623,358.05,433.958,351.906,433.958z"/>
			</g>
		</g>
		<g>
			<g>
				<path fill="#116FFF" d="M391.488,394.383c-6.137,0-12.281-2.334-16.957-7.003l-31.097-31.104c-1.562-1.562-1.562-4.091,0-5.652
					s4.091-1.562,5.653,0l31.088,31.104c6.238,6.223,16.379,6.223,22.609-0.008c3.021-3.021,4.685-7.034,4.685-11.312
					c0-4.271-1.663-8.283-4.685-11.305l-115.882-115.89c-1.562-1.562-1.562-4.092,0-5.652c1.562-1.562,4.091-1.562,5.652,0
					l115.882,115.89c4.536,4.528,7.026,10.547,7.026,16.957c0,6.418-2.49,12.437-7.026,16.965
					C403.769,392.049,397.633,394.383,391.488,394.383z"/>
			</g>
		</g>
		<g>
			<g>
				<path fill="#116FFF" d="M97.778,334.588c-1.456,0-2.857-0.796-3.564-2.179c-17.312-33.953-23.008-67.344-23.242-68.75
					c-0.363-2.174,1.109-4.234,3.287-4.598c2.159-0.359,4.231,1.112,4.599,3.283c0.055,0.335,5.75,33.621,22.477,66.435
					c1.003,1.968,0.223,4.372-1.745,5.371C99.008,334.447,98.387,334.588,97.778,334.588z"/>
			</g>
		</g>
		<g>
			<g>
				<path fill="#116FFF" d="M217.474,192.255c-0.515,0-1.038-0.098-1.542-0.309c-27.754-11.617-46.581-21.407-46.769-21.505
					c-1.956-1.022-2.713-3.435-1.694-5.395c1.022-1.96,3.439-2.713,5.395-1.694c0.184,0.098,18.737,9.743,46.152,21.216
					c2.038,0.855,2.998,3.197,2.147,5.231C220.519,191.334,219.035,192.255,217.474,192.255z"/>
			</g>
		</g>
		<g>
			<g>
				<path fill="#116FFF" d="M407.47,339.491c-0.805,0-1.616-0.242-2.319-0.742c-1.795-1.28-2.217-3.778-0.937-5.574
					c23.866-33.454,28.465-81.354,28.504-81.835c0.203-2.194,2.132-3.853,4.349-3.619c2.193,0.199,3.818,2.147,3.615,4.345
					c-0.188,2.046-4.849,50.552-29.957,85.755C409.944,338.913,408.719,339.491,407.47,339.491z"/>
			</g>
		</g>
		<g>
			<g>
				<path fill="#116FFF" d="M238.846,501.794L238.846,501.794c-6.401,0-12.425-2.49-16.953-7.019
					c-9.345-9.345-9.345-24.562-0.004-33.922l16.961-16.965c9.072-9.049,24.858-9.057,33.915,0.016
					c4.536,4.528,7.026,10.548,7.026,16.949c0,6.409-2.49,12.429-7.026,16.965l-16.95,16.941
					C251.279,499.296,245.252,501.794,238.846,501.794z M255.811,444.872c-4.271,0-8.288,1.655-11.313,4.677l-16.953,16.957
					c-6.23,6.238-6.23,16.388,0,22.617c3.018,3.014,7.034,4.677,11.301,4.677l0,0c4.271,0,8.292-1.663,11.317-4.692l16.949-16.941
					c3.021-3.021,4.685-7.042,4.685-11.312c0-4.263-1.663-8.275-4.685-11.297C264.091,446.535,260.078,444.872,255.811,444.872z"/>
			</g>
		</g>
		<g>
			<g>
				<path fill="#116FFF" d="M199.279,462.228h-0.004c-6.398,0-12.421-2.49-16.953-7.019c-9.342-9.36-9.342-24.585,0.004-33.938
					l22.609-22.609c9.064-9.056,24.866-9.048,33.914,0c9.35,9.354,9.35,24.577-0.004,33.931l-22.605,22.609
					C211.708,459.729,205.681,462.228,199.279,462.228z M221.896,399.638c-4.271,0-8.287,1.662-11.309,4.676l-22.609,22.61
					c-6.23,6.237-6.23,16.395,0,22.633c3.018,3.014,7.03,4.677,11.297,4.677h0.004c4.271,0,8.287-1.663,11.309-4.685l22.605-22.609
					c6.238-6.238,6.238-16.388,0-22.626C230.18,401.3,226.171,399.638,221.896,399.638z"/>
			</g>
		</g>
		<g>
			<g>
				<path fill="#116FFF" d="M159.708,422.646c-6.41,0-12.429-2.491-16.95-7.02c-4.532-4.52-7.03-10.539-7.034-16.949
					c-0.004-6.401,2.487-12.429,7.019-16.965l16.965-16.965c9.064-9.057,24.866-9.064,33.922,0.008
					c4.532,4.528,7.026,10.548,7.026,16.949c0,6.41-2.494,12.43-7.026,16.957l-16.965,16.965
					C172.134,420.154,166.11,422.646,159.708,422.646z M176.67,365.723c-4.271,0-8.288,1.663-11.309,4.677l-16.965,16.965
					c-3.017,3.021-4.68,7.034-4.676,11.312c0,4.271,1.667,8.283,4.688,11.297c6.035,6.043,16.563,6.035,22.606,0l16.965-16.965
					c3.021-3.021,4.684-7.034,4.684-11.305c0-4.263-1.663-8.275-4.684-11.289C184.957,367.386,180.94,365.723,176.67,365.723z"/>
			</g>
		</g>
		<g>
			<g>
				<path fill="#116FFF" d="M120.134,383.078c0,0,0,0-0.004,0c-6.402,0-12.421-2.49-16.949-7.011
					c-9.345-9.361-9.341-24.577,0.004-33.922l11.305-11.305c9.053-9.064,24.847-9.064,33.906,0
					c9.35,9.353,9.354,24.561,0.008,33.906l-11.309,11.305C132.567,380.588,126.543,383.078,120.134,383.078z M131.438,331.809
					c-4.263,0-8.275,1.663-11.297,4.685l-11.305,11.305c-6.23,6.23-6.23,16.379,0,22.617c3.014,3.014,7.026,4.669,11.297,4.669l0,0
					c4.271,0,8.287-1.663,11.309-4.685l11.309-11.305c6.227-6.23,6.223-16.372-0.008-22.602
					C139.722,333.472,135.709,331.809,131.438,331.809z"/>
			</g>
		</g>
		<g>
			<g>
				<path fill="#116FFF" d="M204.943,275.683c-0.004,0-0.008,0-0.008,0c-6.406,0-12.429-2.498-16.957-7.034
					c-9.35-9.349-9.35-24.558,0-33.906l36.74-36.753c34.461-34.461,112.041-45.879,115.328-46.352
					c2.17-0.319,4.208,1.207,4.52,3.393c0.312,2.187-1.201,4.212-3.388,4.524c-0.78,0.109-78.235,11.516-110.808,44.087
					l-36.74,36.753c-6.23,6.229-6.23,16.371,0,22.602c3.021,3.021,7.038,4.692,11.305,4.692c0.004,0,0.004,0,0.004,0
					c4.271,0,8.279-1.663,11.301-4.685c2.081-2.073,51.176-50.575,76.315-25.443c1.562,1.561,1.562,4.091,0,5.652
					s-4.091,1.562-5.652,0c-16.216-16.192-52.426,12.874-65.011,25.443C217.364,273.185,211.341,275.683,204.943,275.683z"/>
			</g>
		</g>
		<g>
			<g>
				<path fill="#116FFF" d="M453.664,250.044c-1.022,0-2.045-0.391-2.826-1.171L343.435,141.462c-1.562-1.562-1.562-4.092,0-5.653
					c1.562-1.561,4.091-1.561,5.653,0L456.49,243.221c1.562,1.562,1.562,4.091,0,5.652
					C455.71,249.653,454.688,250.044,453.664,250.044z"/>
			</g>
		</g>
		<g>
			<g>
				<path fill="#116FFF" d="M493.239,233.083c-1.022,0-2.046-0.391-2.826-1.172L360.393,101.895c-1.562-1.562-1.562-4.091,0-5.652
					c1.561-1.562,4.091-1.562,5.652,0l130.021,130.017c1.562,1.562,1.562,4.092,0,5.652
					C495.285,232.692,494.262,233.083,493.239,233.083z"/>
			</g>
		</g>
		<g>
			<g>
				<path fill="#116FFF" d="M346.262,142.633c-1.023,0-2.046-0.391-2.827-1.171c-1.562-1.562-1.562-4.092,0-5.653l16.958-16.957
					c1.561-1.562,4.091-1.562,5.652,0c1.561,1.562,1.561,4.091,0,5.652l-16.957,16.958
					C348.307,142.242,347.284,142.633,346.262,142.633z"/>
			</g>
		</g>
		<g>
			<g>
				<path fill="#116FFF" d="M453.664,250.044c-1.022,0-2.045-0.391-2.826-1.171c-1.561-1.562-1.561-4.091,0-5.652l16.958-16.958
					c1.562-1.561,4.091-1.561,5.652,0c1.562,1.562,1.562,4.092,0,5.652l-16.958,16.958
					C455.71,249.653,454.688,250.044,453.664,250.044z"/>
			</g>
		</g>
		<g>
			<g>
				<path fill="#116FFF" d="M363.219,103.065c-1.023,0-2.046-0.39-2.826-1.171c-1.562-1.562-1.562-4.091,0-5.652l93.334-93.335
					c1.562-1.562,4.092-1.562,5.652,0c1.562,1.562,1.562,4.091,0,5.652l-93.334,93.335
					C365.264,102.676,364.241,103.065,363.219,103.065z"/>
			</g>
		</g>
		<g>
			<g>
				<path fill="#116FFF" d="M493.239,233.083c-1.022,0-2.046-0.391-2.826-1.172c-1.562-1.561-1.562-4.095,0-5.652l14.763-14.747
					c1.562-1.562,4.092-1.562,5.653,0s1.562,4.095,0,5.652l-14.764,14.747C495.285,232.692,494.262,233.083,493.239,233.083z"/>
			</g>
		</g>
		<g>
			<g>
				<path fill="#116FFF" d="M57.958,261.337c-1.023,0-2.045-0.391-2.827-1.171c-1.561-1.562-1.561-4.091,0-5.652l107.412-107.399
					c1.562-1.562,4.091-1.562,5.652,0c1.562,1.562,1.562,4.091,0,5.652L60.784,260.166C60.003,260.946,58.98,261.337,57.958,261.337
					z"/>
			</g>
		</g>
		<g>
			<g>
				<path fill="#116FFF" d="M18.391,244.384c-1.022,0-2.045-0.391-2.826-1.171c-1.562-1.562-1.562-4.092,0-5.652l130.021-130.01
					c1.562-1.562,4.091-1.562,5.652,0c1.562,1.562,1.562,4.091,0,5.652L21.217,243.213
					C20.436,243.993,19.413,244.384,18.391,244.384z"/>
			</g>
		</g>
		<g>
			<g>
				<path fill="#116FFF" d="M57.958,261.337c-1.023,0-2.045-0.391-2.827-1.171l-16.957-16.953c-1.562-1.562-1.562-4.092,0-5.652
					c1.562-1.562,4.091-1.562,5.652,0l16.958,16.953c1.561,1.562,1.561,4.091,0,5.652C60.003,260.946,58.98,261.337,57.958,261.337z
					"/>
			</g>
		</g>
		<g>
			<g>
				<path fill="#116FFF" d="M165.369,153.938c-1.023,0-2.045-0.391-2.826-1.171l-16.958-16.958c-1.561-1.561-1.561-4.091,0-5.652
					c1.562-1.561,4.091-1.561,5.652,0l16.958,16.958c1.562,1.562,1.562,4.091,0,5.652
					C167.414,153.547,166.392,153.938,165.369,153.938z"/>
			</g>
		</g>
		<g>
			<g>
				<path fill="#116FFF" d="M18.391,244.384c-1.022,0-2.045-0.391-2.826-1.171l-14.1-14.101c-1.562-1.561-1.562-4.091,0-5.652
					s4.091-1.562,5.652,0l14.1,14.101c1.562,1.561,1.562,4.091,0,5.652C20.436,243.993,19.413,244.384,18.391,244.384z"/>
			</g>
		</g>
		<g>
			<g>
				<path fill="#116FFF" d="M148.411,114.374c-1.022,0-2.045-0.39-2.826-1.171L40.977,8.595c-1.562-1.562-1.562-4.091,0-5.652
					s4.091-1.562,5.652,0l104.608,104.608c1.562,1.562,1.562,4.091,0,5.652C150.457,113.984,149.434,114.374,148.411,114.374z"/>
			</g>
		</g>
		<g>
			<g>
				<path fill="#116FFF" d="M11.981,209.306c-3.205,0-6.218-1.245-8.487-3.505c-4.664-4.696-4.657-12.301,0.008-16.965
					c4.521-4.528,12.434-4.528,16.961,0c4.668,4.676,4.668,12.284,0,16.961C18.199,208.061,15.186,209.306,11.981,209.306z
					 M11.981,193.32c-1.07,0-2.073,0.414-2.822,1.168c-1.562,1.557-1.562,4.099-0.004,5.664c1.483,1.487,4.142,1.499,5.648-0.008
					c1.562-1.558,1.562-4.1,0-5.656C14.054,193.734,13.051,193.32,11.981,193.32z"/>
			</g>
		</g>
		<g>
			<g>
				<path fill="#116FFF" d="M298.208,467.677c-1.022,0-2.046-0.391-2.826-1.171l-31.089-31.088c-1.561-1.562-1.561-4.091,0-5.652
					c1.562-1.562,4.092-1.562,5.652,0l31.089,31.088c1.562,1.562,1.562,4.091,0,5.652
					C300.254,467.286,299.23,467.677,298.208,467.677z"/>
			</g>
		</g>
	</g>
</g>
</svg>
