<?xml version="1.0" encoding="utf-8"?>
<!-- Generator: Adobe Illustrator 16.0.0, SVG Export Plug-In . SVG Version: 6.00 Build 0)  -->
<!DOCTYPE svg PUBLIC "-//W3C//DTD SVG 1.1//EN" "http://www.w3.org/Graphics/SVG/1.1/DTD/svg11.dtd">
<svg version="1.1" id="Layer_1" xmlns="http://www.w3.org/2000/svg" xmlns:xlink="http://www.w3.org/1999/xlink" x="0px" y="0px"
	 width="512px" height="512px" viewBox="0 0 512 512" enable-background="new 0 0 512 512" xml:space="preserve">
<g id="_x31_7._keychain_x2C__design_x2C__advertising_x2C__brand_x2C__print_1_">
	<g>
		<path fill="#D7E9FF" d="M256,4.062c-35.339,0-63.984,28.649-63.984,63.984S220.661,132.03,256,132.03
			c35.335,0,63.984-28.649,63.984-63.984S291.335,4.062,256,4.062z M256,116.034c-26.501,0-47.988-21.495-47.988-47.988
			c0-26.494,21.487-47.988,47.988-47.988c26.501,0,47.988,21.495,47.988,47.988C303.988,94.539,282.501,116.034,256,116.034z"/>
	</g>
	<g>
		<path fill="#48CFAD" d="M383.969,380.001c0,70.678-57.299,127.969-127.969,127.969c-70.674,0-127.969-57.291-127.969-127.969
			c0-70.679,57.294-127.969,127.969-127.969C326.67,252.032,383.969,309.322,383.969,380.001z"/>
	</g>
	<g>
		<path fill="#94C1FF" d="M383.969,380.001c0,70.678-57.299,127.969-127.969,127.969c-70.674,0-127.969-57.291-127.969-127.969
			c0-70.679,57.294-127.969,127.969-127.969C326.67,252.032,383.969,309.322,383.969,380.001z"/>
	</g>
	<g>
		<path fill="#D7E9FF" d="M383.969,363.974c0,70.678-57.299,127.969-127.969,127.969c-70.674,0-127.969-57.291-127.969-127.969
			c0-70.679,57.294-127.969,127.969-127.969C326.67,236.005,383.969,293.295,383.969,363.974z"/>
	</g>
	<g>
		<path fill="#FFFFFF" d="M144.027,363.974c0-67.976,53.042-123.415,119.971-127.562c-2.66-0.164-5.3-0.406-7.998-0.406
			c-70.674,0-127.969,57.29-127.969,127.969c0,70.678,57.294,127.969,127.969,127.969c2.698,0,5.338-0.242,7.998-0.406
			C197.069,487.389,144.027,431.949,144.027,363.974z"/>
	</g>
	<g>
		<path fill="#94C1FF" d="M367.566,363.974c0,67.976-53.034,123.415-119.967,127.562c2.66,0.164,5.3,0.406,7.998,0.406
			c70.674,0,127.965-57.291,127.965-127.969c0-70.679-57.291-127.969-127.965-127.969c-2.698,0-5.338,0.242-7.998,0.406
			C314.532,240.559,367.566,295.998,367.566,363.974z"/>
	</g>
	<g>
		<g>
			<circle fill="#94C1FF" cx="256" cy="363.974" r="87.979"/>
		</g>
		<g>
			<path fill="#D7E9FF" d="M258.874,401.004l-32.148,45.91c-7.842-2.718-15.113-6.482-21.674-11.278l38.951-55.666l14.48,20.792
				L258.874,401.004z"/>
		</g>
		<g>
			<path fill="#FFFFFF" d="M295.99,347.978l38.709,55.346c-14.395,28.876-44.224,48.629-78.699,48.629
				c-10.318,0-20.151-1.757-29.274-5.038l32.148-45.91L295.99,347.978z"/>
		</g>
		<g>
			<path fill="#FFFFFF" d="M224.008,315.985c8.795,0,15.996,7.201,15.996,15.996s-7.201,15.996-15.996,15.996
				s-15.996-7.201-15.996-15.996S215.213,315.985,224.008,315.985z"/>
		</g>
	</g>
	<g id="_x31_7._keychain_x2C__design_x2C__advertising_x2C__brand_x2C__print">
		<g>
			<path fill="#116FFF" d="M256,495.941c-72.768,0-131.968-59.204-131.968-131.968S183.232,232.006,256,232.006
				c72.764,0,131.968,59.204,131.968,131.968S328.764,495.941,256,495.941z M256,240.004c-68.358,0-123.97,55.611-123.97,123.97
				s55.611,123.97,123.97,123.97s123.97-55.611,123.97-123.97S324.358,240.004,256,240.004z"/>
		</g>
		<g>
			<path fill="#116FFF" d="M256,511.938c-72.768,0-131.968-59.204-131.968-131.968c0-2.21,1.789-3.999,3.999-3.999
				s3.999,1.789,3.999,3.999c0,68.358,55.611,123.97,123.97,123.97s123.97-55.611,123.97-123.97c0-2.21,1.788-3.999,3.999-3.999
				s3.999,1.789,3.999,3.999C387.968,452.733,328.764,511.938,256,511.938z"/>
		</g>
		<g>
			<path fill="#116FFF" d="M279.994,232.006c-2.211,0-3.999-1.789-3.999-3.999c0-11.028-8.967-19.995-19.995-19.995
				c-11.024,0-19.995,8.967-19.995,19.995c0,2.21-1.789,3.999-3.999,3.999s-3.999-1.789-3.999-3.999
				c0-15.434,12.56-27.993,27.993-27.993s27.993,12.56,27.993,27.993C283.993,230.217,282.205,232.006,279.994,232.006z"/>
		</g>
		<g>
			<g>
				<path fill="#116FFF" d="M271.996,200.014c-2.211,0-3.999-1.789-3.999-3.999v-23.994c0-2.21,1.788-3.999,3.999-3.999
					s3.999,1.789,3.999,3.999v23.994C275.995,198.225,274.207,200.014,271.996,200.014z"/>
			</g>
			<g>
				<path fill="#116FFF" d="M256,216.01c-11.024,0-19.995-8.967-19.995-19.995v-31.992c0-11.028,8.971-19.995,19.995-19.995
					c2.211,0,3.999,1.789,3.999,3.999s-1.788,3.999-3.999,3.999c-6.616,0-11.997,5.381-11.997,11.997v31.992
					c0,6.615,5.381,11.997,11.997,11.997c2.211,0,3.999,1.789,3.999,3.999S258.211,216.01,256,216.01z"/>
			</g>
			<g>
				<path fill="#116FFF" d="M240.004,144.027c-2.21,0-3.999-1.789-3.999-3.999v-23.994c0-11.028,8.971-19.995,19.995-19.995
					c2.211,0,3.999,1.789,3.999,3.999s-1.788,3.999-3.999,3.999c-6.616,0-11.997,5.381-11.997,11.997v23.994
					C244.003,142.239,242.214,144.027,240.004,144.027z"/>
			</g>
			<g>
				<path fill="#116FFF" d="M256,168.021c-2.21,0-3.999-1.789-3.999-3.999s1.789-3.999,3.999-3.999
					c6.615,0,11.997-5.382,11.997-11.997v-7.998c0-2.21,1.788-3.999,3.999-3.999s3.999,1.789,3.999,3.999v7.998
					C275.995,159.055,267.028,168.021,256,168.021z"/>
			</g>
		</g>
		<g>
			<path fill="#116FFF" d="M256,136.029c-37.487,0-67.983-30.5-67.983-67.983c0-37.483,30.496-67.983,67.983-67.983
				c37.49,0,67.983,30.5,67.983,67.983C323.983,105.529,293.49,136.029,256,136.029z M256,8.061
				c-33.078,0-59.985,26.907-59.985,59.985s26.907,59.985,59.985,59.985s59.985-26.907,59.985-59.985S289.078,8.061,256,8.061z"/>
		</g>
		<g>
			<path fill="#116FFF" d="M256,120.033c-28.665,0-51.987-23.322-51.987-51.987S227.335,16.059,256,16.059
				s51.987,23.322,51.987,51.987S284.665,120.033,256,120.033z M256,24.057c-24.256,0-43.989,19.737-43.989,43.989
				s19.733,43.989,43.989,43.989c24.26,0,43.989-19.737,43.989-43.989S280.26,24.057,256,24.057z"/>
		</g>
		<g>
			<path fill="#116FFF" d="M128.031,383.969c-2.21,0-3.999-1.789-3.999-3.999v-15.996c0-2.21,1.789-3.999,3.999-3.999
				s3.999,1.789,3.999,3.999v15.996C132.03,382.18,130.242,383.969,128.031,383.969z"/>
		</g>
		<g>
			<path fill="#116FFF" d="M383.969,383.969c-2.211,0-3.999-1.789-3.999-3.999v-15.996c0-2.21,1.788-3.999,3.999-3.999
				s3.999,1.789,3.999,3.999v15.996C387.968,382.18,386.18,383.969,383.969,383.969z"/>
		</g>
		<g>
			<g>
				<path fill="#116FFF" d="M256.238,455.951c-10.595,0-20.901-1.773-30.629-5.272c-8.213-2.851-15.859-6.834-22.678-11.817
					c-24.193-17.035-38.67-45.051-38.67-74.888c0-50.714,41.259-91.978,91.978-91.978c50.718,0,91.981,41.264,91.981,91.978
					c0,14.434-3.265,28.274-9.701,41.139C322.874,436.472,291.351,455.951,256.238,455.951z M256.238,279.994
					c-46.305,0-83.979,37.67-83.979,83.979c0,27.243,13.208,52.808,35.335,68.39c6.233,4.562,13.173,8.17,20.683,10.771
					c8.9,3.202,18.292,4.819,27.962,4.819c32.059,0,60.841-17.785,75.126-46.418c5.882-11.748,8.857-24.385,8.857-37.562
					C340.222,317.664,302.551,279.994,256.238,279.994z"/>
			</g>
			<g>
				<path fill="#116FFF" d="M205.286,439.635c-0.792,0-1.589-0.234-2.289-0.727c-1.808-1.266-2.249-3.757-0.984-5.568l38.952-55.666
					c1.265-1.805,3.753-2.234,5.568-0.984c1.809,1.273,2.25,3.765,0.984,5.576l-38.951,55.666
					C207.789,439.041,206.547,439.635,205.286,439.635z"/>
			</g>
			<g>
				<path fill="#116FFF" d="M258.722,404.761c-1.265,0-2.507-0.602-3.284-1.711l-14.477-20.792
					c-1.266-1.812-0.816-4.311,0.996-5.568c1.808-1.266,4.304-0.812,5.565,0.992l14.477,20.791c1.266,1.812,0.816,4.312-0.995,5.569
					C260.308,404.526,259.511,404.761,258.722,404.761z"/>
			</g>
			<g>
				<path fill="#116FFF" d="M226.96,450.913c-0.792,0-1.593-0.234-2.288-0.726c-1.812-1.266-2.25-3.758-0.984-5.569l69.265-98.937
					c1.272-1.805,3.757-2.25,5.568-0.977c1.812,1.266,2.25,3.757,0.984,5.568l-69.264,98.938
					C229.463,450.319,228.222,450.913,226.96,450.913z"/>
			</g>
			<g>
				<path fill="#116FFF" d="M334.949,407.322c-1.266,0-2.507-0.594-3.28-1.711l-38.717-55.346c-1.266-1.804-0.82-4.295,0.983-5.568
					c1.82-1.258,4.305-0.828,5.569,0.992l38.71,55.346c1.265,1.804,0.827,4.295-0.984,5.568
					C336.535,407.088,335.738,407.322,334.949,407.322z"/>
			</g>
			<g>
				<path fill="#116FFF" d="M224.246,351.977c-11.024,0-19.995-8.967-19.995-19.995s8.971-19.995,19.995-19.995
					s19.995,8.967,19.995,19.995S235.271,351.977,224.246,351.977z M224.246,319.984c-6.616,0-11.997,5.381-11.997,11.997
					c0,6.615,5.381,11.997,11.997,11.997c6.615,0,11.997-5.382,11.997-11.997C236.243,325.365,230.861,319.984,224.246,319.984z"/>
			</g>
		</g>
	</g>
</g>
</svg>
