<?xml version="1.0" encoding="utf-8"?>
<!-- Generator: Adobe Illustrator 16.0.0, SVG Export Plug-In . SVG Version: 6.00 Build 0)  -->
<!DOCTYPE svg PUBLIC "-//W3C//DTD SVG 1.1//EN" "http://www.w3.org/Graphics/SVG/1.1/DTD/svg11.dtd">
<svg version="1.1" id="Layer_1" xmlns="http://www.w3.org/2000/svg" xmlns:xlink="http://www.w3.org/1999/xlink" x="0px" y="0px"
	 width="512px" height="512px" viewBox="0 0 512 512" enable-background="new 0 0 512 512" xml:space="preserve">
<g id="_x31_3._cup_x2C__design_x2C__advertising_x2C__brand_x2C__print_1_">
	<g>
		<path fill="#94C1FF" d="M455.951,252v143.964c0,17.59-14.402,31.992-31.992,31.992h-63.984h-7.998v-23.994h7.998h55.986
			c8.795,0,15.996-7.201,15.996-15.996V260.002c0-8.798-7.201-16-15.996-16h-55.986h-7.998v-23.994h7.998h63.984
			C441.549,220.008,455.951,234.403,455.951,252z"/>
	</g>
	<g>
		<path fill="#D7E9FF" d="M295.99,148.026h55.986v71.982v23.994v159.96v23.994v31.992c0,26.385-13.606,47.988-39.99,47.988H104.033
			c-26.392,0-47.988-21.604-47.988-47.988V148.026h39.99h55.986H240H295.99z"/>
	</g>
	<g>
		<g>
			<path fill="#FFFFFF" d="M72.041,459.949V148.026H56.045v311.923c0,26.385,21.596,47.988,47.988,47.988h15.996
				C93.637,507.938,72.041,486.334,72.041,459.949z"/>
		</g>
	</g>
	<g>
		<g>
			<path fill="#94C1FF" d="M335.98,459.949V148.026h15.996v311.923c0,26.385-21.604,47.988-47.988,47.988h-15.996
				C314.376,507.938,335.98,486.334,335.98,459.949z"/>
		</g>
	</g>
	<g>
		<circle fill="#FFFFFF" cx="204.013" cy="339.979" r="87.979"/>
	</g>
	<g>
		<path fill="#656D78" d="M206.891,377.01l-32.152,45.91c-7.838-2.719-15.113-6.482-21.674-11.279l38.951-55.666l14.477,20.793
			L206.891,377.01z"/>
	</g>
	<g>
		<path fill="#5C9EFF" d="M206.891,377.01l-32.152,45.91c-7.838-2.719-15.113-6.482-21.674-11.279l38.951-55.666l14.477,20.793
			L206.891,377.01z"/>
	</g>
	<g>
		<path fill="#94C1FF" d="M244.003,323.982l38.709,55.346c-14.395,28.877-44.228,48.629-78.699,48.629
			c-10.318,0-20.155-1.756-29.274-5.037l32.152-45.91L244.003,323.982z"/>
	</g>
	<g>
		<path fill="#D7E9FF" d="M172.021,291.99c8.799,0,15.996,7.201,15.996,15.996s-7.197,15.996-15.996,15.996
			s-15.996-7.201-15.996-15.996S163.222,291.99,172.021,291.99z"/>
	</g>
	<g id="_x31_3._cup_x2C__design_x2C__advertising_x2C__brand_x2C__print">
		<g>
			<path fill="#116FFF" d="M311.986,511.938H104.037c-28.665,0-51.987-23.322-51.987-51.988V148.026c0-2.21,1.789-3.999,3.999-3.999
				h295.928c2.211,0,3.999,1.789,3.999,3.999v311.923C355.976,491.043,338.3,511.938,311.986,511.938z M60.048,152.025v307.924
				c0,24.252,19.733,43.99,43.989,43.99h207.949c26.563,0,35.991-23.697,35.991-43.99V152.025H60.048z"/>
		</g>
		<g>
			<g>
				<path fill="#116FFF" d="M423.959,431.957h-71.982c-2.211,0-3.999-1.789-3.999-4c0-2.209,1.788-3.998,3.999-3.998h71.982
					c15.434,0,27.993-12.561,27.993-27.994V252c0-15.434-12.56-27.993-27.993-27.993h-71.982c-2.211,0-3.999-1.789-3.999-3.999
					s1.788-3.999,3.999-3.999h71.982c19.847,0,35.991,16.145,35.991,35.991v143.964C459.95,415.812,443.806,431.957,423.959,431.957
					z"/>
			</g>
			<g>
				<path fill="#116FFF" d="M415.961,407.963h-63.984c-2.211,0-3.999-1.789-3.999-4c0-2.209,1.788-3.998,3.999-3.998h63.984
					c6.615,0,11.997-5.383,11.997-11.998V259.998c0-6.616-5.382-11.997-11.997-11.997h-63.984c-2.211,0-3.999-1.789-3.999-3.999
					s1.788-3.999,3.999-3.999h63.984c11.028,0,19.995,8.971,19.995,19.995v127.969C435.956,398.996,426.989,407.963,415.961,407.963
					z"/>
			</g>
		</g>
		<g>
			<g>
				<path fill="#116FFF" d="M200.021,120.029c-1.02,0-2.039-0.387-2.819-1.164c-1.566-1.55-1.574-4.081-0.027-5.65
					c0.875-0.887,21.174-22.054-0.359-50.77c-25.779-34.366,0.105-60.946,0.371-61.211c1.562-1.562,4.077-1.559,5.639-0.004
					c1.566,1.55,1.574,4.081,0.027,5.65c-0.875,0.887-21.174,22.054,0.359,50.769c25.779,34.367-0.105,60.946-0.371,61.211
					C202.06,119.642,201.041,120.029,200.021,120.029z"/>
			</g>
			<g>
				<path fill="#116FFF" d="M245.346,120.029c-1.019,0-2.039-0.387-2.82-1.164c-1.565-1.55-1.573-4.081-0.027-5.646
					c0.875-0.891,21.171-22.058-0.359-50.773c-1.328-1.765-0.968-4.272,0.8-5.596c1.762-1.328,4.265-0.977,5.597,0.8
					c25.771,34.367-0.105,60.946-0.371,61.211C247.389,119.642,246.365,120.029,245.346,120.029z"/>
			</g>
			<g>
				<path fill="#116FFF" d="M152.033,120.029c-1.02,0-2.039-0.387-2.819-1.164c-1.566-1.55-1.574-4.081-0.027-5.65
					c0.875-0.887,21.174-22.054-0.359-50.77c-1.328-1.765-0.969-4.272,0.8-5.596c1.765-1.328,4.272-0.977,5.596,0.8
					c25.779,34.367-0.105,60.946-0.371,61.211C154.072,119.642,153.053,120.029,152.033,120.029z"/>
			</g>
			<g>
				<path fill="#116FFF" d="M240.004,192.015c-2.21,0-3.999-1.789-3.999-3.999v-40.029c0-2.21,1.789-3.999,3.999-3.999
					s3.999,1.789,3.999,3.999v40.029C244.003,190.227,242.214,192.015,240.004,192.015z"/>
			</g>
			<g>
				<path fill="#116FFF" d="M184.018,168.005c-2.21,0-3.999-1.789-3.999-3.999v-16.02c0-2.21,1.789-3.999,3.999-3.999
					s3.999,1.789,3.999,3.999v16.02C188.017,166.217,186.228,168.005,184.018,168.005z"/>
			</g>
			<g>
				<path fill="#116FFF" d="M295.99,240.003c-2.211,0-3.999-1.789-3.999-3.999v-88.018c0-2.21,1.788-3.999,3.999-3.999
					s3.999,1.789,3.999,3.999v88.018C299.989,238.214,298.201,240.003,295.99,240.003z"/>
			</g>
			<g>
				<path fill="#116FFF" d="M128.031,184.017c-2.21,0-3.999-1.789-3.999-3.999v-31.992c0-2.21,1.789-3.999,3.999-3.999
					s3.999,1.789,3.999,3.999v31.992C132.03,182.229,130.242,184.017,128.031,184.017z"/>
			</g>
		</g>
		<g>
			<g>
				<path fill="#116FFF" d="M204.009,431.957c-10.595,0-20.901-1.773-30.629-5.273c-8.212-2.85-15.859-6.834-22.678-11.816
					c-24.193-17.035-38.67-45.051-38.67-74.889c0-50.713,41.259-91.977,91.978-91.977c50.718,0,91.981,41.264,91.981,91.977
					c0,14.434-3.265,28.275-9.701,41.139C270.645,412.477,239.121,431.957,204.009,431.957z M204.009,256
					c-46.305,0-83.979,37.67-83.979,83.979c0,27.244,13.208,52.809,35.335,68.391c6.233,4.561,13.173,8.17,20.683,10.77
					c8.9,3.203,18.292,4.82,27.962,4.82c32.059,0,60.849-17.785,75.126-46.418c5.882-11.748,8.857-24.385,8.857-37.562
					C287.992,293.67,250.317,256,204.009,256z"/>
			</g>
			<g>
				<path fill="#116FFF" d="M153.057,415.641c-0.793,0-1.59-0.234-2.289-0.727c-1.808-1.266-2.249-3.758-0.984-5.568l38.952-55.666
					c1.261-1.812,3.761-2.242,5.568-0.984c1.809,1.273,2.25,3.764,0.984,5.576l-38.951,55.666
					C155.56,415.047,154.317,415.641,153.057,415.641z"/>
			</g>
			<g>
				<path fill="#116FFF" d="M206.492,380.766c-1.265,0-2.507-0.602-3.284-1.711l-14.477-20.791
					c-1.266-1.812-0.816-4.311,0.996-5.568c1.812-1.266,4.304-0.805,5.565,0.992l14.477,20.791c1.265,1.812,0.816,4.311-0.996,5.568
					C208.078,380.531,207.281,380.766,206.492,380.766z"/>
			</g>
			<g>
				<path fill="#116FFF" d="M174.73,426.918c-0.792,0-1.593-0.234-2.288-0.725c-1.812-1.266-2.25-3.758-0.984-5.57l69.265-98.936
					c1.265-1.805,3.753-2.258,5.568-0.977c1.809,1.266,2.25,3.756,0.984,5.568l-69.264,98.938
					C177.234,426.324,175.992,426.918,174.73,426.918z"/>
			</g>
			<g>
				<path fill="#116FFF" d="M282.712,383.328c-1.257,0-2.499-0.594-3.28-1.711l-38.709-55.346c-1.266-1.805-0.824-4.295,0.984-5.568
					c1.808-1.25,4.308-0.828,5.569,0.992l38.717,55.346c1.266,1.803,0.82,4.295-0.991,5.568
					C284.306,383.094,283.509,383.328,282.712,383.328z"/>
			</g>
			<g>
				<path fill="#116FFF" d="M172.017,327.982c-11.024,0-19.995-8.967-19.995-19.996c0-11.027,8.971-19.994,19.995-19.994
					s19.995,8.967,19.995,19.994C192.012,319.016,183.041,327.982,172.017,327.982z M172.017,295.99
					c-6.616,0-11.997,5.381-11.997,11.996s5.381,11.998,11.997,11.998c6.615,0,11.997-5.383,11.997-11.998
					S178.632,295.99,172.017,295.99z"/>
			</g>
		</g>
	</g>
</g>
</svg>
