<?xml version="1.0" encoding="utf-8"?>
<!-- Generator: Adobe Illustrator 16.0.0, SVG Export Plug-In . SVG Version: 6.00 Build 0)  -->
<!DOCTYPE svg PUBLIC "-//W3C//DTD SVG 1.1//EN" "http://www.w3.org/Graphics/SVG/1.1/DTD/svg11.dtd">
<svg version="1.1" id="Layer_1" xmlns="http://www.w3.org/2000/svg" xmlns:xlink="http://www.w3.org/1999/xlink" x="0px" y="0px"
	 width="512px" height="512px" viewBox="0 0 512 512" enable-background="new 0 0 512 512" xml:space="preserve">
<g id="_x31_5._t-shirt_x2C__design_x2C__advertising_x2C__brand_x2C__print_1_">
	<g>
		<path fill="#48CFAD" d="M196.015,4.063h119.971h7.998c0,15.996-15.996,47.988-67.983,47.988S188.017,20.06,188.017,4.063H196.015z
			"/>
	</g>
	<g>
		<path fill="#5C9EFF" d="M196.015,4.063h119.971h7.998c0,15.996-15.996,47.988-67.983,47.988S188.017,20.06,188.017,4.063H196.015z
			"/>
	</g>
	<g>
		<path fill="#94C1FF" d="M403.964,172.03v327.912c0,4.39-3.515,7.998-7.998,7.998H116.034c-4.397,0-7.998-3.608-7.998-7.998V172.03
			l-23.994,55.502l-79.98-47.504c0,0,46.153-119.979,63.984-135.975c17.839-15.996,119.971-39.99,119.971-39.99
			c0,15.996,15.996,47.988,67.983,47.988s67.983-31.992,67.983-47.988c0,0,102.14,23.994,119.971,39.99
			c17.839,15.996,63.984,135.975,63.984,135.975l-79.98,47.504L403.964,172.03z"/>
	</g>
	<g>
		<path fill="#2287FF" d="M188.017,4.063c0,15.996,15.996,47.988,67.983,47.988s67.983-31.992,67.983-47.988h-1.164
			c-4.397,16.77-22.502,39.99-66.819,39.99s-62.422-23.221-66.819-39.99H188.017z"/>
	</g>
	<g>
		<g>
			<path fill="#D7E9FF" d="M19.573,189.233c0,0,46.637-121.186,64.469-137.182c13.77-12.345,77.692-29.442,106.185-36.608
				c-1.5-4.183-2.21-8.119-2.21-11.38c0,0-102.131,23.994-119.971,39.99C50.214,60.05,4.062,180.028,4.062,180.028L19.573,189.233z"
				/>
		</g>
		<g>
			<path fill="#D7E9FF" d="M108.036,168.027v331.915c0,4.39,3.601,7.998,7.998,7.998h7.998V168.027H108.036z"/>
		</g>
	</g>
	<g>
		<g>
			<path fill="#5C9EFF" d="M492.427,189.233c0,0-46.638-121.186-64.469-137.182c-13.771-12.345-77.692-29.442-106.185-36.608
				c1.499-4.183,2.21-8.119,2.21-11.38c0,0,102.132,23.994,119.971,39.99c17.831,15.996,63.984,135.975,63.984,135.975
				L492.427,189.233z"/>
		</g>
		<g>
			<path fill="#5C9EFF" d="M403.964,168.027v331.915c0,4.39-3.601,7.998-7.998,7.998h-7.998V168.027H403.964z"/>
		</g>
	</g>
	<g>
		<g>
			<path fill="#D7E9FF" d="M343.979,223.982c0,48.594-39.389,87.975-87.979,87.975s-87.979-39.381-87.979-87.975
				c0-48.59,39.389-87.979,87.979-87.979S343.979,175.393,343.979,223.982z"/>
		</g>
		<g>
			<path fill="#5C9EFF" d="M258.874,261.013l-32.148,45.914c-7.842-2.718-15.113-6.482-21.674-11.278l38.951-55.67l14.48,20.792
				L258.874,261.013z"/>
		</g>
		<g>
			<path fill="#94C1FF" d="M295.99,207.986l38.709,55.346c-14.395,28.88-44.224,48.625-78.699,48.625
				c-10.318,0-20.151-1.75-29.274-5.03l32.148-45.914L295.99,207.986z"/>
		</g>
		<g>
			<path fill="#FFFFFF" d="M224.008,175.994c8.795,0,15.996,7.201,15.996,15.996s-7.201,15.996-15.996,15.996
				s-15.996-7.201-15.996-15.996S215.213,175.994,224.008,175.994z"/>
		</g>
	</g>
	<g id="_x31_5._t-shirt_x2C__design_x2C__advertising_x2C__brand_x2C__print">
		<g>
			<path fill="#116FFF" d="M315.985,8.059H196.015c-2.21,0-3.999-1.789-3.999-3.999s1.789-3.999,3.999-3.999h119.971
				c2.21,0,3.999,1.789,3.999,3.999S318.195,8.059,315.985,8.059z"/>
		</g>
		<g>
			<path fill="#116FFF" d="M256,56.047c-52.44,0-71.982-31.887-71.982-51.987c0-2.21,1.789-3.999,3.999-3.999
				s3.999,1.789,3.999,3.999c0,11.411,11.755,43.989,63.984,43.989s63.984-32.578,63.984-43.989c0-2.21,1.789-3.999,3.999-3.999
				s3.999,1.789,3.999,3.999C327.982,24.16,308.44,56.047,256,56.047z"/>
		</g>
		<g>
			<g>
				<path fill="#116FFF" d="M403.964,503.941c-2.21,0-3.999-1.781-3.999-3.999V172.019c0-2.21,1.789-3.999,3.999-3.999
					s3.999,1.789,3.999,3.999v327.924C407.963,502.16,406.174,503.941,403.964,503.941z"/>
			</g>
			<g>
				<path fill="#116FFF" d="M507.938,184.016c-1.609,0-3.124-0.973-3.733-2.562c-12.739-33.121-48.887-121.833-62.922-134.428
					c-13.997-12.563-90.08-32.465-118.214-39.072c-2.147-0.504-3.483-2.66-2.976-4.808c0.5-2.14,2.64-3.468,4.804-2.979
					c4.21,0.988,103.357,24.42,121.728,40.908c18.332,16.449,63.148,132.573,65.047,137.505c0.789,2.062-0.234,4.378-2.297,5.171
					C508.899,183.93,508.415,184.016,507.938,184.016z"/>
			</g>
			<g>
				<path fill="#116FFF" d="M427.958,231.504c-1.359,0-2.694-0.699-3.437-1.957c-1.133-1.898-0.508-4.354,1.398-5.479l79.98-47.488
					c1.89-1.125,4.35-0.512,5.475,1.394c1.133,1.898,0.508,4.354-1.398,5.479l-79.98,47.488
					C429.355,231.324,428.653,231.504,427.958,231.504z"/>
			</g>
			<g>
				<path fill="#116FFF" d="M427.958,231.504c-1.547,0-3.015-0.902-3.671-2.413l-23.994-55.487
					c-0.875-2.027,0.055-4.377,2.085-5.256c2.023-0.875,4.374,0.055,5.257,2.085l23.994,55.487c0.875,2.027-0.055,4.377-2.086,5.256
					C429.028,231.398,428.489,231.504,427.958,231.504z"/>
			</g>
			<g>
				<path fill="#116FFF" d="M395.966,511.939c-2.21,0-3.999-1.781-3.999-3.999c0-2.202,1.789-3.999,3.999-3.999
					c2.202,0,3.999-1.797,3.999-3.999s1.789-3.999,3.999-3.999s3.999,1.797,3.999,3.999
					C407.963,506.565,402.581,511.939,395.966,511.939z"/>
			</g>
		</g>
		<g>
			<g>
				<path fill="#116FFF" d="M108.036,503.941c-2.21,0-3.999-1.781-3.999-3.999V172.019c0-2.21,1.789-3.999,3.999-3.999
					s3.999,1.789,3.999,3.999v327.924C112.035,502.16,110.247,503.941,108.036,503.941z"/>
			</g>
			<g>
				<path fill="#116FFF" d="M4.062,184.016c-0.477,0-0.961-0.086-1.438-0.266c-2.062-0.793-3.085-3.108-2.296-5.171
					c1.898-4.932,46.715-121.056,65.046-137.505C83.745,24.586,182.893,1.154,187.103,0.166c2.164-0.488,4.304,0.84,4.804,2.979
					c0.508,2.148-0.828,4.304-2.976,4.808C160.797,14.561,84.714,34.466,70.717,47.025C56.682,59.62,20.534,148.333,7.795,181.454
					C7.186,183.043,5.67,184.016,4.062,184.016z"/>
			</g>
			<g>
				<path fill="#116FFF" d="M84.042,231.504c-0.695,0-1.398-0.18-2.039-0.562l-79.98-47.488c-1.906-1.125-2.531-3.581-1.398-5.479
					c1.117-1.906,3.577-2.519,5.475-1.394l79.98,47.488c1.906,1.125,2.531,3.581,1.398,5.479
					C86.736,230.805,85.401,231.504,84.042,231.504z"/>
			</g>
			<g>
				<path fill="#116FFF" d="M84.042,231.504c-0.531,0-1.07-0.105-1.586-0.328c-2.03-0.879-2.96-3.229-2.085-5.256l23.994-55.487
					c0.875-2.03,3.233-2.968,5.256-2.085c2.031,0.879,2.96,3.229,2.085,5.256l-23.994,55.487
					C87.057,230.602,85.588,231.504,84.042,231.504z"/>
			</g>
			<g>
				<path fill="#116FFF" d="M116.034,511.939c-6.616,0-11.997-5.374-11.997-11.997c0-2.202,1.789-3.999,3.999-3.999
					s3.999,1.797,3.999,3.999s1.796,3.999,3.999,3.999c2.21,0,3.999,1.797,3.999,3.999
					C120.033,510.158,118.245,511.939,116.034,511.939z"/>
			</g>
		</g>
		<g>
			<path fill="#116FFF" d="M395.966,511.939H116.034c-2.21,0-3.999-1.781-3.999-3.999c0-2.202,1.789-3.999,3.999-3.999h279.932
				c2.21,0,3.999,1.797,3.999,3.999C399.965,510.158,398.176,511.939,395.966,511.939z"/>
		</g>
		<g>
			<path fill="#116FFF" d="M387.968,495.943H124.032c-2.21,0-3.999-1.797-3.999-3.999c0-2.218,1.789-3.999,3.999-3.999h263.936
				c2.21,0,3.999,1.781,3.999,3.999C391.967,494.146,390.178,495.943,387.968,495.943z"/>
		</g>
		<g>
			<g>
				<path fill="#116FFF" d="M256,315.956c-10.591,0-20.894-1.765-30.625-5.265c-8.216-2.858-15.863-6.826-22.682-11.825
					c-24.189-17.042-38.67-45.047-38.67-74.884c0-50.718,41.263-91.978,91.978-91.978c50.714,0,91.978,41.26,91.978,91.978
					c0,14.43-3.265,28.274-9.7,41.143C322.647,296.477,291.116,315.956,256,315.956z M256,140.003
					c-46.309,0-83.979,37.674-83.979,83.979c0,27.235,13.208,52.812,35.335,68.386c6.233,4.562,13.177,8.17,20.683,10.778
					c8.904,3.202,18.292,4.812,27.962,4.812c32.062,0,60.853-17.776,75.122-46.411c5.882-11.75,8.857-24.388,8.857-37.564
					C339.979,177.677,302.309,140.003,256,140.003z"/>
			</g>
			<g>
				<path fill="#116FFF" d="M205.052,299.647c-0.797,0-1.594-0.234-2.297-0.734c-1.804-1.265-2.249-3.749-0.984-5.562l38.959-55.666
					c1.265-1.824,3.749-2.238,5.568-0.984c1.805,1.265,2.25,3.761,0.977,5.569l-38.943,55.674
					C207.551,299.054,206.309,299.647,205.052,299.647z"/>
			</g>
			<g>
				<path fill="#116FFF" d="M258.483,264.766c-1.257,0-2.507-0.594-3.28-1.711l-14.48-20.792c-1.266-1.812-0.82-4.304,0.992-5.565
					c1.82-1.254,4.312-0.824,5.569,0.996l14.48,20.792c1.266,1.812,0.82,4.304-0.991,5.562
					C260.069,264.531,259.272,264.766,258.483,264.766z"/>
			</g>
			<g>
				<path fill="#116FFF" d="M226.726,310.926c-0.796,0-1.593-0.234-2.296-0.734c-1.805-1.265-2.25-3.749-0.977-5.561l69.265-98.937
					c1.265-1.816,3.757-2.238,5.568-0.984c1.805,1.265,2.25,3.761,0.977,5.569l-69.264,98.945
					C229.226,310.332,227.983,310.926,226.726,310.926z"/>
			</g>
			<g>
				<path fill="#116FFF" d="M334.699,267.327c-1.258,0-2.499-0.594-3.28-1.702l-38.709-55.346c-1.266-1.812-0.82-4.304,0.991-5.569
					c1.797-1.254,4.297-0.832,5.569,0.984l38.71,55.346c1.265,1.812,0.819,4.304-0.992,5.568
					C336.293,267.093,335.496,267.327,334.699,267.327z"/>
			</g>
			<g>
				<path fill="#116FFF" d="M224.008,211.985c-11.028,0-19.995-8.971-19.995-19.995s8.967-19.995,19.995-19.995
					s19.995,8.971,19.995,19.995S235.036,211.985,224.008,211.985z M224.008,179.993c-6.616,0-11.997,5.381-11.997,11.997
					c0,6.615,5.381,11.997,11.997,11.997c6.615,0,11.997-5.382,11.997-11.997C236.005,185.375,230.623,179.993,224.008,179.993z"/>
			</g>
		</g>
	</g>
</g>
</svg>
