<?xml version="1.0" encoding="utf-8"?>
<!-- Generator: Adobe Illustrator 16.0.0, SVG Export Plug-In . SVG Version: 6.00 Build 0)  -->
<!DOCTYPE svg PUBLIC "-//W3C//DTD SVG 1.1//EN" "http://www.w3.org/Graphics/SVG/1.1/DTD/svg11.dtd">
<svg version="1.1" id="Layer_1" xmlns="http://www.w3.org/2000/svg" xmlns:xlink="http://www.w3.org/1999/xlink" x="0px" y="0px"
	 width="512px" height="512px" viewBox="0 0 512 512" enable-background="new 0 0 512 512" xml:space="preserve">
<g id="_x32_0._book_x2C__design_x2C__advertising_x2C__brand_x2C__print">
	<g>
		<path fill="#FFFFFF" d="M84.042,467.948c-13.278,0-23.994-10.716-23.994-23.994s10.716-23.994,23.994-23.994h15.996h343.916
			l7.998,7.998v31.992c0,4.397-3.601,7.998-7.998,7.998H84.042z"/>
	</g>
	<g>
		<polygon fill="#94C1FF" points="148.026,507.938 125.368,499.94 100.038,507.938 100.038,451.952 148.026,451.952 		"/>
	</g>
	<g>
		<rect x="148.026" y="52.05" fill="#FFFFFF" width="255.938" height="31.992"/>
	</g>
	<g>
		<path fill="#94C1FF" d="M451.952,12.06v399.902c0,4.397-3.601,7.998-7.998,7.998H100.038v-7.998V12.06V4.062h343.916
			C448.352,4.062,451.952,7.662,451.952,12.06z M403.964,84.042V52.05H148.026v31.992H403.964z M354.694,259.358
			c5.921-11.833,9.279-25.197,9.279-39.35c0-48.629-39.35-87.979-87.979-87.979s-87.979,39.35-87.979,87.979
			c0,29.594,14.559,55.83,37.03,71.662c6.561,4.796,13.84,8.561,21.674,11.278c9.123,3.281,18.957,5.038,29.274,5.038
			C310.463,307.987,340.3,288.234,354.694,259.358z"/>
	</g>
	<g>
		<g>
			<path fill="#5C9EFF" d="M443.954,4.062h-15.996c4.397,0,7.998,3.601,7.998,7.998v399.902c0,4.397-3.601,7.998-7.998,7.998h15.996
				c4.397,0,7.998-3.601,7.998-7.998V12.06C451.952,7.662,448.352,4.062,443.954,4.062z"/>
		</g>
	</g>
	<g>
		<path fill="#5C9EFF" d="M84.042,419.96c-13.278,0-23.994,10.716-23.994,23.994V28.056c0-13.278,10.716-23.994,23.994-23.994
			h15.996v7.998v399.902v7.998H84.042z"/>
	</g>
	<g>
		<path fill="#94C1FF" d="M76.044,28.056c0-13.278,10.716-23.994,23.994-23.994H84.042c-13.278,0-23.994,10.716-23.994,23.994
			v415.898c0-10.458,6.686-19.237,15.996-22.534V28.056z"/>
	</g>
	<g>
		<g>
			<circle fill="#D7E9FF" cx="275.987" cy="219.993" r="87.979"/>
		</g>
		<g>
			<path fill="#656D78" d="M278.861,257.023l-32.148,45.91c-7.842-2.718-15.113-6.482-21.674-11.278l38.951-55.666l14.48,20.792
				L278.861,257.023z"/>
		</g>
		<g>
			<path fill="#5C9EFF" d="M278.861,257.023l-32.148,45.91c-7.842-2.718-15.113-6.482-21.674-11.278l38.951-55.666l14.48,20.792
				L278.861,257.023z"/>
		</g>
		<g>
			<path fill="#94C1FF" d="M315.978,203.997l38.709,55.346c-14.395,28.876-44.224,48.629-78.699,48.629
				c-10.317,0-20.151-1.757-29.274-5.038l32.148-45.91L315.978,203.997z"/>
		</g>
		<g>
			<path fill="#FFFFFF" d="M243.995,172.005c8.795,0,15.996,7.201,15.996,15.996s-7.201,15.996-15.996,15.996
				s-15.996-7.201-15.996-15.996S235.2,172.005,243.995,172.005z"/>
		</g>
	</g>
	<g id="_x32_0._book_x2C__design_x2C__advertising_x2C__brand_x2C__print_1_">
		<g>
			<g>
				<path fill="#116FFF" d="M443.954,423.959H84.042c-2.21,0-3.999-1.789-3.999-3.999s1.789-3.999,3.999-3.999h359.912
					c2.21,0,3.999,1.789,3.999,3.999S446.164,423.959,443.954,423.959z"/>
			</g>
			<g>
				<path fill="#116FFF" d="M443.954,8.061H84.042c-2.21,0-3.999-1.789-3.999-3.999s1.789-3.999,3.999-3.999h359.912
					c2.21,0,3.999,1.789,3.999,3.999S446.164,8.061,443.954,8.061z"/>
			</g>
			<g>
				<path fill="#116FFF" d="M84.042,471.947c-15.434,0-27.993-12.56-27.993-27.993s12.56-27.993,27.993-27.993
					c2.21,0,3.999,1.789,3.999,3.999s-1.789,3.999-3.999,3.999c-11.028,0-19.995,8.967-19.995,19.995s8.967,19.995,19.995,19.995
					c2.21,0,3.999,1.789,3.999,3.999S86.252,471.947,84.042,471.947z"/>
			</g>
			<g>
				<path fill="#116FFF" d="M84.042,455.951c-6.616,0-11.997-5.382-11.997-11.997c0-6.616,5.381-11.997,11.997-11.997
					c2.21,0,3.999,1.789,3.999,3.999s-1.789,3.999-3.999,3.999c-2.203,0-3.999,1.797-3.999,3.999s1.796,3.999,3.999,3.999
					c2.21,0,3.999,1.789,3.999,3.999S86.252,455.951,84.042,455.951z"/>
			</g>
			<g>
				<path fill="#116FFF" d="M60.048,32.055c-2.21,0-3.999-1.789-3.999-3.999c0-15.434,12.56-27.993,27.993-27.993
					c2.21,0,3.999,1.789,3.999,3.999s-1.789,3.999-3.999,3.999c-11.028,0-19.995,8.967-19.995,19.995
					C64.047,30.266,62.258,32.055,60.048,32.055z"/>
			</g>
			<g>
				<path fill="#116FFF" d="M60.048,447.953c-2.21,0-3.999-1.789-3.999-3.999V28.056c0-2.21,1.789-3.999,3.999-3.999
					s3.999,1.789,3.999,3.999v415.898C64.047,446.164,62.258,447.953,60.048,447.953z"/>
			</g>
			<g>
				<path fill="#116FFF" d="M451.952,16.059c-2.21,0-3.999-1.789-3.999-3.999c0-2.203-1.797-3.999-3.999-3.999
					c-2.21,0-3.999-1.789-3.999-3.999s1.789-3.999,3.999-3.999c6.615,0,11.997,5.381,11.997,11.997
					C455.951,14.27,454.162,16.059,451.952,16.059z"/>
			</g>
			<g>
				<path fill="#116FFF" d="M443.954,423.959c-2.21,0-3.999-1.789-3.999-3.999s1.789-3.999,3.999-3.999
					c2.202,0,3.999-1.797,3.999-3.999c0-2.21,1.789-3.999,3.999-3.999s3.999,1.789,3.999,3.999
					C455.951,418.577,450.569,423.959,443.954,423.959z"/>
			</g>
			<g>
				<path fill="#116FFF" d="M443.954,471.947H164.022c-2.21,0-3.999-1.789-3.999-3.999s1.789-3.999,3.999-3.999h279.932
					c2.21,0,3.999,1.789,3.999,3.999S446.164,471.947,443.954,471.947z"/>
			</g>
			<g>
				<path fill="#116FFF" d="M443.954,471.947c-2.21,0-3.999-1.789-3.999-3.999s1.789-3.999,3.999-3.999
					c2.202,0,3.999-1.797,3.999-3.999c0-2.21,1.789-3.999,3.999-3.999s3.999,1.789,3.999,3.999
					C455.951,466.565,450.569,471.947,443.954,471.947z"/>
			</g>
			<g>
				<path fill="#116FFF" d="M451.952,415.961c-2.21,0-3.999-1.789-3.999-3.999V12.06c0-2.21,1.789-3.999,3.999-3.999
					s3.999,1.789,3.999,3.999v399.902C455.951,414.172,454.162,415.961,451.952,415.961z"/>
			</g>
			<g>
				<path fill="#116FFF" d="M451.952,463.949c-2.21,0-3.999-1.789-3.999-3.999v-31.992c0-2.21,1.789-3.999,3.999-3.999
					s3.999,1.789,3.999,3.999v31.992C455.951,462.16,454.162,463.949,451.952,463.949z"/>
			</g>
			<g>
				<path fill="#116FFF" d="M100.038,415.961c-2.21,0-3.999-1.789-3.999-3.999V12.06c0-2.21,1.789-3.999,3.999-3.999
					s3.999,1.789,3.999,3.999v399.902C104.037,414.172,102.249,415.961,100.038,415.961z"/>
			</g>
			<g>
				<path fill="#116FFF" d="M435.956,455.951H164.022c-2.21,0-3.999-1.789-3.999-3.999s1.789-3.999,3.999-3.999h271.934
					c2.21,0,3.999,1.789,3.999,3.999S438.166,455.951,435.956,455.951z"/>
			</g>
			<g>
				<path fill="#116FFF" d="M435.956,439.955H84.042c-2.21,0-3.999-1.789-3.999-3.999s1.789-3.999,3.999-3.999h351.914
					c2.21,0,3.999,1.789,3.999,3.999S438.166,439.955,435.956,439.955z"/>
			</g>
			<g>
				<path fill="#116FFF" d="M403.964,88.041H148.026c-2.21,0-3.999-1.789-3.999-3.999V52.05c0-2.21,1.789-3.999,3.999-3.999h255.938
					c2.21,0,3.999,1.789,3.999,3.999v31.992C407.963,86.252,406.174,88.041,403.964,88.041z M152.025,80.043h247.939V56.049H152.025
					V80.043z"/>
			</g>
			<g>
				<path fill="#116FFF" d="M363.974,72.045H188.017c-2.21,0-3.999-1.789-3.999-3.999s1.789-3.999,3.999-3.999h175.957
					c2.21,0,3.999,1.789,3.999,3.999S366.184,72.045,363.974,72.045z"/>
			</g>
			<g>
				<path fill="#116FFF" d="M363.974,359.975H188.017c-2.21,0-3.999-1.789-3.999-3.999s1.789-3.999,3.999-3.999h175.957
					c2.21,0,3.999,1.789,3.999,3.999S366.184,359.975,363.974,359.975z"/>
			</g>
			<g>
				<path fill="#116FFF" d="M315.985,375.971h-79.98c-2.21,0-3.999-1.789-3.999-3.999s1.789-3.999,3.999-3.999h79.98
					c2.21,0,3.999,1.789,3.999,3.999S318.195,375.971,315.985,375.971z"/>
			</g>
			<g>
				<path fill="#116FFF" d="M100.038,511.938c-2.21,0-3.999-1.789-3.999-3.999v-55.986c0-2.21,1.789-3.999,3.999-3.999
					s3.999,1.789,3.999,3.999v55.986C104.037,510.148,102.249,511.938,100.038,511.938z"/>
			</g>
			<g>
				<path fill="#116FFF" d="M148.026,511.938c-2.21,0-3.999-1.789-3.999-3.999v-55.986c0-2.21,1.789-3.999,3.999-3.999
					s3.999,1.789,3.999,3.999v55.986C152.025,510.148,150.237,511.938,148.026,511.938z"/>
			</g>
			<g>
				<path fill="#116FFF" d="M100.038,511.938c-1.672,0-3.233-1.062-3.796-2.733c-0.695-2.094,0.438-4.358,2.53-5.062l23.994-7.998
					c2.094-0.688,4.358,0.438,5.062,2.53c0.695,2.094-0.438,4.358-2.531,5.062l-23.994,7.998
					C100.882,511.875,100.46,511.938,100.038,511.938z"/>
			</g>
			<g>
				<path fill="#116FFF" d="M148.026,511.938c-0.422,0-0.844-0.062-1.266-0.203l-23.994-7.998c-2.093-0.703-3.226-2.968-2.53-5.062
					c0.711-2.093,2.976-3.21,5.061-2.53l23.994,7.998c2.093,0.703,3.226,2.968,2.531,5.062
					C151.26,510.875,149.698,511.938,148.026,511.938z"/>
			</g>
			<g>
				<path fill="#116FFF" d="M124.032,487.943c-2.21,0-3.999-1.789-3.999-3.999v-30.992c0-2.211,1.789-3.999,3.999-3.999
					s3.999,1.788,3.999,3.999v30.992C128.031,486.154,126.243,487.943,124.032,487.943z"/>
			</g>
		</g>
		<g>
			<g>
				<path fill="#116FFF" d="M275.995,311.971c-10.599,0-20.901-1.773-30.625-5.272c-8.224-2.851-15.871-6.834-22.69-11.817
					c-24.189-17.035-38.662-45.051-38.662-74.888c0-50.714,41.264-91.978,91.978-91.978s91.978,41.264,91.978,91.978
					c0,14.434-3.265,28.274-9.701,41.139C342.627,292.491,311.104,311.971,275.995,311.971z M275.995,136.014
					c-46.309,0-83.979,37.67-83.979,83.979c0,27.243,13.208,52.808,35.327,68.39c6.233,4.562,13.177,8.17,20.69,10.771
					c8.896,3.202,18.284,4.819,27.962,4.819c32.055,0,60.845-17.785,75.122-46.418c5.882-11.748,8.857-24.385,8.857-37.562
					C359.975,173.684,322.304,136.014,275.995,136.014z"/>
			</g>
			<g>
				<path fill="#116FFF" d="M225.039,295.654c-0.797,0-1.594-0.234-2.297-0.727c-1.804-1.266-2.249-3.757-0.976-5.568l38.959-55.667
					c1.265-1.812,3.757-2.25,5.568-0.976c1.805,1.265,2.25,3.757,0.977,5.568l-38.959,55.666
					C227.538,295.061,226.296,295.654,225.039,295.654z"/>
			</g>
			<g>
				<path fill="#116FFF" d="M278.471,260.78c-1.257,0-2.507-0.602-3.28-1.711l-14.473-20.792c-1.266-1.82-0.82-4.312,0.991-5.569
					c1.82-1.258,4.312-0.812,5.569,0.992l14.474,20.792c1.265,1.82,0.819,4.312-0.992,5.569
					C280.057,260.546,279.26,260.78,278.471,260.78z"/>
			</g>
			<g>
				<path fill="#116FFF" d="M246.721,306.933c-0.796,0-1.593-0.234-2.296-0.726c-1.805-1.266-2.25-3.758-0.977-5.569l69.265-98.937
					c1.266-1.812,3.757-2.25,5.568-0.976c1.805,1.265,2.25,3.757,0.977,5.568l-69.264,98.938
					C249.221,306.339,247.979,306.933,246.721,306.933z"/>
			</g>
			<g>
				<path fill="#116FFF" d="M354.694,263.342c-1.257,0-2.499-0.594-3.28-1.711l-38.709-55.346c-1.266-1.804-0.82-4.295,0.992-5.568
					c1.796-1.242,4.287-0.836,5.568,0.992l38.709,55.346c1.266,1.804,0.82,4.295-0.991,5.568
					C356.288,263.107,355.491,263.342,354.694,263.342z"/>
			</g>
			<g>
				<path fill="#116FFF" d="M244.003,207.996c-11.028,0-19.995-8.967-19.995-19.995s8.967-19.995,19.995-19.995
					s19.995,8.967,19.995,19.995S255.031,207.996,244.003,207.996z M244.003,176.004c-6.616,0-11.997,5.381-11.997,11.997
					c0,6.615,5.381,11.997,11.997,11.997c6.615,0,11.997-5.382,11.997-11.997C256,181.385,250.618,176.004,244.003,176.004z"/>
			</g>
		</g>
	</g>
</g>
</svg>
