<?xml version="1.0" encoding="utf-8"?>
<!-- Generator: Adobe Illustrator 16.0.0, SVG Export Plug-In . SVG Version: 6.00 Build 0)  -->
<!DOCTYPE svg PUBLIC "-//W3C//DTD SVG 1.1//EN" "http://www.w3.org/Graphics/SVG/1.1/DTD/svg11.dtd">
<svg version="1.1" id="Layer_1" xmlns="http://www.w3.org/2000/svg" xmlns:xlink="http://www.w3.org/1999/xlink" x="0px" y="0px"
	 width="512px" height="512px" viewBox="0 0 512 512" enable-background="new 0 0 512 512" xml:space="preserve">
<g id="_x31_2_deadline_x2C__time_x2C__clock_x2C__fire_x2C__business_x2C__work_x2C__office">
	<g>
		<g>
			<path fill="#94C1FF" d="M360.57,424.523v-0.078c9.431-9.353,17.191-19.588,23.499-30.541
				c6.558-11.273,11.516-23.344,14.795-35.734c3.356-12.476,5.035-25.342,5.035-38.216s-1.679-25.74-5.035-38.294
				c-3.279-12.391-8.237-24.382-14.795-35.733c-6.308-10.954-14.146-21.189-23.499-30.542c-9.354-9.353-19.667-17.27-30.62-23.582
				c-11.274-6.558-23.344-11.434-35.655-14.712c-12.547-3.357-25.429-5.036-38.295-5.036c-12.87,0-25.744,1.679-38.294,5.036
				c-12.312,3.279-24.382,8.154-35.655,14.791c-10.954,6.316-21.267,14.151-30.62,23.503c-9.353,9.353-17.188,19.667-23.503,30.62
				c-6.554,11.273-11.511,23.343-14.791,35.655c-3.357,12.468-5.036,25.342-5.036,38.216c0,12.866,1.678,25.74,5.036,38.294
				c6.398,24.305,19.186,47.328,38.294,66.354c9.354,9.354,19.667,17.191,30.62,23.5c11.273,6.558,23.343,11.516,35.655,14.795
				c12.55,3.356,25.424,5.035,38.294,5.035c12.866,0,25.748-1.679,38.295-5.035c12.312-3.279,24.381-8.237,35.655-14.795
				C340.903,441.715,351.217,433.877,360.57,424.523z M339.943,84.115c0,0,103.929,102.969,103.929,235.839
				c0,103.852-84.021,187.872-187.872,187.872c-103.851,0-187.872-84.021-187.872-187.872c0-206.18,199.864-315.785,199.864-315.785
				s-19.826,60.119,7.916,87.94C303.733,119.853,339.943,84.115,339.943,84.115z"/>
		</g>
	</g>
	<g>
		<g>
			<g>
				<path fill="#5C9EFF" d="M339.943,84.115c0,0-3.482,3.431-9.104,7.338c23.188,25.736,97.043,116.491,97.043,228.5
					c0,101.174-79.742,183.484-179.877,187.669c2.654,0.109,5.312,0.203,7.994,0.203c103.852,0,187.872-84.021,187.872-187.872
					C443.872,187.084,339.943,84.115,339.943,84.115z"/>
			</g>
		</g>
	</g>
	<g>
		<g>
			<g>
				<path fill="#D7E9FF" d="M84.117,319.954c0-166.808,130.79-270.374,180.752-303.855c1.608-7.237,3.123-11.929,3.123-11.929
					S68.128,113.774,68.128,319.954c0,103.852,84.021,187.872,187.872,187.872c2.682,0,5.34-0.094,7.995-0.203
					C163.864,503.438,84.117,421.128,84.117,319.954z"/>
			</g>
		</g>
	</g>
	<g>
		<g>
			<path fill="#D7E9FF" d="M228.02,92.988c0,0-53.995,21.774-70.53,116.67l135.244-33.606
				C225.111,151.323,228.02,92.988,228.02,92.988z"/>
		</g>
	</g>
	<g>
		<g>
			<path fill="#94C1FF" d="M264.479,311.483c4.716,4.63,4.716,12.226,0,16.941c-2.322,2.319-5.359,3.521-8.479,3.521
				c-3.037,0-6.074-1.202-8.475-3.521c-4.715-4.716-4.715-12.312,0-16.941C252.241,306.76,259.838,306.76,264.479,311.483z"/>
		</g>
	</g>
	<g>
		<g>
			<path fill="#FFFFFF" d="M264.479,311.483c-4.641-4.724-12.237-4.724-16.953,0c-4.715,4.63-4.715,12.226,0,16.941
				c2.401,2.319,5.438,3.521,8.475,3.521c3.119,0,6.156-1.202,8.479-3.521C269.194,323.709,269.194,316.113,264.479,311.483z
				 M349.296,226.658c51.48,51.566,51.48,135.025,0,186.592c-51.48,51.488-135.029,51.488-186.592-0.078
				c-51.484-51.488-51.484-135.033,0-186.514C214.267,175.174,297.737,175.174,349.296,226.658z"/>
		</g>
	</g>
	<g>
		<g>
			<path fill="#5C9EFF" d="M384.069,245.927c6.558,11.352,11.516,23.343,14.795,35.733c3.356,12.554,5.035,25.42,5.035,38.294
				s-1.679,25.74-5.035,38.216c-3.279,12.391-8.237,24.461-14.795,35.734c-6.308,10.953-14.068,21.188-23.499,30.541v0.078
				c-9.354,9.354-19.667,17.191-30.62,23.5c-11.274,6.558-23.344,11.516-35.655,14.795c-12.547,3.356-25.429,5.035-38.295,5.035
				c-12.87,0-25.744-1.679-38.294-5.035c-12.312-3.279-24.382-8.237-35.655-14.795c-10.954-6.309-21.267-14.146-30.62-23.5
				c-19.108-19.025-31.896-42.049-38.294-66.354c-3.357-12.554-5.036-25.428-5.036-38.294c0-12.874,1.678-25.748,5.036-38.216
				c3.279-12.312,8.236-24.382,14.791-35.655c6.316-10.954,14.151-21.267,23.503-30.62c9.354-9.353,19.667-17.188,30.62-23.503
				c11.273-6.636,23.343-11.512,35.655-14.791c12.55-3.357,25.424-5.036,38.294-5.036c12.866,0,25.748,1.679,38.295,5.036
				c12.312,3.279,24.381,8.154,35.655,14.712c10.953,6.312,21.267,14.229,30.62,23.582
				C369.923,224.738,377.762,234.973,384.069,245.927z M349.296,413.25c51.48-51.566,51.48-135.025,0-186.592
				c-51.559-51.484-135.029-51.484-186.592,0c-51.484,51.48-51.484,135.025,0,186.514
				C214.267,464.738,297.815,464.738,349.296,413.25z"/>
		</g>
	</g>
	<g>
		<g>
			<g>
				<g>
					<path fill="#116FFF" d="M256,511.824c-2.209,0-3.997-1.788-3.997-3.998c0-2.209,1.788-3.997,3.997-3.997
						c101.385,0,183.875-82.483,183.875-183.875c0-2.209,1.788-3.997,3.997-3.997c2.21,0,3.997,1.788,3.997,3.997
						C447.869,425.75,361.795,511.824,256,511.824z"/>
				</g>
			</g>
			<g>
				<g>
					<path fill="#116FFF" d="M256,511.824c-105.795,0-191.869-86.074-191.869-191.87c0-2.209,1.788-3.997,3.997-3.997
						c2.21,0,3.998,1.788,3.998,3.997c0,101.392,82.487,183.875,183.875,183.875c2.21,0,3.998,1.788,3.998,3.997
						C259.998,510.036,258.21,511.824,256,511.824z"/>
				</g>
			</g>
			<g>
				<g>
					<path fill="#116FFF" d="M443.872,323.951c-2.209,0-3.997-1.787-3.997-3.997c0-117.764-83.981-213.046-100.096-230.241
						c-14.803,12.913-44.103,27.75-66.697,5.227c-22.445-22.512-16.09-63.418-11.598-82.198
						C223.722,36.464,72.125,142.778,72.125,319.954c0,2.21-1.788,3.997-3.998,3.997c-2.209,0-3.997-1.787-3.997-3.997
						c0-206.16,199.919-318.182,201.94-319.29c1.437-0.781,3.217-0.617,4.474,0.433c1.265,1.046,1.757,2.764,1.241,4.321
						c-0.187,0.578-18.718,58.125,6.948,83.869c24.733,24.663,57.04-6.671,58.398-8.018c1.562-1.542,4.067-1.534,5.621,0.008
						c1.054,1.038,105.115,105.678,105.115,238.677C447.869,322.164,446.082,323.951,443.872,323.951z"/>
				</g>
			</g>
			<g>
				<g>
					<path fill="#116FFF" d="M164.063,192.042c-0.382,0-0.773-0.055-1.156-0.172c-2.115-0.636-3.31-2.869-2.67-4.981
						c20.162-66.705,63.695-96.836,65.538-98.085c1.124-0.765,2.584-0.91,3.833-0.359c1.257,0.542,2.146,1.694,2.361,3.044
						c0.062,0.398,6.582,40.207,30.683,61.587c1.654,1.464,1.795,3.994,0.336,5.645c-1.473,1.647-3.998,1.792-5.645,0.335
						c-20.377-18.078-28.997-46.96-31.967-59.831c-11.816,9.856-42.085,39.021-57.488,89.974
						C167.365,190.929,165.78,192.042,164.063,192.042z"/>
				</g>
			</g>
			<g>
				<g>
					<path fill="#116FFF" d="M256,471.851c-13.268,0-26.497-1.741-39.328-5.168c-12.851-3.428-25.175-8.541-36.632-15.2
						c-11.43-6.59-22.012-14.709-31.436-24.133c-18.963-18.877-32.563-42.455-39.333-68.164c-3.427-12.812-5.168-26.045-5.168-39.31
						c0-13.296,1.741-26.505,5.172-39.254c3.419-12.843,8.534-25.167,15.197-36.628c6.597-11.441,14.721-22.024,24.132-31.436
						c9.412-9.411,19.994-17.535,31.447-24.14c11.184-6.582,23.516-11.699,36.624-15.193c25.654-6.855,52.987-6.859,78.657,0.004
						c13.022,3.466,25.342,8.557,36.631,15.119c11.306,6.519,21.892,14.666,31.433,24.21c9.478,9.482,17.604,20.037,24.139,31.369
						c6.715,11.625,11.82,23.977,15.193,36.71c3.428,12.819,5.168,26.052,5.168,39.316c0,13.288-1.74,26.498-5.168,39.255
						c-3.404,12.866-8.525,25.217-15.201,36.701c-6.534,11.328-14.505,21.735-23.702,30.94c-0.133,0.171-0.273,0.343-0.429,0.499
						c-9.424,9.424-20.002,17.543-31.448,24.141c-11.445,6.651-23.765,11.765-36.623,15.192
						C282.498,470.109,269.272,471.851,256,471.851z M256,176.052c-12.569,0-25.107,1.647-37.26,4.899
						c-12.413,3.307-24.073,8.143-34.664,14.373c-10.879,6.277-20.904,13.971-29.82,22.887c-8.916,8.916-16.609,18.94-22.867,29.792
						c-6.312,10.856-11.152,22.524-14.389,34.687c-3.255,12.078-4.902,24.585-4.902,37.186c0,12.569,1.647,25.101,4.898,37.264
						c6.41,24.351,19.292,46.664,37.256,64.55c8.936,8.939,18.956,16.63,29.792,22.867c10.856,6.316,22.52,11.156,34.691,14.396
						c24.312,6.512,50.224,6.512,74.52,0c12.18-3.24,23.844-8.08,34.68-14.389c10.681-6.145,20.564-13.693,29.379-22.445
						c0.133-0.18,0.273-0.352,0.444-0.516c8.877-8.807,16.567-18.791,22.853-29.698c6.323-10.875,11.164-22.57,14.389-34.758
						c3.255-12.093,4.902-24.601,4.902-37.193c0-12.569-1.647-25.1-4.902-37.264c-3.186-12.062-8.026-23.753-14.389-34.765
						c-6.191-10.731-13.882-20.724-22.868-29.714c-9.048-9.048-19.072-16.77-29.792-22.945
						c-10.68-6.214-22.344-11.027-34.688-14.311C281.108,177.7,268.57,176.052,256,176.052z"/>
				</g>
			</g>
			<g>
				<g>
					<path fill="#116FFF" d="M256.066,455.854c-36.327,0-70.491-14.154-96.188-39.855c-25.654-25.654-39.785-59.779-39.785-96.083
						c0-36.312,14.131-70.429,39.785-96.083c25.694-25.654,59.831-39.785,96.122-39.785c36.288,0,70.429,14.131,96.122,39.781
						c52.917,53.007,52.917,139.245,0,192.248C326.476,441.73,292.366,455.854,256.066,455.854z M256,192.042
						c-34.156,0-66.287,13.299-90.469,37.447c-24.144,24.14-37.443,56.255-37.443,90.427c0,34.165,13.299,66.283,37.443,90.431
						c24.19,24.194,56.344,37.514,90.536,37.514c34.16,0,66.264-13.296,90.403-37.436c49.81-49.888,49.81-131.051,0-180.939
						C322.283,205.341,290.156,192.042,256,192.042z"/>
				</g>
			</g>
			<g>
				<g>
					<path fill="#116FFF" d="M256,335.943c-4.157,0-8.15-1.647-11.25-4.646c-3.107-3.099-4.778-7.151-4.758-11.453
						c0.02-4.255,1.702-8.236,4.735-11.211c6.016-6.035,16.605-6.051,22.602,0.047c2.975,2.928,4.661,6.909,4.677,11.164
						c0.023,4.302-1.647,8.354-4.7,11.406C264.275,334.28,260.263,335.943,256,335.943z M256.027,311.937
						c-2.131,0-4.149,0.843-5.672,2.373c-1.53,1.499-2.357,3.467-2.369,5.574c-0.012,2.147,0.831,4.177,2.365,5.715
						c3.143,3.029,8.303,2.982,11.297,0c1.534-1.538,2.378-3.567,2.362-5.715c-0.008-2.107-0.836-4.075-2.335-5.551
						C260.139,312.771,258.151,311.937,256.027,311.937z"/>
				</g>
			</g>
			<g>
				<g>
					<path fill="#116FFF" d="M264.479,315.48c-1.026,0-2.049-0.391-2.83-1.171c-1.561-1.562-1.561-4.091,0-5.652l56.521-56.524
						c1.562-1.562,4.091-1.562,5.652,0s1.562,4.091,0,5.652l-56.517,56.524C266.524,315.09,265.494,315.48,264.479,315.48z"/>
				</g>
			</g>
			<g>
				<g>
					<path fill="#116FFF" d="M256,386.151c-2.209,0-3.997-1.788-3.997-3.997v-50.208c0-2.21,1.788-3.997,3.997-3.997
						c2.21,0,3.998,1.787,3.998,3.997v50.208C259.998,384.363,258.21,386.151,256,386.151z"/>
				</g>
			</g>
			<g>
				<g>
					<path fill="#116FFF" d="M357.774,222.181c-1.03,0-2.045-0.39-2.826-1.171c-1.562-1.562-1.562-4.091,0-5.652l2.795-2.799
						c1.562-1.562,4.091-1.562,5.653,0c1.561,1.562,1.561,4.091,0,5.652l-2.795,2.799
						C359.82,221.791,358.79,222.181,357.774,222.181z"/>
				</g>
			</g>
			<g>
				<g>
					<path fill="#116FFF" d="M151.431,428.521c-1.022,0-2.049-0.391-2.83-1.172c-1.558-1.561-1.558-4.091,0.004-5.652l2.799-2.795
						c1.562-1.562,4.095-1.562,5.656,0c1.558,1.562,1.558,4.091-0.004,5.652l-2.799,2.795
						C153.477,428.131,152.454,428.521,151.431,428.521z"/>
				</g>
			</g>
			<g>
				<g>
					<path fill="#116FFF" d="M327.951,199.317c-0.672,0-1.351-0.167-1.975-0.522c-1.921-1.089-2.593-3.529-1.5-5.45l1.999-3.517
						c1.085-1.917,3.521-2.596,5.449-1.499c1.921,1.089,2.593,3.529,1.499,5.449l-1.998,3.518
						C330.691,198.592,329.341,199.317,327.951,199.317z"/>
				</g>
			</g>
			<g>
				<g>
					<path fill="#116FFF" d="M182.047,452.021c-0.684,0-1.374-0.172-2.007-0.538c-1.909-1.117-2.553-3.561-1.444-5.466l1.999-3.435
						c1.108-1.921,3.556-2.561,5.465-1.452c1.909,1.116,2.553,3.56,1.444,5.465l-1.999,3.435
						C184.764,451.311,183.425,452.021,182.047,452.021z"/>
				</g>
			</g>
			<g>
				<g>
					<path fill="#116FFF" d="M293.256,184.925c-0.344,0-0.694-0.042-1.046-0.14c-2.124-0.574-3.388-2.771-2.811-4.899l1.038-3.837
						c0.57-2.135,2.771-3.419,4.896-2.814c2.14,0.574,3.396,2.771,2.818,4.899l-1.038,3.837
						C296.629,183.754,295.021,184.925,293.256,184.925z"/>
				</g>
			</g>
			<g>
				<g>
					<path fill="#116FFF" d="M217.71,466.815c-0.348,0-0.699-0.047-1.046-0.141c-2.132-0.578-3.393-2.771-2.818-4.903l1.038-3.841
						c0.578-2.132,2.775-3.381,4.903-2.811c2.131,0.577,3.392,2.771,2.818,4.903l-1.039,3.841
						C221.083,465.645,219.471,466.815,217.71,466.815z"/>
				</g>
			</g>
			<g>
				<g>
					<path fill="#116FFF" d="M256,180.05c-2.209,0-3.997-1.788-3.997-3.998v-3.998c0-2.209,1.788-3.997,3.997-3.997
						c2.21,0,3.998,1.788,3.998,3.997v3.998C259.998,178.262,258.21,180.05,256,180.05z"/>
				</g>
			</g>
			<g>
				<g>
					<path fill="#116FFF" d="M256,471.851c-2.209,0-3.997-1.788-3.997-3.997v-3.997c0-2.21,1.788-3.997,3.997-3.997
						c2.21,0,3.998,1.787,3.998,3.997v3.997C259.998,470.062,258.21,471.851,256,471.851z"/>
				</g>
			</g>
			<g>
				<g>
					<path fill="#116FFF" d="M218.74,184.925c-1.76,0-3.372-1.171-3.853-2.955l-1.038-3.837c-0.578-2.127,0.683-4.325,2.814-4.899
						c2.104-0.589,4.325,0.679,4.898,2.814l1.039,3.837c0.578,2.127-0.683,4.325-2.814,4.899
						C219.439,184.882,219.088,184.925,218.74,184.925z"/>
				</g>
			</g>
			<g>
				<g>
					<path fill="#116FFF" d="M294.287,466.815c-1.757,0-3.373-1.171-3.857-2.951l-1.03-3.841c-0.577-2.132,0.687-4.326,2.811-4.903
						c2.108-0.555,4.325,0.679,4.903,2.811l1.046,3.841c0.569,2.132-0.687,4.325-2.826,4.903
						C294.989,466.769,294.638,466.815,294.287,466.815z"/>
				</g>
			</g>
			<g>
				<g>
					<path fill="#116FFF" d="M184.053,199.317c-1.378,0-2.717-0.71-3.458-1.986l-1.999-3.439c-1.112-1.909-0.46-4.356,1.444-5.465
						c1.905-1.112,4.356-0.469,5.465,1.444l1.999,3.439c1.112,1.909,0.461,4.356-1.444,5.465
						C185.427,199.142,184.736,199.317,184.053,199.317z"/>
				</g>
			</g>
			<g>
				<g>
					<path fill="#116FFF" d="M329.95,452.021c-1.374,0-2.717-0.71-3.451-1.991l-1.999-3.435c-1.108-1.905-0.468-4.349,1.438-5.465
						c1.904-1.116,4.355-0.469,5.465,1.452l1.998,3.435c1.109,1.905,0.469,4.349-1.437,5.466
						C331.324,451.849,330.637,452.021,329.95,452.021z"/>
				</g>
			</g>
			<g>
				<g>
					<path fill="#116FFF" d="M154.229,222.181c-1.022,0-2.045-0.39-2.826-1.171l-2.799-2.799c-1.562-1.562-1.562-4.091,0-5.652
						s4.091-1.562,5.652,0l2.799,2.799c1.562,1.562,1.562,4.091,0,5.652C156.275,221.791,155.252,222.181,154.229,222.181z"/>
				</g>
			</g>
			<g>
				<g>
					<path fill="#116FFF" d="M360.647,428.521h-0.077c-1.328,0-2.499-0.641-3.225-1.632l-2.358-2.296
						c-1.585-1.538-1.624-4.067-0.086-5.652c1.546-1.577,4.067-1.624,5.653-0.078l2.795,2.717c0.397,0.375,0.702,0.828,0.905,1.328
						c0.227,0.491,0.351,1.038,0.351,1.615C364.605,426.733,362.857,428.521,360.647,428.521z"/>
				</g>
			</g>
			<g>
				<g>
					<path fill="#116FFF" d="M131.362,252c-0.683,0-1.374-0.175-2.006-0.542l-3.439-1.999c-1.905-1.108-2.557-3.556-1.444-5.465
						c1.108-1.909,3.56-2.557,5.465-1.444l3.439,1.999c1.905,1.108,2.557,3.556,1.444,5.465C134.079,251.29,132.74,252,131.362,252z
						"/>
				</g>
			</g>
			<g>
				<g>
					<path fill="#116FFF" d="M384.147,397.901h-0.078c-0.702,0-1.39-0.188-2.007-0.539l-3.442-1.998
						c-1.905-1.108-2.554-3.561-1.437-5.466c1.108-1.912,3.544-2.561,5.465-1.451l3.264,1.904c1.296,0.664,2.201,2.007,2.201,3.553
						C388.113,396.113,386.365,397.901,384.147,397.901z"/>
				</g>
			</g>
			<g>
				<g>
					<path fill="#116FFF" d="M117.06,286.695c-0.339,0-0.683-0.039-1.026-0.133l-3.919-1.038c-2.136-0.562-3.408-2.756-2.842-4.887
						c0.566-2.14,2.772-3.412,4.887-2.843l3.919,1.039c2.135,0.562,3.408,2.756,2.842,4.887
						C120.444,285.517,118.828,286.695,117.06,286.695z"/>
				</g>
			</g>
			<g>
				<g>
					<path fill="#116FFF" d="M398.872,362.168c-0.352,0-0.703-0.047-1.046-0.141l-3.842-1.039c-2.131-0.577-3.389-2.771-2.811-4.902
						c0.562-2.131,2.771-3.381,4.896-2.811l3.833,1.038c2.139,0.578,3.396,2.771,2.818,4.903
						C402.244,360.996,400.629,362.168,398.872,362.168z"/>
				</g>
			</g>
			<g>
				<g>
					<path fill="#116FFF" d="M112.099,323.951c-0.023,0-0.051,0-0.078,0l-3.998-0.078c-2.206-0.047-3.962-1.865-3.919-4.075
						c0.043-2.201,1.464-3.888,4.076-3.919l3.997,0.078c2.206,0.047,3.962,1.866,3.919,4.075
						C116.053,322.211,114.272,323.951,112.099,323.951z"/>
				</g>
			</g>
			<g>
				<g>
					<path fill="#116FFF" d="M403.899,323.951h-3.919c-2.209,0-3.997-1.787-3.997-3.997c0-2.209,1.788-3.997,3.997-3.997h3.919
						c2.21,0,3.997,1.788,3.997,3.997C407.896,322.164,406.109,323.951,403.899,323.951z"/>
				</g>
			</g>
			<g>
				<g>
					<path fill="#116FFF" d="M113.133,362.168c-1.8,0-3.432-1.218-3.88-3.045c-0.523-2.146,0.788-4.31,2.931-4.833l3.919-0.96
						c2.146-0.539,4.306,0.781,4.836,2.928c0.523,2.146-0.789,4.31-2.932,4.832l-3.919,0.961
						C113.769,362.129,113.449,362.168,113.133,362.168z"/>
				</g>
			</g>
			<g>
				<g>
					<path fill="#116FFF" d="M395.023,286.617c-1.788,0-3.42-1.21-3.873-3.029c-0.539-2.139,0.766-4.309,2.904-4.848l3.834-0.961
						c2.154-0.499,4.316,0.766,4.855,2.912c0.531,2.14-0.766,4.311-2.904,4.849l-3.841,0.96
						C395.671,286.578,395.343,286.617,395.023,286.617z"/>
				</g>
			</g>
			<g>
				<g>
					<path fill="#116FFF" d="M127.931,397.823c-1.401,0-2.764-0.733-3.494-2.046c-1.077-1.928-0.387-4.363,1.542-5.441l3.439-1.92
						c1.92-1.078,4.364-0.391,5.438,1.537c1.077,1.929,0.386,4.364-1.542,5.441l-3.439,1.921
						C129.259,397.659,128.591,397.823,127.931,397.823z"/>
				</g>
			</g>
			<g>
				<g>
					<path fill="#116FFF" d="M380.635,251.923c-1.375,0-2.718-0.711-3.451-1.987c-1.117-1.909-0.469-4.356,1.437-5.465l3.442-1.999
						c2.538-1.468,6.051,0.543,6.051,3.455c0,1.671-1.007,3.1-2.451,3.696l-3.014,1.757
						C382.008,251.747,381.321,251.923,380.635,251.923z"/>
				</g>
			</g>
		</g>
		<g>
			<g>
				<g>
					<path fill="#116FFF" d="M338.21,241.968c-2.21,0-4.044-1.788-4.044-3.997s1.748-3.998,3.966-3.998h0.078
						c2.202,0,3.997,1.788,3.997,3.998S340.412,241.968,338.21,241.968z"/>
				</g>
			</g>
			<g>
				<g>
					<path fill="#116FFF" d="M174.263,405.911c-2.205,0-4.036-1.788-4.036-3.997s1.749-3.997,3.958-3.997h0.078
						c2.21,0,3.998,1.788,3.998,3.997S176.473,405.911,174.263,405.911z"/>
				</g>
			</g>
			<g>
				<g>
					<path fill="#116FFF" d="M286.229,211.973c-2.201,0-4.028-1.788-4.028-3.998c0-2.209,1.749-3.997,3.95-3.997h0.078
						c2.218,0,3.997,1.788,3.997,3.997C290.227,210.186,288.447,211.973,286.229,211.973z"/>
				</g>
			</g>
			<g>
				<g>
					<path fill="#116FFF" d="M226.228,435.914c-2.206,0-4.036-1.787-4.036-3.997c0-2.209,1.749-3.997,3.958-3.997h0.078
						c2.209,0,3.997,1.788,3.997,3.997C230.225,434.127,228.437,435.914,226.228,435.914z"/>
				</g>
			</g>
			<g>
				<g>
					<path fill="#116FFF" d="M226.228,211.965c-2.206,0-4.036-1.788-4.036-3.998c0-2.209,1.749-3.997,3.958-3.997h0.078
						c2.209,0,3.997,1.788,3.997,3.997C230.225,210.178,228.437,211.965,226.228,211.965z"/>
				</g>
			</g>
			<g>
				<g>
					<path fill="#116FFF" d="M286.229,435.906c-2.201,0-4.028-1.787-4.028-3.997c0-2.209,1.749-3.997,3.95-3.997h0.078
						c2.218,0,3.997,1.788,3.997,3.997C290.227,434.119,288.447,435.906,286.229,435.906z"/>
				</g>
			</g>
			<g>
				<g>
					<path fill="#116FFF" d="M174.263,241.976c-2.205,0-4.036-1.788-4.036-3.997s1.749-3.998,3.958-3.998h0.078
						c2.21,0,3.998,1.788,3.998,3.998S176.473,241.976,174.263,241.976z"/>
				</g>
			</g>
			<g>
				<g>
					<path fill="#116FFF" d="M338.194,405.903c-2.202,0-4.028-1.788-4.028-3.997s1.748-3.997,3.95-3.997h0.078
						c2.218,0,3.997,1.788,3.997,3.997S340.412,405.903,338.194,405.903z"/>
				</g>
			</g>
			<g>
				<g>
					<path fill="#116FFF" d="M144.26,293.933c-2.205,0-4.036-1.788-4.036-3.997s1.749-3.997,3.958-3.997h0.078
						c2.21,0,3.998,1.788,3.998,3.997S146.47,293.933,144.26,293.933z"/>
				</g>
			</g>
			<g>
				<g>
					<path fill="#116FFF" d="M368.205,353.939c-2.209,0-4.044-1.788-4.044-3.998c0-2.209,1.749-3.997,3.966-3.997h0.078
						c2.201,0,3.997,1.788,3.997,3.997C372.202,352.151,370.406,353.939,368.205,353.939z"/>
				</g>
			</g>
			<g>
				<g>
					<path fill="#116FFF" d="M144.26,353.947c-2.205,0-4.036-1.788-4.036-3.998c0-2.209,1.749-3.997,3.958-3.997h0.078
						c2.21,0,3.998,1.788,3.998,3.997C148.257,352.159,146.47,353.947,144.26,353.947z"/>
				</g>
			</g>
			<g>
				<g>
					<path fill="#116FFF" d="M368.189,293.933c-2.201,0-4.028-1.788-4.028-3.997s1.749-3.997,3.95-3.997h0.078
						c2.217,0,3.997,1.788,3.997,3.997S370.406,293.933,368.189,293.933z"/>
				</g>
			</g>
		</g>
	</g>
</g>
</svg>
