<?xml version="1.0" encoding="utf-8"?>
<!-- Generator: Adobe Illustrator 16.0.0, SVG Export Plug-In . SVG Version: 6.00 Build 0)  -->
<!DOCTYPE svg PUBLIC "-//W3C//DTD SVG 1.1//EN" "http://www.w3.org/Graphics/SVG/1.1/DTD/svg11.dtd">
<svg version="1.1" id="Layer_1" xmlns="http://www.w3.org/2000/svg" xmlns:xlink="http://www.w3.org/1999/xlink" x="0px" y="0px"
	 width="512px" height="512px" viewBox="0 0 512 512" enable-background="new 0 0 512 512" xml:space="preserve">
<g id="_x31_9_rocket_x2C__space_x2C__startup_x2C__business_x2C__job_x2C__work_x2C__office">
	<g>
		<g>
			<path fill="#5C9EFF" d="M493.736,387.912h-31.979c8.83,0,15.99-7.167,15.99-15.989c0-8.838-7.16-15.989-15.99-15.989h-31.979
				c8.83,0,15.99-7.167,15.99-15.989c0-8.837-7.16-15.989-15.99-15.989h-47.967c8.83,0,15.99-7.166,15.99-15.988
				c0-8.838-7.16-15.989-15.99-15.989h87.939c8.83,0,15.99-7.167,15.99-15.989c0-8.838-7.16-15.993-15.99-15.993h-39.973
				c8.83,0,15.99-7.159,15.99-15.989s-7.16-15.989-15.99-15.989h-15.988c8.83,0,15.988-7.159,15.988-15.989
				s-7.158-15.989-15.988-15.989h79.945c8.83,0,15.99-7.159,15.99-15.989c0-8.83-7.16-15.989-15.99-15.989h-31.979
				c8.83,0,15.99-7.159,15.99-15.989s-7.16-15.989-15.99-15.989h-31.979c8.83,0,15.99-7.159,15.99-15.989
				c0-8.83-7.16-15.989-15.99-15.989h-23.982c8.83,0,15.988-7.159,15.988-15.989c0-8.83-7.158-15.989-15.988-15.989H165.959
				c-8.83,0-15.989,7.159-15.989,15.989c0,8.83,7.159,15.989,15.989,15.989h-55.962c-8.83,0-15.989,7.159-15.989,15.989
				c0,8.83,7.159,15.989,15.989,15.989H94.008c-8.83,0-15.989,7.159-15.989,15.989s7.159,15.989,15.989,15.989h47.968
				c-8.83,0-15.989,7.159-15.989,15.989c0,8.83,7.159,15.989,15.989,15.989h-87.94c-8.83,0-15.989,7.16-15.989,15.989
				s7.159,15.989,15.989,15.989h39.973c-8.83,0-15.989,7.159-15.989,15.989s7.159,15.989,15.989,15.989H54.036
				c-8.83,0-15.989,7.155-15.989,15.993c0,8.822,7.159,15.989,15.989,15.989H38.046c-8.83,0-15.989,7.151-15.989,15.989
				c0,8.822,7.159,15.988,15.989,15.988H78.02c-8.83,0-15.989,7.152-15.989,15.989c0,8.822,7.159,15.989,15.989,15.989H62.03
				c-8.83,0-15.989,7.151-15.989,15.989c0,8.822,7.159,15.989,15.989,15.989h79.946c-8.83,0-15.989,7.151-15.989,15.989
				c0,8.821,7.159,15.989,15.989,15.989h-31.979c-8.83,0-15.989,7.15-15.989,15.988c0,8.822,7.159,15.989,15.989,15.989h271.815
				c8.83,0,15.99-7.167,15.99-15.989c0-8.838-7.16-15.988-15.99-15.988h111.924c8.83,0,15.99-7.168,15.99-15.989
				C509.727,395.063,502.566,387.912,493.736,387.912z"/>
		</g>
	</g>
	<g>
		<g>
			<path fill="#3A3847" d="M438.033,399.904c-2.211,0-4.037-1.78-4.037-3.998c0-2.201,1.748-3.997,3.951-3.997h0.086
				c2.201,0,3.996,1.796,3.996,3.997C442.029,398.124,440.234,399.904,438.033,399.904z"/>
		</g>
	</g>
	<g>
		<g>
			<path fill="#116FFF" d="M126.229,8.167c-2.21,0-4.037-1.788-4.037-3.997s1.749-3.998,3.951-3.998h0.086
				c2.201,0,3.997,1.788,3.997,3.998S128.43,8.167,126.229,8.167z"/>
		</g>
	</g>
	<g>
		<g>
			<path fill="#116FFF" d="M302.109,24.156c-2.209,0-4.037-1.788-4.037-3.998c0-2.209,1.75-3.997,3.951-3.997h0.086
				c2.201,0,3.998,1.788,3.998,3.997C306.107,22.368,304.311,24.156,302.109,24.156z"/>
		</g>
	</g>
	<g>
		<g>
			<path fill="#116FFF" d="M6.311,120.09c-2.209,0-4.037-1.788-4.037-3.998c0-2.209,1.749-3.997,3.951-3.997h0.086
				c2.202,0,3.997,1.788,3.997,3.997C10.308,118.303,8.512,120.09,6.311,120.09z"/>
		</g>
	</g>
	<g>
		<g>
			<path fill="#116FFF" d="M70.259,335.947c-2.21,0-4.036-1.796-4.036-3.997c0-2.218,1.749-3.997,3.95-3.997h0.086
				c2.201,0,3.997,1.779,3.997,3.997C74.256,334.151,72.46,335.947,70.259,335.947z"/>
		</g>
	</g>
	<g>
		<g>
			<path fill="#116FFF" d="M269.725,503.833c-2.209,0-4.035-1.796-4.035-3.997c0-2.218,1.748-3.998,3.949-3.998h0.086
				c2.201,0,3.998,1.78,3.998,3.998C273.723,502.037,271.926,503.833,269.725,503.833z"/>
		</g>
	</g>
	<g>
		<g>
			<path fill="#116FFF" d="M462,511.828c-2.209,0-4.035-1.78-4.035-3.998c0-2.201,1.748-3.997,3.949-3.997H462
				c2.201,0,3.998,1.796,3.998,3.997C465.998,510.048,464.201,511.828,462,511.828z"/>
		</g>
	</g>
	<g>
		<g>
			<path fill="#116FFF" d="M374.076,295.975c-2.209,0-4.037-1.796-4.037-3.997c0-2.218,1.75-3.997,3.951-3.997h0.086
				c2.201,0,3.996,1.779,3.996,3.997C378.072,294.179,376.277,295.975,374.076,295.975z"/>
		</g>
	</g>
	<g>
		<g>
			<path fill="#116FFF" d="M470.002,263.992c-2.209,0-4.035-1.787-4.035-3.997s1.748-3.997,3.949-3.997h0.086
				c2.203,0,3.998,1.787,3.998,3.997S472.205,263.992,470.002,263.992z"/>
		</g>
	</g>
	<g>
		<g>
			<path fill="#3A3847" d="M422.035,375.904c-2.209,0-4.037-1.779-4.037-3.997c0-2.202,1.75-3.997,3.951-3.997h0.086
				c2.201,0,3.998,1.795,3.998,3.997C426.033,374.125,424.236,375.904,422.035,375.904z"/>
		</g>
	</g>
	<g>
		<g>
			<path fill="#94C1FF" d="M182.909,123.135c1.358,1.358,2.475,2.803,3.436,4.396c-3.115,5.2-8.237,11.757-14.709,18.23
				c-6.472,6.472-13.03,11.593-18.229,14.708c-1.593-0.96-3.037-2.077-4.396-3.435c-9.353-9.354-9.353-24.546,0-33.899
				S173.556,113.782,182.909,123.135z"/>
		</g>
	</g>
	<g>
		<g>
			<path fill="#D7E9FF" d="M157.004,131.13c7.948-7.948,20.072-9.072,29.285-3.521c0.016-0.023,0.039-0.055,0.055-0.078
				c-0.96-1.593-2.077-3.037-3.436-4.396c-9.353-9.353-24.545-9.353-33.898,0s-9.353,24.545,0,33.899
				c1.358,1.358,2.803,2.475,4.396,3.435c0.023-0.016,0.055-0.039,0.078-0.055C147.933,151.202,149.057,139.077,157.004,131.13z"/>
		</g>
	</g>
	<g>
		<g>
			<path fill="#94C1FF" d="M186.344,127.531c5.754,9.275,4.56,21.509-3.436,29.503c-7.994,7.994-20.228,9.189-29.503,3.435
				c5.199-3.115,11.758-8.237,18.229-14.708C178.107,139.288,183.229,132.73,186.344,127.531z"/>
		</g>
	</g>
	<g>
		<g>
			<path fill="#D7E9FF" d="M136.136,385.835c4.723,4.638,4.638,12.227,0,16.958c-4.716,4.637-51.879,44.204-56.517,39.566
				c-4.715-4.716,34.852-51.887,39.575-56.524C123.832,381.119,131.42,381.119,136.136,385.835z"/>
		</g>
	</g>
	<g>
		<g>
			<path fill="#94C1FF" d="M136.136,402.793c4.638-4.731,4.723-12.32,0-16.958c-4.716-4.716-12.304-4.716-16.941,0
				c-4.724,4.638-44.291,51.809-39.575,56.524C84.257,446.997,131.42,407.43,136.136,402.793z M56.995,464.984
				c-14.068-14.068,31.174-82.101,45.25-96.091c13.991-14.068,36.772-14.068,50.84,0c14.076,14.068,14.076,36.772,0,50.841
				C139.017,433.803,71.063,478.975,56.995,464.984z"/>
		</g>
	</g>
	<g>
		<g>
			<g>
				<path fill="#5C9EFF" d="M153.085,368.894c-8.057-8.057-18.964-11.352-29.449-10.165c7.831,0.875,15.443,4.153,21.455,10.165
					c14.076,14.068,14.076,36.772,0,50.841c-11.43,11.43-58.406,43.377-83.178,47.467c20.626,4.045,78.321-34.616,91.172-47.467
					C167.162,405.666,167.162,382.962,153.085,368.894z"/>
			</g>
		</g>
	</g>
	<g>
		<g>
			<g>
				<path fill="#D7E9FF" d="M64.989,464.984c-14.069-14.068,31.174-82.101,45.25-96.091c5.98-6.012,13.577-9.29,21.392-10.165
					c-10.485-1.187-21.376,2.108-29.386,10.165c-14.077,13.99-59.319,82.022-45.25,96.091c2.639,2.623,7.183,3.17,12.913,2.217
					C67.948,466.812,66.208,466.187,64.989,464.984z"/>
			</g>
		</g>
	</g>
	<g>
		<g>
			<path fill="#94C1FF" d="M453.764,355.934c4.395,0,7.994,3.607,7.994,7.994c0,4.404-3.6,7.995-7.994,7.995
				s-7.994-3.591-7.994-7.995C445.77,359.541,449.369,355.934,453.764,355.934z"/>
		</g>
	</g>
	<g>
		<g>
			<path fill="#94C1FF" d="M461.758,363.928c0-4.387-3.6-7.994-7.994-7.994s-7.994,3.607-7.994,7.994c0,4.404,3.6,7.995,7.994,7.995
				S461.758,368.332,461.758,363.928z M441.771,339.944c19.908,0,35.977,16.067,35.977,35.976c0,19.83-16.068,35.976-35.977,35.976
				c-19.83,0-35.975-16.067-35.975-35.976S421.863,339.944,441.771,339.944z"/>
		</g>
	</g>
	<g>
		<g>
			<g>
				<path fill="#D7E9FF" d="M413.791,383.914c0-19.908,16.066-35.975,35.975-35.975c7.91,0,15.146,2.607,21.072,6.917
					c-6.535-9.01-17.066-14.912-29.066-14.912c-19.908,0-35.975,16.067-35.975,35.976c0,11.992,5.918,22.5,14.904,29.043
					C416.398,399.045,413.791,391.815,413.791,383.914z"/>
			</g>
		</g>
	</g>
	<g>
		<g>
			<g>
				<path fill="#5C9EFF" d="M470.291,368.301c0.008,19.908-16.059,35.975-35.967,35.975c-7.916,0-15.154-2.607-21.072-6.901
					c6.527,8.994,17.066,14.896,29.066,14.896c19.908,0,35.975-16.067,35.975-35.976c0-11.992-5.916-22.5-14.902-29.027
					C467.691,353.186,470.299,360.415,470.291,368.301z"/>
			</g>
		</g>
	</g>
	<g>
		<g>
			<path fill="#94C1FF" d="M361.904,91.477c28.223-28.301,79.148-33.899,90.424-22.625c11.352,11.352,11.352,56.524-22.627,90.501
				l-5.598-5.676l-56.602-56.524l-9.914-1.358C359.43,93.96,360.865,92.516,361.904,91.477z"/>
		</g>
	</g>
	<g>
		<g>
			<g>
				<path fill="#5C9EFF" d="M452.328,68.852c-1.133-1.132-2.758-2.045-4.623-2.826c7.512,16.349,4.123,55.182-25.959,85.294
					l2.357,2.357l5.598,5.676C463.68,125.376,463.68,80.204,452.328,68.852z"/>
			</g>
		</g>
	</g>
	<g>
		<g>
			<g>
				<path fill="#D7E9FF" d="M369.859,99.511c0.016-0.016,0.031-0.031,0.039-0.039c25.389-25.459,69.07-32.501,85.801-25.451
					c-0.959-2.101-2.084-3.88-3.371-5.169c-11.275-11.273-62.201-5.676-90.424,22.625c-1.039,1.039-2.475,2.483-4.316,4.317
					l9.914,1.358L369.859,99.511z"/>
			</g>
		</g>
	</g>
	<g>
		<g>
			<path fill="#94C1FF" d="M361.904,159.353c9.354,9.354,9.354,24.546,0,33.899s-24.537,9.353-33.977,0
				c-9.354-9.353-9.354-24.545,0-33.899C337.367,149.922,352.551,149.922,361.904,159.353z"/>
		</g>
	</g>
	<g>
		<g>
			<path fill="#D7E9FF" d="M335.922,167.348c8.033-8.034,20.213-9.158,29.434-3.514c-0.969-1.585-2.076-3.107-3.451-4.481
				c-9.354-9.431-24.537-9.431-33.977,0c-9.354,9.354-9.354,24.546,0,33.899c1.381,1.374,2.92,2.483,4.512,3.451
				C326.842,187.474,327.959,175.311,335.922,167.348z"/>
		</g>
	</g>
	<g>
		<g>
			<path fill="#94C1FF" d="M305.389,215.877c9.352,9.353,9.352,24.538,0,33.891c-9.439,9.354-24.547,9.354-33.977,0
				c-9.361-9.353-9.361-24.538,0-33.891C280.842,206.516,295.949,206.516,305.389,215.877z"/>
		</g>
	</g>
	<g>
		<g>
			<path fill="#D7E9FF" d="M279.039,224.23c8.033-8.034,20.213-9.158,29.434-3.513c-0.969-1.585-2.078-3.107-3.451-4.481
				c-9.354-9.431-24.539-9.431-33.977,0c-9.354,9.353-9.354,24.546,0,33.899c1.381,1.374,2.92,2.482,4.512,3.451
				C269.959,244.357,271.076,232.194,279.039,224.23z"/>
		</g>
	</g>
	<g>
		<g>
			<path fill="#D7E9FF" d="M206.729,241.617l2.561,2.553c-19.502,19.432-36.858,36.783-49.17,49.166l-0.078-0.078
				c-7.994-13.507-46.608-20.549-46.608-20.549C169.957,216.189,206.729,241.617,206.729,241.617z"/>
		</g>
	</g>
	<g>
		<g>
			<path fill="#D7E9FF" d="M280.203,315.164c0,0,25.506,36.772-31.019,93.219c0,0-7.354-40.051-21.423-47.094
				c12.304-12.304,29.737-29.729,49.327-49.247L280.203,315.164z"/>
		</g>
	</g>
	<g>
		<g>
			<path fill="#FFFFFF" d="M209.29,379.762l-11.273-11.273l-5.754,5.684c0,0-5.598,5.59-28.223-17.036
				c-22.625-22.547-16.95-28.215-16.95-28.215l5.676-5.605l-11.352-11.352c0,0,7.12-7.104,18.706-18.628
				c12.312-12.383,29.667-29.734,49.17-49.166c55.001-55.08,131.029-131.106,152.615-152.693l5.598,5.676l56.602,56.524l5.598,5.676
				c-17.113,17.105-94.334,94.334-152.613,152.689c-19.59,19.518-37.022,36.943-49.327,49.247
				C216.246,372.812,209.29,379.762,209.29,379.762z M361.904,193.251c9.354-9.353,9.354-24.545,0-33.899
				c-9.354-9.431-24.537-9.431-33.977,0c-9.354,9.354-9.354,24.546,0,33.899C337.367,202.604,352.551,202.604,361.904,193.251z
				 M305.389,249.768c9.352-9.353,9.352-24.538,0-33.891c-9.439-9.361-24.547-9.361-33.977,0c-9.361,9.353-9.361,24.538,0,33.891
				C280.842,259.121,295.949,259.121,305.389,249.768z"/>
		</g>
	</g>
	<g>
		<g>
			<g>
				<path fill="#116FFF" d="M249.184,412.38c-0.398,0-0.796-0.062-1.187-0.188c-1.421-0.438-2.475-1.624-2.748-3.092
					c-2.693-14.662-10.267-39.521-19.144-44.157c-1.397-0.641-2.381-2.03-2.381-3.654c0-2.826,3.271-4.824,5.824-3.575
					c11.89,5.949,18.987,29.886,21.977,42.486c46.569-49.997,26.294-81.413,25.382-82.771c-1.234-1.827-0.773-4.31,1.045-5.543
					c1.812-1.249,4.295-0.796,5.535,0.999c1.117,1.624,26.74,40.191-31.478,98.324C251.246,411.974,250.23,412.38,249.184,412.38z"
					/>
			</g>
		</g>
		<g>
			<g>
				<path fill="#116FFF" d="M160.042,297.255c-1.366,0-2.693-0.702-3.443-1.952c-5.145-8.713-29.644-16.066-43.884-18.658
					c-1.46-0.266-2.654-1.328-3.099-2.733c-0.437-1.421-0.062-2.966,0.992-4.028c58.218-58.222,96.777-32.669,98.394-31.553
					c1.819,1.257,2.272,3.748,1.015,5.559c-1.242,1.819-3.74,2.257-5.543,1.031c-1.39-0.937-32.806-21.087-82.85,25.448
					c12.257,2.889,35.218,9.634,41.862,20.86c1.124,1.905,0.492,4.356-1.405,5.481C161.439,297.083,160.737,297.255,160.042,297.255
					z"/>
			</g>
		</g>
		<g>
			<g>
				<path fill="#116FFF" d="M80.76,446.731c-1.999,0-3.263-0.843-3.966-1.546c-0.718-0.719-1.569-1.999-1.562-4.044
					c0.055-11.352,39.13-56.149,41.16-58.148c5.894-6.011,16.488-6.058,22.57,0.016c6.222,6.105,6.246,16.255,0.023,22.579
					C138.517,406.056,92.314,446.731,80.76,446.731z M127.634,386.304c-2.116,0-4.106,0.827-5.59,2.342
					c-5.715,5.606-30.581,36.194-37.201,48.468c12.335-6.652,42.838-31.619,48.49-37.178c1.468-1.5,2.311-3.529,2.318-5.668
					c0.008-2.124-0.819-4.107-2.318-5.575C131.788,387.146,129.765,386.304,127.634,386.304z"/>
			</g>
		</g>
		<g>
			<g>
				<path fill="#116FFF" d="M65.091,471.637c-4.692,0-8.37-1.281-10.915-3.826c-2.568-2.561-3.864-6.262-3.856-11.008
					c0.039-25.046,36.881-78.604,49.107-90.751c7.502-7.542,17.527-11.711,28.208-11.711c10.68,0,20.72,4.169,28.277,11.727
					c7.565,7.558,11.727,17.582,11.727,28.246c0,10.649-4.161,20.689-11.727,28.247C143.678,434.802,89.98,471.637,65.091,471.637z
					 M127.634,362.336c-8.533,0-16.544,3.325-22.555,9.368c-12.804,12.726-46.734,64.003-46.765,85.114
					c-0.008,2.529,0.5,4.325,1.507,5.34c0.992,0.984,2.764,1.483,5.27,1.483c20.978,0,72.365-33.93,85.168-46.733
					c6.051-6.043,9.384-14.068,9.384-22.595c0-8.525-3.333-16.551-9.384-22.594C144.208,365.661,136.175,362.336,127.634,362.336z"
					/>
			</g>
		</g>
		<g>
			<g>
				<path fill="#116FFF" d="M209.29,383.759c-1.023,0-2.046-0.391-2.826-1.171c-1.562-1.562-1.562-4.092,0-5.652l18.472-18.473
					c12.304-12.304,29.737-29.729,49.334-49.247c58.271-58.355,135.492-135.584,152.605-152.689
					c14.389-14.389,24.047-32.704,27.193-51.566c2.818-16.91-0.391-29.105-4.566-33.282c-2.68-2.678-9.346-4.278-17.84-4.278
					c-0.016,0-0.031,0-0.047,0c-19.309,0.016-48.467,8.44-66.877,26.904l-4.332,4.325c-21.58,21.579-93.289,93.288-148.291,148.368
					c-19.502,19.436-36.85,36.768-49.162,49.166L144.24,314.79c-1.562,1.562-4.091,1.562-5.652,0s-1.562-4.091,0-5.652
					l18.714-18.628c12.296-12.383,29.66-29.734,49.17-49.174c54.994-55.072,126.703-126.781,148.291-148.368l4.316-4.317
					c20.127-20.182,50.926-29.23,72.529-29.246c0.016,0,0.039,0,0.055,0c7.713,0,18.025,1.155,23.492,6.62
					c12.623,12.625,13.639,59.889-22.627,96.153c-17.113,17.105-94.334,94.335-152.613,152.689
					c-19.59,19.518-37.022,36.943-49.327,49.247l-18.472,18.473C211.335,383.368,210.312,383.759,209.29,383.759z"/>
			</g>
		</g>
		<g>
			<g>
				<path fill="#116FFF" d="M175.312,349.859c-1.023,0-2.045-0.39-2.826-1.171c-1.561-1.562-1.561-4.091,0-5.652l67.797-67.798
					c1.562-1.561,4.091-1.561,5.652,0c1.562,1.562,1.562,4.092,0,5.652l-67.797,67.798
					C177.358,349.47,176.335,349.859,175.312,349.859z"/>
			</g>
		</g>
		<g>
			<g>
				<path fill="#116FFF" d="M164.039,338.586c-1.023,0-2.045-0.391-2.826-1.171l-22.625-22.625c-1.562-1.562-1.562-4.091,0-5.652
					s4.091-1.562,5.652,0l22.625,22.625c1.561,1.562,1.561,4.091,0,5.652C166.084,338.195,165.062,338.586,164.039,338.586z"/>
			</g>
		</g>
		<g>
			<g>
				<path fill="#116FFF" d="M209.29,383.759c-1.023,0-2.046-0.391-2.826-1.171l-22.625-22.626c-1.562-1.562-1.562-4.091,0-5.652
					c1.561-1.562,4.091-1.562,5.652,0l22.625,22.626c1.562,1.561,1.562,4.091,0,5.652
					C211.335,383.368,210.312,383.759,209.29,383.759z"/>
			</g>
		</g>
		<g>
			<g>
				<path fill="#116FFF" d="M344.947,204.26c-7.471,0-14.514-2.896-19.83-8.167c-10.922-10.922-10.922-28.66-0.016-39.567
					c10.656-10.641,29.082-10.618,39.645,0.008c10.891,10.899,10.891,28.637-0.016,39.543
					C359.453,201.355,352.426,204.26,344.947,204.26z M344.947,156.276c-5.34,0-10.383,2.101-14.193,5.902
					c-7.783,7.792-7.783,20.455,0,28.247c7.604,7.526,20.783,7.542,28.324,0c7.783-7.792,7.783-20.455,0-28.247
					C355.299,158.369,350.287,156.276,344.947,156.276z"/>
			</g>
		</g>
		<g>
			<g>
				<path fill="#116FFF" d="M288.4,260.783c-7.457,0-14.49-2.904-19.807-8.174c-5.295-5.293-8.199-12.312-8.199-19.783
					c0-7.479,2.904-14.498,8.191-19.775c10.641-10.563,28.963-10.556,39.621-0.016c10.906,10.914,10.906,28.66,0.008,39.559
					C302.883,257.879,295.848,260.783,288.4,260.783z M288.4,212.855c-5.332,0-10.369,2.077-14.17,5.855
					c-3.764,3.763-5.84,8.775-5.84,14.115c0,5.332,2.076,10.345,5.848,14.115c7.58,7.519,20.695,7.55,28.34-0.016
					c7.768-7.768,7.768-20.439-0.016-28.223C298.76,214.932,293.725,212.855,288.4,212.855z"/>
			</g>
		</g>
		<g>
			<g>
				<path fill="#116FFF" d="M441.771,415.893c-22.039,0-39.973-17.925-39.973-39.973c0-22.031,17.934-39.973,39.973-39.973
					c22.041,0,39.973,17.941,39.973,39.973C481.744,397.968,463.812,415.893,441.771,415.893z M441.771,343.941
					c-17.637,0-31.979,14.35-31.979,31.979c0,17.645,14.342,31.979,31.979,31.979s31.979-14.334,31.979-31.979
					C473.75,358.291,459.408,343.941,441.771,343.941z"/>
			</g>
		</g>
		<g>
			<g>
				<path fill="#116FFF" d="M453.764,375.92c-6.613,0-11.992-5.371-11.992-11.992c0-6.604,5.379-11.991,11.992-11.991
					s11.992,5.387,11.992,11.991C465.756,370.549,460.377,375.92,453.764,375.92z M453.764,359.931
					c-2.201,0-3.998,1.796-3.998,3.997c0,2.202,1.797,3.998,3.998,3.998s3.998-1.796,3.998-3.998
					C457.762,361.727,455.965,359.931,453.764,359.931z"/>
			</g>
		</g>
		<g>
			<g>
				<path fill="#116FFF" d="M341.84,463.86c-2.209,0-3.998-1.78-3.998-3.997v-31.979c0-2.201,1.789-3.997,3.998-3.997
					s3.998,1.796,3.998,3.997v31.979C345.838,462.08,344.049,463.86,341.84,463.86z"/>
			</g>
		</g>
		<g>
			<g>
				<path fill="#116FFF" d="M349.834,447.871h-15.988c-2.209,0-3.998-1.78-3.998-3.997c0-2.202,1.789-3.997,3.998-3.997h15.988
					c2.209,0,3.998,1.795,3.998,3.997C353.832,446.091,352.043,447.871,349.834,447.871z"/>
			</g>
		</g>
		<g>
			<g>
				<path fill="#116FFF" d="M181.949,495.838c-2.209,0-3.997-1.779-3.997-3.997v-31.978c0-2.202,1.788-3.998,3.997-3.998
					s3.997,1.796,3.997,3.998v31.978C185.946,494.059,184.158,495.838,181.949,495.838z"/>
			</g>
		</g>
		<g>
			<g>
				<path fill="#116FFF" d="M189.943,479.85h-15.989c-2.209,0-3.998-1.78-3.998-3.998c0-2.201,1.788-3.997,3.998-3.997h15.989
					c2.21,0,3.998,1.796,3.998,3.997C193.94,478.069,192.153,479.85,189.943,479.85z"/>
			</g>
		</g>
		<g>
			<g>
				<path fill="#116FFF" d="M84.812,99.151c-2.21,0-3.998-1.788-3.998-3.997V63.176c0-2.209,1.788-3.997,3.998-3.997
					c2.209,0,3.997,1.788,3.997,3.997v31.979C88.809,97.364,87.021,99.151,84.812,99.151z"/>
			</g>
		</g>
		<g>
			<g>
				<path fill="#116FFF" d="M92.806,83.162H76.817c-2.209,0-3.997-1.788-3.997-3.997c0-2.209,1.788-3.997,3.997-3.997h15.989
					c2.209,0,3.997,1.788,3.997,3.997C96.803,81.375,95.016,83.162,92.806,83.162z"/>
			</g>
		</g>
		<g>
			<g>
				<path fill="#116FFF" d="M245.905,72.131c-2.209,0-3.997-1.788-3.997-3.997V36.155c0-2.209,1.788-3.997,3.997-3.997
					c2.21,0,3.998,1.788,3.998,3.997v31.979C249.902,70.343,248.115,72.131,245.905,72.131z"/>
			</g>
		</g>
		<g>
			<g>
				<path fill="#116FFF" d="M253.9,56.142h-15.989c-2.209,0-3.997-1.788-3.997-3.997s1.788-3.997,3.997-3.997H253.9
					c2.209,0,3.997,1.788,3.997,3.997S256.109,56.142,253.9,56.142z"/>
			</g>
		</g>
		<g>
			<g>
				<path fill="#116FFF" d="M30.052,256.006c-2.209,0-3.997-1.788-3.997-3.998V220.03c0-2.209,1.788-3.997,3.997-3.997
					c2.209,0,3.997,1.788,3.997,3.997v31.978C34.049,254.218,32.261,256.006,30.052,256.006z"/>
			</g>
		</g>
		<g>
			<g>
				<path fill="#116FFF" d="M38.046,240.017H22.058c-2.209,0-3.998-1.788-3.998-3.997c0-2.21,1.788-3.998,3.998-3.998h15.989
					c2.21,0,3.998,1.788,3.998,3.998C42.044,238.229,40.256,240.017,38.046,240.017z"/>
			</g>
		</g>
		<g>
			<g>
				<path fill="#116FFF" d="M165.999,168.05c-5.207,0-10.29-1.444-14.701-4.185c-1.866-1.124-3.552-2.443-5.113-4.005
					c-10.907-10.907-10.907-28.645,0-39.551c10.555-10.555,28.996-10.555,39.551,0c1.562,1.561,2.881,3.248,4.029,5.161
					c6.839,11.008,5.192,25.17-4.029,34.391C180.458,165.146,173.447,168.05,165.999,168.05z M165.959,120.122
					c-5.34,0-10.353,2.069-14.123,5.84c-7.784,7.792-7.784,20.455,0,28.247c1.101,1.101,2.287,2.029,3.63,2.842
					c7.76,4.801,18.214,3.567,24.616-2.842c6.582-6.582,7.761-16.684,2.865-24.569c-0.835-1.39-1.764-2.576-2.865-3.677
					C176.312,122.19,171.299,120.122,165.959,120.122z"/>
			</g>
		</g>
		<g>
			<g>
				<path fill="#116FFF" d="M145.31,167.402c-1.788,0-3.451-0.523-4.793-1.858c-1.569-1.554-1.569-4.091-0.016-5.652
					c1.374-1.39,3.513-1.562,5.074-0.492c0.594-0.07,2.319-0.437,5.887-2.42c5.2-3.123,11.562-8.26,17.348-14.045
					c5.785-5.785,10.922-12.148,14.107-17.457c1.937-3.475,2.296-5.184,2.358-5.777c-1.062-1.562-0.891-3.701,0.491-5.075
					c1.562-1.546,4.091-1.562,5.652,0.016c3.842,3.865,0.938,10.321-1.584,14.833c-3.615,6.051-9.056,12.796-15.373,19.112
					c-6.316,6.315-13.062,11.757-19.002,15.31C152.445,165.583,148.651,167.402,145.31,167.402z"/>
			</g>
		</g>
		<g>
			<g>
				<path fill="#116FFF" d="M424.104,157.674c-1.021,0-2.045-0.39-2.826-1.171l-56.602-56.524c-1.561-1.561-1.561-4.091,0-5.652
					c1.562-1.561,4.092-1.561,5.652,0l56.602,56.524c1.562,1.562,1.562,4.091,0,5.652
					C426.15,157.284,425.127,157.674,424.104,157.674z"/>
			</g>
		</g>
		<g>
			<g>
				<path fill="#116FFF" d="M190.076,378.902c-5.082,0-13.865-3.935-28.863-18.94c-12.437-12.382-18.745-22.047-18.753-28.715
					c0-3.028,1.257-4.606,1.803-5.152c1.562-1.562,4.091-1.562,5.652,0c1.351,1.343,1.53,3.419,0.547,4.966
					c-0.07,0.952,0.219,7.119,16.395,23.249c16.168,16.161,22.493,16.505,23.281,16.474c1.554-0.969,3.607-0.781,4.95,0.562
					c1.562,1.561,1.562,4.09,0,5.652C194.073,378.013,192.488,378.902,190.076,378.902z"/>
			</g>
		</g>
	</g>
</g>
</svg>
