<?xml version="1.0" encoding="utf-8"?>
<!-- Generator: Adobe Illustrator 16.0.0, SVG Export Plug-In . SVG Version: 6.00 Build 0)  -->
<!DOCTYPE svg PUBLIC "-//W3C//DTD SVG 1.1//EN" "http://www.w3.org/Graphics/SVG/1.1/DTD/svg11.dtd">
<svg version="1.1" id="Layer_1" xmlns="http://www.w3.org/2000/svg" xmlns:xlink="http://www.w3.org/1999/xlink" x="0px" y="0px"
	 width="512px" height="512px" viewBox="0 0 512 512" enable-background="new 0 0 512 512" xml:space="preserve">
<g id="_x33__strategy_x2C__plan_x2C__presentation_x2C__business_x2C__job_x2C__work_1_">
	<g>
		<g>
			<rect x="20.161" y="76.122" fill="#D7E9FF" width="471.679" height="303.794"/>
		</g>
	</g>
	<g>
		<g>
			<rect x="4.171" y="44.145" fill="#5C9EFF" width="503.657" height="31.978"/>
		</g>
	</g>
	<g>
		<g>
			<rect x="248.005" y="28.155" fill="#94C1FF" width="15.989" height="15.989"/>
		</g>
	</g>
	<g>
		<g>
			<rect x="248.005" y="379.916" fill="#94C1FF" width="15.989" height="103.929"/>
		</g>
	</g>
	<g>
		<g>
			<polygon fill="#D7E9FF" points="256,429.881 148.073,483.845 116.095,483.845 256,413.893 			"/>
		</g>
	</g>
	<g>
		<g>
			<polygon fill="#D7E9FF" points="256,429.881 363.926,483.845 395.904,483.845 256,413.893 			"/>
		</g>
	</g>
	<g>
		<g>
			<rect x="4.171" y="44.145" fill="#94C1FF" width="15.989" height="31.978"/>
		</g>
	</g>
	<g>
		<g>
			<rect x="20.161" y="76.122" fill="#FFFFFF" width="15.989" height="303.794"/>
		</g>
	</g>
	<g>
		<g>
			<rect x="475.85" y="76.122" fill="#94C1FF" width="15.99" height="303.794"/>
		</g>
	</g>
	<g>
		<g>
			<rect x="491.84" y="44.145" fill="#2287FF" width="15.988" height="31.978"/>
		</g>
	</g>
	<g>
		<g>
			<rect x="248.005" y="379.916" fill="#5C9EFF" width="15.989" height="15.988"/>
		</g>
	</g>
	<g>
		<g>
			<path fill="#94C1FF" d="M228.136,312.087c0,11.102-9.002,20.111-20.111,20.111c-11.102,0-20.111-9.01-20.111-20.111
				c0-11.103,9.009-20.111,20.111-20.111C219.134,291.976,228.136,300.984,228.136,312.087z"/>
		</g>
	</g>
	<g>
		<g>
			<path fill="#FFFFFF" d="M116.22,287.979c0,11.102-9.01,20.111-20.111,20.111c-11.11,0-20.111-9.01-20.111-20.111
				c0-11.103,9.001-20.111,20.111-20.111C107.21,267.867,116.22,276.876,116.22,287.979z"/>
		</g>
	</g>
	<g>
		<g>
			<path fill="#D7E9FF" d="M195.916,311.962c0-9.735,6.925-17.855,16.114-19.706c-1.296-0.265-2.631-0.405-3.997-0.405
				c-11.11,0-20.111,9.009-20.111,20.111c0,11.102,9.001,20.111,20.111,20.111c1.366,0,2.701-0.141,3.997-0.406
				C202.841,329.816,195.916,321.697,195.916,311.962z"/>
		</g>
	</g>
	<g opacity="0.2">
		<g>
			<path d="M220.149,311.962c0,9.735-6.925,17.854-16.114,19.705c1.289,0.266,2.624,0.406,3.998,0.406
				c11.102,0,20.111-9.01,20.111-20.111c0-11.103-9.01-20.111-20.111-20.111c-1.374,0-2.709,0.141-3.998,0.405
				C213.224,294.106,220.149,302.227,220.149,311.962z"/>
		</g>
	</g>
	<g>
		<g>
			<path fill="#FFFFFF" d="M395.904,188.046c0,8.83-7.166,15.989-15.988,15.989s-15.99-7.159-15.99-15.989
				s7.168-15.989,15.99-15.989S395.904,179.216,395.904,188.046z"/>
		</g>
	</g>
	<g>
		<g>
			<path fill="#94C1FF" d="M420.014,319.956c0,11.103-9.01,20.111-20.111,20.111c-11.109,0-20.111-9.009-20.111-20.111
				c0-11.102,9.002-20.111,20.111-20.111C411.004,299.845,420.014,308.854,420.014,319.956z"/>
		</g>
	</g>
	<g>
		<g>
			<path fill="#D7E9FF" d="M387.785,319.956c0-9.735,6.926-17.854,16.113-19.705c-1.295-0.266-2.623-0.406-3.996-0.406
				c-11.102,0-20.111,9.01-20.111,20.111c0,11.103,9.01,20.111,20.111,20.111c1.373,0,2.701-0.141,3.996-0.405
				C394.711,337.812,387.785,329.691,387.785,319.956z"/>
		</g>
	</g>
	<g>
		<g>
			<path fill="#5C9EFF" d="M412.02,319.956c0,9.735-6.926,17.855-16.115,19.706c1.297,0.265,2.623,0.405,3.998,0.405
				c11.102,0,20.111-9.009,20.111-20.111c0-11.102-9.01-20.111-20.111-20.111c-1.375,0-2.701,0.141-3.998,0.406
				C405.094,302.102,412.02,310.221,412.02,319.956z"/>
		</g>
	</g>
	<g>
		<g>
			<path fill="#94C1FF" d="M252.127,136.082c0,11.105-9.01,20.111-20.111,20.111c-11.109,0-20.111-9.006-20.111-20.111
				c0-11.106,9.002-20.111,20.111-20.111C243.118,115.971,252.127,124.976,252.127,136.082z"/>
		</g>
	</g>
	<g>
		<g>
			<path fill="#D7E9FF" d="M219.899,136.082c0-9.736,6.925-17.855,16.114-19.71c-1.296-0.262-2.631-0.401-3.997-0.401
				c-11.109,0-20.111,9.005-20.111,20.111c0,11.105,9.002,20.111,20.111,20.111c1.366,0,2.701-0.141,3.997-0.402
				C226.825,153.937,219.899,145.817,219.899,136.082z"/>
		</g>
	</g>
	<g>
		<g>
			<path fill="#5C9EFF" d="M244.133,136.082c0,9.735-6.925,17.854-16.114,19.709c1.288,0.262,2.623,0.402,3.997,0.402
				c11.102,0,20.111-9.006,20.111-20.111c0-11.106-9.01-20.111-20.111-20.111c-1.374,0-2.709,0.14-3.997,0.401
				C237.208,118.227,244.133,126.346,244.133,136.082z"/>
		</g>
	</g>
	<g>
		<g>
			<rect x="379.791" y="115.971" fill="#5C9EFF" width="40.098" height="16.113"/>
		</g>
	</g>
	<g>
		<g>
			<polygon fill="#5C9EFF" points="451.93,148.136 403.836,148.136 411.832,132.021 451.93,132.021 443.871,140.079 			"/>
		</g>
	</g>
	<g id="_x33__strategy_x2C__plan_x2C__presentation_x2C__business_x2C__job_x2C__work">
		<g>
			<g>
				<g>
					<path fill="#116FFF" d="M96.343,291.976c-2.202,0-4.037-1.788-4.037-3.997c0-2.21,1.749-3.998,3.958-3.998h0.078
						c2.209,0,3.997,1.788,3.997,3.998C100.34,290.188,98.552,291.976,96.343,291.976z"/>
				</g>
			</g>
			<g>
				<g>
					<path fill="#116FFF" d="M491.84,383.912H20.161c-2.21,0-3.998-1.787-3.998-3.996V76.122c0-2.209,1.788-3.997,3.998-3.997
						H491.84c2.209,0,3.996,1.788,3.996,3.997v303.794C495.836,382.125,494.049,383.912,491.84,383.912z M24.158,375.918h463.684
						V80.12H24.158V375.918z"/>
				</g>
			</g>
			<g>
				<g>
					<path fill="#116FFF" d="M379.916,208.032c-11.023,0-19.986-8.966-19.986-19.986c0-3.505,0.92-6.964,2.67-9.997
						c1.1-1.916,3.545-2.572,5.465-1.468c1.912,1.102,2.568,3.545,1.467,5.458c-1.053,1.822-1.607,3.899-1.607,6.007
						c0,6.613,5.379,11.992,11.992,11.992c6.611,0,11.992-5.379,11.992-11.992c0-2.084-0.555-4.153-1.602-5.98
						c-1.092-1.916-0.43-4.355,1.492-5.453c1.889-1.101,4.348-0.44,5.457,1.487c1.732,3.033,2.646,6.473,2.646,9.946
						C399.902,199.066,390.939,208.032,379.916,208.032z"/>
				</g>
			</g>
			<g>
				<g>
					<path fill="#116FFF" d="M379.916,192.044c-2.209,0-3.998-1.788-3.998-3.998v-79.945c0-2.209,1.789-3.997,3.998-3.997
						s3.996,1.788,3.996,3.997v79.945C383.912,190.256,382.125,192.044,379.916,192.044z"/>
				</g>
			</g>
			<g>
				<g>
					<path fill="#116FFF" d="M419.889,136.082H387.91c-2.209,0-3.998-1.788-3.998-3.998c0-2.209,1.789-3.997,3.998-3.997h27.98
						v-7.994h-27.98c-2.209,0-3.998-1.788-3.998-3.998c0-2.209,1.789-3.997,3.998-3.997h31.979c2.209,0,3.996,1.788,3.996,3.997
						v15.989C423.885,134.294,422.098,136.082,419.889,136.082z"/>
				</g>
			</g>
			<g>
				<g>
					<path fill="#116FFF" d="M451.867,152.07h-47.969c-2.209,0-3.996-1.787-3.996-3.997c0-2.209,1.787-3.997,3.996-3.997h47.969
						c2.209,0,3.996,1.788,3.996,3.997C455.863,150.283,454.076,152.07,451.867,152.07z"/>
				</g>
			</g>
			<g>
				<g>
					<path fill="#116FFF" d="M451.867,136.082h-23.984c-2.209,0-3.998-1.788-3.998-3.998c0-2.209,1.789-3.997,3.998-3.997h23.984
						c2.209,0,3.996,1.788,3.996,3.997C455.863,134.294,454.076,136.082,451.867,136.082z"/>
				</g>
			</g>
			<g>
				<g>
					<path fill="#116FFF" d="M451.867,152.07c-1.023,0-2.047-0.39-2.826-1.171l-7.996-7.994c-1.561-1.562-1.561-4.091,0-5.652
						l7.996-7.995c1.561-1.562,4.09-1.562,5.652,0c1.561,1.562,1.561,4.091,0,5.652l-5.168,5.169l5.168,5.168
						c1.561,1.562,1.561,4.091,0,5.652C453.912,151.681,452.889,152.07,451.867,152.07z"/>
				</g>
			</g>
			<g>
				<g>
					<path fill="#116FFF" d="M96.109,311.962c-13.226,0-23.984-10.759-23.984-23.983c0-13.226,10.758-23.984,23.984-23.984
						c13.225,0,23.983,10.759,23.983,23.984C120.092,301.203,109.334,311.962,96.109,311.962z M96.109,271.989
						c-8.822,0-15.989,7.167-15.989,15.989c0,8.821,7.167,15.988,15.989,15.988c8.814,0,15.989-7.167,15.989-15.988
						C112.098,279.156,104.923,271.989,96.109,271.989z"/>
				</g>
			</g>
			<g>
				<g>
					<path fill="#116FFF" d="M120.092,267.992c-1.085,0-2.163-0.438-2.951-1.305c-1.491-1.631-1.374-4.157,0.258-5.645
						c92.211-84.196,229.64-69.124,231.007-68.972c2.193,0.257,3.754,2.244,3.498,4.434c-0.258,2.183-2.078,3.748-4.436,3.506
						c-1.303-0.16-135.197-14.76-224.683,66.935C122.021,267.648,121.053,267.992,120.092,267.992z"/>
				</g>
			</g>
			<g>
				<g>
					<path fill="#116FFF" d="M331.947,208.032c-1.459,0-2.873-0.808-3.574-2.209c-0.984-1.976-0.188-4.376,1.787-5.363l15.99-7.995
						c1.975-0.979,4.371-0.191,5.363,1.788c0.982,1.976,0.188,4.376-1.789,5.363l-15.988,7.995
						C333.158,207.896,332.549,208.032,331.947,208.032z"/>
				</g>
			</g>
			<g>
				<g>
					<path fill="#116FFF" d="M347.938,200.038c-0.602,0-1.211-0.137-1.787-0.422l-15.99-7.994c-1.975-0.987-2.771-3.389-1.787-5.363
						c0.998-1.976,3.389-2.757,5.363-1.788l15.988,7.994c1.977,0.988,2.771,3.389,1.789,5.363
						C350.811,199.23,349.396,200.038,347.938,200.038z"/>
				</g>
			</g>
			<g>
				<g>
					<path fill="#116FFF" d="M240.011,148.073c-1.023,0-2.045-0.391-2.826-1.171l-15.989-15.989c-1.561-1.562-1.561-4.091,0-5.652
						c1.562-1.562,4.091-1.562,5.653,0l15.989,15.989c1.562,1.562,1.562,4.091,0,5.652
						C242.056,147.683,241.034,148.073,240.011,148.073z"/>
				</g>
			</g>
			<g>
				<g>
					<path fill="#116FFF" d="M224.021,148.073c-1.023,0-2.045-0.391-2.826-1.171c-1.561-1.562-1.561-4.091,0-5.652l15.989-15.989
						c1.561-1.562,4.091-1.562,5.652,0s1.562,4.091,0,5.652l-15.989,15.989C226.067,147.683,225.044,148.073,224.021,148.073z"/>
				</g>
			</g>
			<g>
				<g>
					<path fill="#116FFF" d="M232.016,160.065c-13.226,0-23.983-10.759-23.983-23.983c0-13.226,10.758-23.984,23.983-23.984
						S256,122.856,256,136.082C256,149.307,245.242,160.065,232.016,160.065z M232.016,120.093c-8.814,0-15.989,7.171-15.989,15.989
						c0,8.817,7.175,15.988,15.989,15.988c8.822,0,15.989-7.171,15.989-15.988C248.005,127.264,240.838,120.093,232.016,120.093z"/>
				</g>
			</g>
			<g>
				<g>
					<path fill="#116FFF" d="M124.082,184.049c-1.022,0-2.045-0.391-2.826-1.171l-23.983-23.983c-1.562-1.562-1.562-4.092,0-5.652
						c1.562-1.562,4.091-1.562,5.652,0l23.983,23.983c1.562,1.562,1.562,4.091,0,5.652
						C126.127,183.658,125.104,184.049,124.082,184.049z"/>
				</g>
			</g>
			<g>
				<g>
					<path fill="#116FFF" d="M100.098,184.049c-1.022,0-2.045-0.391-2.826-1.171c-1.562-1.562-1.562-4.091,0-5.652l23.983-23.983
						c1.562-1.562,4.091-1.562,5.652,0c1.562,1.561,1.562,4.091,0,5.652l-23.983,23.983
						C102.144,183.658,101.121,184.049,100.098,184.049z"/>
				</g>
			</g>
			<g>
				<g>
					<path fill="#116FFF" d="M216.019,323.953c-1.022,0-2.045-0.39-2.826-1.171l-15.989-15.989c-1.561-1.561-1.561-4.091,0-5.652
						c1.562-1.561,4.091-1.561,5.652,0l15.989,15.989c1.562,1.562,1.562,4.091,0,5.652
						C218.065,323.563,217.042,323.953,216.019,323.953z"/>
				</g>
			</g>
			<g>
				<g>
					<path fill="#116FFF" d="M200.03,323.953c-1.022,0-2.045-0.39-2.826-1.171c-1.561-1.562-1.561-4.091,0-5.652l15.989-15.989
						c1.562-1.561,4.091-1.561,5.652,0c1.562,1.562,1.562,4.092,0,5.652l-15.989,15.989
						C202.076,323.563,201.053,323.953,200.03,323.953z"/>
				</g>
			</g>
			<g>
				<g>
					<path fill="#116FFF" d="M208.033,335.945c-13.226,0-23.984-10.758-23.984-23.983s10.758-23.983,23.984-23.983
						c13.225,0,23.983,10.758,23.983,23.983S221.258,335.945,208.033,335.945z M208.033,295.973
						c-8.822,0-15.989,7.167-15.989,15.989s7.167,15.989,15.989,15.989c8.814,0,15.989-7.167,15.989-15.989
						S216.847,295.973,208.033,295.973z"/>
				</g>
			</g>
			<g>
				<g>
					<path fill="#116FFF" d="M315.959,295.973c-1.023,0-2.045-0.391-2.826-1.171l-23.984-23.983c-1.561-1.562-1.561-4.092,0-5.652
						c1.562-1.562,4.092-1.562,5.652,0l23.984,23.983c1.562,1.562,1.562,4.091,0,5.652
						C318.004,295.582,316.982,295.973,315.959,295.973z"/>
				</g>
			</g>
			<g>
				<g>
					<path fill="#116FFF" d="M291.975,295.973c-1.021,0-2.045-0.391-2.826-1.171c-1.561-1.562-1.561-4.091,0-5.652l23.984-23.983
						c1.562-1.562,4.092-1.562,5.652,0c1.562,1.561,1.562,4.09,0,5.652l-23.984,23.983
						C294.021,295.582,292.998,295.973,291.975,295.973z"/>
				</g>
			</g>
			<g>
				<g>
					<path fill="#116FFF" d="M407.896,331.948c-1.023,0-2.045-0.391-2.826-1.171l-15.988-15.989c-1.562-1.562-1.562-4.091,0-5.652
						c1.561-1.562,4.09-1.562,5.652,0l15.988,15.989c1.561,1.561,1.561,4.091,0,5.652
						C409.941,331.558,408.92,331.948,407.896,331.948z"/>
				</g>
			</g>
			<g>
				<g>
					<path fill="#116FFF" d="M391.908,331.948c-1.023,0-2.047-0.391-2.826-1.171c-1.562-1.562-1.562-4.092,0-5.652l15.988-15.989
						c1.561-1.562,4.092-1.562,5.652,0s1.561,4.091,0,5.652l-15.988,15.989C393.953,331.558,392.93,331.948,391.908,331.948z"/>
				</g>
			</g>
			<g>
				<g>
					<path fill="#116FFF" d="M399.902,343.939c-13.227,0-23.984-10.758-23.984-23.983s10.758-23.983,23.984-23.983
						c13.225,0,23.982,10.758,23.982,23.983S413.127,343.939,399.902,343.939z M399.902,303.967c-8.814,0-15.99,7.167-15.99,15.989
						s7.176,15.989,15.99,15.989s15.988-7.167,15.988-15.989S408.717,303.967,399.902,303.967z"/>
				</g>
			</g>
		</g>
		<g>
			<g>
				<path fill="#116FFF" d="M263.994,48.142h-15.989c-2.209,0-3.997-1.788-3.997-3.997V28.155c0-2.21,1.788-3.997,3.997-3.997
					h15.989c2.209,0,3.998,1.787,3.998,3.997v15.989C267.992,46.354,266.203,48.142,263.994,48.142z M252.002,40.146h7.996v-7.994
					h-7.996V40.146z"/>
			</g>
		</g>
		<g>
			<g>
				<path fill="#116FFF" d="M507.828,80.12H4.171c-2.209,0-3.997-1.788-3.997-3.998V44.145c0-2.21,1.788-3.998,3.997-3.998h503.657
					c2.209,0,3.998,1.788,3.998,3.998v31.978C511.826,78.332,510.037,80.12,507.828,80.12z M8.168,72.125h495.664V48.142H8.168
					V72.125z"/>
			</g>
		</g>
		<g>
			<g>
				<path fill="#116FFF" d="M483.846,64.131H28.155c-2.209,0-3.997-1.788-3.997-3.997c0-2.21,1.788-3.998,3.997-3.998h455.691
					c2.209,0,3.996,1.788,3.996,3.998C487.842,62.343,486.055,64.131,483.846,64.131z"/>
			</g>
		</g>
		<g>
			<g>
				<g>
					<path fill="#116FFF" d="M363.926,487.842c-0.6,0-1.209-0.141-1.787-0.422l-107.927-53.963
						c-1.975-0.983-2.771-3.389-1.788-5.363c0.991-1.976,3.388-2.771,5.363-1.788l107.928,53.964
						c1.975,0.983,2.771,3.388,1.787,5.363C366.799,487.03,365.387,487.842,363.926,487.842z"/>
				</g>
			</g>
			<g>
				<g>
					<path fill="#116FFF" d="M395.904,487.842c-0.602,0-1.209-0.141-1.787-0.422l-139.905-69.952
						c-1.975-0.983-2.771-3.388-1.788-5.363c0.991-1.976,3.388-2.771,5.363-1.788l139.906,69.953
						c1.975,0.983,2.771,3.388,1.787,5.363C398.777,487.03,397.365,487.842,395.904,487.842z"/>
				</g>
			</g>
			<g>
				<g>
					<path fill="#116FFF" d="M395.904,487.842h-31.979c-2.209,0-3.996-1.787-3.996-3.997s1.787-3.997,3.996-3.997h31.979
						c2.209,0,3.998,1.787,3.998,3.997S398.113,487.842,395.904,487.842z"/>
				</g>
			</g>
		</g>
		<g>
			<g>
				<g>
					<path fill="#116FFF" d="M148.081,487.842c-1.468,0-2.881-0.812-3.583-2.209c-0.983-1.976-0.188-4.38,1.788-5.363
						l107.926-53.964c1.975-0.983,4.372-0.188,5.364,1.788c0.99,1.975,0.188,4.38-1.789,5.363L149.861,487.42
						C149.292,487.701,148.682,487.842,148.081,487.842z"/>
				</g>
			</g>
			<g>
				<g>
					<path fill="#116FFF" d="M116.103,487.842c-1.468,0-2.881-0.812-3.584-2.209c-0.983-1.976-0.187-4.38,1.788-5.363
						l139.905-69.953c1.975-0.983,4.372-0.188,5.364,1.788c0.99,1.976,0.188,4.38-1.789,5.363L117.883,487.42
						C117.313,487.701,116.704,487.842,116.103,487.842z"/>
				</g>
			</g>
			<g>
				<g>
					<path fill="#116FFF" d="M148.073,487.842h-31.978c-2.209,0-3.997-1.787-3.997-3.997s1.788-3.997,3.997-3.997h31.978
						c2.209,0,3.998,1.787,3.998,3.997S150.283,487.842,148.073,487.842z"/>
				</g>
			</g>
		</g>
		<g>
			<g>
				<path fill="#116FFF" d="M248.005,421.887c-2.209,0-3.997-1.787-3.997-3.997v-37.974c0-2.21,1.788-3.998,3.997-3.998
					c2.209,0,3.997,1.788,3.997,3.998v37.974C252.002,420.1,250.214,421.887,248.005,421.887z"/>
			</g>
		</g>
		<g>
			<g>
				<path fill="#116FFF" d="M263.994,421.887c-2.209,0-3.996-1.787-3.996-3.997v-37.974c0-2.21,1.787-3.998,3.996-3.998
					s3.998,1.788,3.998,3.998v37.974C267.992,420.1,266.203,421.887,263.994,421.887z"/>
			</g>
		</g>
		<g>
			<g>
				<path fill="#116FFF" d="M263.994,487.842c-2.209,0-3.996-1.787-3.996-3.997v-49.966c0-2.21,1.787-3.998,3.996-3.998
					s3.998,1.788,3.998,3.998v49.966C267.992,486.055,266.203,487.842,263.994,487.842z"/>
			</g>
		</g>
		<g>
			<g>
				<path fill="#116FFF" d="M263.994,487.842h-15.989c-2.209,0-3.997-1.787-3.997-3.997s1.788-3.997,3.997-3.997h15.989
					c2.209,0,3.998,1.787,3.998,3.997S266.203,487.842,263.994,487.842z"/>
			</g>
		</g>
		<g>
			<g>
				<path fill="#116FFF" d="M248.005,487.842c-2.209,0-3.997-1.787-3.997-3.997v-49.966c0-2.21,1.788-3.998,3.997-3.998
					c2.209,0,3.997,1.788,3.997,3.998v49.966C252.002,486.055,250.214,487.842,248.005,487.842z"/>
			</g>
		</g>
	</g>
</g>
</svg>
