<?xml version="1.0" encoding="UTF-8" standalone="no"?>
<!-- Created with Inkscape (http://www.inkscape.org/) -->

<svg
   version="1.1"
   id="svg2"
   xml:space="preserve"
   width="848"
   height="653"
   viewBox="0 0 847.99999 653.00001"
   sodipodi:docname="together.svg"
   inkscape:version="1.1.1 (3bf5ae0d25, 2021-09-20)"
   xmlns:inkscape="http://www.inkscape.org/namespaces/inkscape"
   xmlns:sodipodi="http://sodipodi.sourceforge.net/DTD/sodipodi-0.dtd"
   xmlns="http://www.w3.org/2000/svg"
   xmlns:svg="http://www.w3.org/2000/svg"><defs
     id="defs6"><clipPath
       clipPathUnits="userSpaceOnUse"
       id="clipPath66"><path
         d="M 3797.35,2763.02 H 7076.76 V 4967.36 H 3797.35 Z"
         id="path64" /></clipPath><clipPath
       clipPathUnits="userSpaceOnUse"
       id="clipPath76"><path
         d="M 3797.35,2899.77 H 7076.76 V 4967.36 H 3797.35 Z"
         id="path74" /></clipPath><clipPath
       clipPathUnits="userSpaceOnUse"
       id="clipPath126"><path
         d="M 2926.24,2275.46 H 6205.65 V 4479.77 H 2926.24 Z"
         id="path124" /></clipPath><clipPath
       clipPathUnits="userSpaceOnUse"
       id="clipPath146"><path
         d="m 3626.33,2596.75 h 65.5664 v 673.461 H 3626.33 Z"
         id="path144" /></clipPath><clipPath
       clipPathUnits="userSpaceOnUse"
       id="clipPath156"><path
         d="m 3304.41,2596.75 h 65.5586 v 358.629 H 3304.41 Z"
         id="path154" /></clipPath><clipPath
       clipPathUnits="userSpaceOnUse"
       id="clipPath166"><path
         d="m 4270.12,2596.75 h 65.5586 v 944.719 H 4270.12 Z"
         id="path164" /></clipPath><clipPath
       clipPathUnits="userSpaceOnUse"
       id="clipPath176"><path
         d="m 3948.23,2596.75 h 65.5313 v 603.809 H 3948.23 Z"
         id="path174" /></clipPath><clipPath
       clipPathUnits="userSpaceOnUse"
       id="clipPath250"><path
         d="m 8543.86,5641.97 h 669.781 v 64.0898 H 8543.86 Z"
         id="path248" /></clipPath><clipPath
       clipPathUnits="userSpaceOnUse"
       id="clipPath262"><path
         d="m 8543.86,5546.25 h 669.781 v 64.0898 H 8543.86 Z"
         id="path260" /></clipPath><clipPath
       clipPathUnits="userSpaceOnUse"
       id="clipPath274"><path
         d="m 8543.86,5452.95 h 669.781 v 64.0898 H 8543.86 Z"
         id="path272" /></clipPath><clipPath
       clipPathUnits="userSpaceOnUse"
       id="clipPath286"><path
         d="m 8543.86,5341.35 h 467.063 v 64.0977 H 8543.86 Z"
         id="path284" /></clipPath><clipPath
       clipPathUnits="userSpaceOnUse"
       id="clipPath300"><path
         d="m 8070.51,5195.78 h 420.75 v 52.8008 h -420.75 z"
         id="path298" /></clipPath><clipPath
       clipPathUnits="userSpaceOnUse"
       id="clipPath320"><path
         d="m 3840.89,6162.91 h 1456.45 v 907.902 H 3840.89 Z"
         id="path318" /></clipPath><clipPath
       clipPathUnits="userSpaceOnUse"
       id="clipPath344"><path
         d="m 4761.29,6298.7 h 536.051 v 67.293 H 4761.29 Z"
         id="path342" /></clipPath><clipPath
       clipPathUnits="userSpaceOnUse"
       id="clipPath364"><path
         d="m 1602.98,5409.01 h 424.48 v 408.359 h -424.48 z"
         id="path362" /></clipPath><clipPath
       clipPathUnits="userSpaceOnUse"
       id="clipPath378"><path
         d="m 8748.38,3885.94 h 424.453 v 408.359 H 8748.38 Z"
         id="path376" /></clipPath><clipPath
       clipPathUnits="userSpaceOnUse"
       id="clipPath398"><path
         d="m 5377.49,5511.16 h 344.68 v 290.52 h -344.68 z"
         id="path396" /></clipPath><clipPath
       clipPathUnits="userSpaceOnUse"
       id="clipPath414"><path
         d="m 5961.01,6642.16 h 454.238 v 463.012 H 5961.01 Z"
         id="path412" /></clipPath><clipPath
       clipPathUnits="userSpaceOnUse"
       id="clipPath440"><path
         d="m 7971.07,2954.29 c -4.99,-4.01 -11.45,-5.43 -17.64,-3.78 -19.62,5.25 -62.91,20.23 -84.72,55.13 l -18.54,29.68 c -5.66,8.98 -17.28,12.02 -26.66,6.97 -17.19,-9.29 -41.97,-21.13 -43.87,-13.67 -2.85,11.45 23.03,45.98 23.03,45.98 l 71.79,52.64 c 8.19,5.99 19.55,4.93 26.5,-2.45 l 74,-78.93 31.88,-35.9 c 7.68,-8.6 6.55,-21.84 -2.44,-29.01 z"
         id="path438" /></clipPath><linearGradient
       x1="0"
       y1="0"
       x2="1"
       y2="0"
       gradientUnits="userSpaceOnUse"
       gradientTransform="matrix(265.612,-388.794,-388.794,-265.612,7778.09,3187.83)"
       spreadMethod="pad"
       id="linearGradient448"><stop
         style="stop-opacity:1;stop-color:#fcc198"
         offset="0"
         id="stop442" /><stop
         style="stop-opacity:1;stop-color:#fcc198"
         offset="0.5074668"
         id="stop444" /><stop
         style="stop-opacity:1;stop-color:#e66776"
         offset="1"
         id="stop446" /></linearGradient><clipPath
       clipPathUnits="userSpaceOnUse"
       id="clipPath480"><path
         d="m 7869.06,3653.65 c 0,0 15.51,-82.62 -30.98,-142.08 -43.92,-59.39 -18.09,-131.71 54.25,-139.43 72.31,-7.77 193.73,64.57 191.13,144.64 -25.81,77.45 -46.51,118.78 -38.72,232.43 z"
         id="path478" /></clipPath><linearGradient
       x1="0"
       y1="0"
       x2="1"
       y2="0"
       gradientUnits="userSpaceOnUse"
       gradientTransform="matrix(15.4961,470.045,470.045,-15.4961,7945.79,3354.15)"
       spreadMethod="pad"
       id="linearGradient488"><stop
         style="stop-opacity:1;stop-color:#fcc198"
         offset="0"
         id="stop482" /><stop
         style="stop-opacity:1;stop-color:#fcc198"
         offset="0.5074668"
         id="stop484" /><stop
         style="stop-opacity:1;stop-color:#e66776"
         offset="1"
         id="stop486" /></linearGradient><clipPath
       clipPathUnits="userSpaceOnUse"
       id="clipPath498"><path
         d="m 7767.25,4015.28 c -16.91,-59.76 -63.22,-253.4 10.71,-363.9 10.05,-15.02 23.83,-27.72 40.59,-34.34 99.23,-38.9 244.49,78.65 269.56,178.68 27.17,108.48 0,263.47 -76.14,299.62 -68.88,32.72 -168.98,18.88 -223.65,-41.43 -9.98,-11.04 -17.03,-24.29 -21.07,-38.63 z"
         id="path496" /></clipPath><linearGradient
       x1="0"
       y1="0"
       x2="1"
       y2="0"
       gradientUnits="userSpaceOnUse"
       gradientTransform="matrix(361.04,0,0,-361.04,7737.35,3861)"
       spreadMethod="pad"
       id="linearGradient506"><stop
         style="stop-opacity:1;stop-color:#fcc198"
         offset="0"
         id="stop500" /><stop
         style="stop-opacity:1;stop-color:#fcc198"
         offset="0.5074668"
         id="stop502" /><stop
         style="stop-opacity:1;stop-color:#e66776"
         offset="1"
         id="stop504" /></linearGradient><clipPath
       clipPathUnits="userSpaceOnUse"
       id="clipPath578"><path
         d="m 7580.67,5563.08 c 0,-282.22 -228.8,-510.99 -510.99,-510.99 -282.24,0 -510.99,228.77 -510.99,510.99 0,282.19 228.75,510.96 510.99,510.96 282.19,0 510.99,-228.77 510.99,-510.96 z"
         id="path576" /></clipPath><linearGradient
       x1="0"
       y1="0"
       x2="1"
       y2="0"
       gradientUnits="userSpaceOnUse"
       gradientTransform="matrix(12.8254,1282.62,1282.62,-12.8254,7055.62,4156.58)"
       spreadMethod="pad"
       id="linearGradient586"><stop
         style="stop-opacity:1;stop-color:#ff6b1f"
         offset="0"
         id="stop580" /><stop
         style="stop-opacity:1;stop-color:#ff6b1f"
         offset="0.35736365"
         id="stop582" /><stop
         style="stop-opacity:1;stop-color:#ffbe3d"
         offset="1"
         id="stop584" /></linearGradient></defs><sodipodi:namedview
     id="namedview4"
     pagecolor="#ffffff"
     bordercolor="#666666"
     borderopacity="1.0"
     inkscape:pageshadow="2"
     inkscape:pageopacity="0.0"
     inkscape:pagecheckerboard="0"
     showgrid="false"
     inkscape:zoom="0.35526443"
     inkscape:cx="654.44209"
     inkscape:cy="493.99823"
     inkscape:window-width="1330"
     inkscape:window-height="743"
     inkscape:window-x="36"
     inkscape:window-y="0"
     inkscape:window-maximized="1"
     inkscape:current-layer="g8"
     width="847px" /><g
     id="g8"
     inkscape:groupmode="layer"
     inkscape:label="ink_ext_XXXXXX"
     transform="matrix(1.3333333,0,0,-1.3333333,0,1011.1067)"><g
       id="g10"
       transform="matrix(0.06469871,0,0,0.06456791,8.9107994e-6,268.69148)"><path
         d="m 9749.11,3045.66 c -170.1,474.13 -437.88,618.41 -692.59,922.52 -311.1,371.46 -520.94,641.45 -440.15,1119.19 131.98,780.68 188.48,2727.66 -1878.24,2473.15 C 5997.34,7469.31 5411.97,6901.64 4986.13,6335 4623.77,5852.86 3971.93,5810.3 3447.26,5697.9 2802.63,5559.79 2145.97,5351.14 1549.57,5045.46 321.203,4415.88 -45.6719,3510.82 4.42188,2352.84 19.5742,2002.98 69.1055,1451.92 660.074,807.059 1457.75,-63.2695 2616.85,-179.809 4011.96,219.891 c 319.35,91.5 621.19,235 935.32,343.031 326.35,112.219 665.93,185.957 1009.45,219.187 292.05,28.231 588.01,27.563 883.44,26.891 515.09,-1.168 1028.6,-2.34 1517.07,149.691 406.42,126.489 779.69,357.989 1073.63,665.869 367.14,384.53 497.71,920.66 318.24,1421.1"
         style="fill:#eae6ff;fill-opacity:1;fill-rule:nonzero;stroke:none"
         id="path12" /><path
         d="m 660.074,1259.42 c 0,-114.35 1451.246,-207.15 3241.636,-207.15 1790.12,0 3241.36,92.8 3241.36,207.15 0,114.42 -1451.24,207.2 -3241.36,207.2 -1790.39,0 -3241.636,-92.78 -3241.636,-207.2"
         style="fill:#cdccff;fill-opacity:1;fill-rule:nonzero;stroke:none"
         id="path14" /><path
         d="m 2638.1,1003.7 c 0,-71.591 -368.41,-129.63 -822.88,-129.63 -454.45,0 -822.872,58.039 -822.872,129.63 0,71.58 368.422,129.6 822.872,129.6 454.47,0 822.88,-58.02 822.88,-129.6"
         style="fill:#cdccff;fill-opacity:1;fill-rule:nonzero;stroke:none"
         id="path16" /><path
         d="m 9492.93,976.629 c 0,-56.641 -618.18,-102.559 -1380.7,-102.559 -762.53,0 -1380.67,45.918 -1380.67,102.559 0,56.651 618.14,102.571 1380.67,102.571 762.52,0 1380.7,-45.92 1380.7,-102.571"
         style="fill:#cdccff;fill-opacity:1;fill-rule:nonzero;stroke:none"
         id="path18" /><path
         d="m 983.734,2682.2 -53.027,-742.53 h 708.283 l -48.75,743.92 -606.506,-1.39"
         style="fill:#d7d7ff;fill-opacity:1;fill-rule:nonzero;stroke:none"
         id="path20" /><path
         d="m 1128.05,2616.96 h 0.09 z m 20.45,12.76 c -9.07,-0.03 -16.41,-5.73 -16.41,-12.73 0.03,-7.01 7.41,-12.69 16.44,-12.69 h 0.03 c 9.1,0.03 16.49,5.74 16.46,12.75 -0.03,7 -7.41,12.67 -16.49,12.67 z m -24.24,-12.76 v 0 c -0.03,11.32 10.84,20.58 24.21,20.6 h 0.03 c 13.41,0 24.32,-9.17 24.35,-20.48 0.02,-11.32 -10.85,-20.59 -24.26,-20.62 h -0.03 c -13.36,0 -24.27,9.18 -24.3,20.5"
         style="fill:#eae6ff;fill-opacity:1;fill-rule:nonzero;stroke:none"
         id="path22" /><path
         d="m 1389.94,2630.27 c -5.1,-0.03 -9.84,-1.86 -12.98,-5.01 -1.58,-1.56 -3.45,-4.16 -3.42,-7.72 0.03,-6.98 7.41,-12.68 16.46,-12.68 h 0.03 c 4.55,0.03 8.77,1.44 11.94,4.02 2.91,2.41 4.51,5.47 4.51,8.71 -0.06,7.01 -7.41,12.68 -16.48,12.68 z m -24.21,-12.76 3.87,0.03 -3.87,-0.03 c -0.03,4.86 1.98,9.58 5.65,13.32 4.59,4.63 11.38,7.28 18.56,7.28 h 0.09 c 13.37,0 24.24,-9.17 24.26,-20.49 0,-5.64 -2.6,-10.89 -7.34,-14.79 -4.54,-3.73 -10.53,-5.79 -16.9,-5.79 h -0.02 c -13.38,0 -24.28,9.15 -24.3,20.47"
         style="fill:#eae6ff;fill-opacity:1;fill-rule:nonzero;stroke:none"
         id="path24" /><path
         d="m 1262.05,2467.64 c 2.25,0 4.53,0.06 6.87,0.15 44.38,1.44 78.24,15.75 100.58,42.44 37.03,44.23 28.63,105.86 28.28,108.47 -0.65,4.25 -4.69,7.37 -8.9,6.62 -4.3,-0.61 -7.25,-4.57 -6.66,-8.83 0.09,-0.61 7.7,-57.52 -24.82,-96.28 -19.38,-23.07 -49.31,-35.43 -88.98,-36.76 -38.45,-1.13 -67.05,8.83 -86.11,30.05 -34.59,38.5 -26.08,101.78 -25.99,102.41 0.62,4.29 -2.38,8.29 -6.67,8.89 -4.16,0.61 -8.27,-2.37 -8.86,-6.66 -0.42,-2.92 -9.67,-71.01 29.78,-115.06 21.08,-23.5 51.85,-35.44 91.48,-35.44"
         style="fill:#eae6ff;fill-opacity:1;fill-rule:nonzero;stroke:none"
         id="path26" /><path
         d="m 1316.85,2474.07 -84.63,-552.05 769.01,1.79 -77.87,551.68 -606.51,-1.42"
         style="fill:#bdc6f9;fill-opacity:1;fill-rule:nonzero;stroke:none"
         id="path28" /><path
         d="m 1032.03,1313.55 c -39.87,0 -72.378,32.22 -72.378,72.42 0,39.87 32.508,72.41 72.378,72.41 40.19,0 72.75,-32.54 72.75,-72.41 0,-40.2 -32.56,-72.42 -72.75,-72.42 m 0,228.39 c -86.1,0 -155.975,-69.84 -155.975,-155.97 0,-86.11 69.875,-155.99 155.975,-155.99 86.14,0 155.99,69.88 155.99,155.99 0,86.13 -69.85,155.97 -155.99,155.97"
         style="fill:#8784ef;fill-opacity:1;fill-rule:nonzero;stroke:none"
         id="path30" /><path
         d="m 1006.39,1313.55 c -39.878,0 -72.413,32.22 -72.413,72.42 0,39.87 32.535,72.41 72.413,72.41 40.19,0 72.74,-32.54 72.74,-72.41 0,-40.2 -32.55,-72.42 -72.74,-72.42 m 0,228.39 c -86.109,0 -155.988,-69.84 -155.988,-155.97 0,-86.11 69.879,-155.99 155.988,-155.99 86.13,0 155.98,69.88 155.98,155.99 0,86.13 -69.85,155.97 -155.98,155.97"
         style="fill:#9aa3f4;fill-opacity:1;fill-rule:nonzero;stroke:none"
         id="path32" /><path
         d="m 1913.29,1313.55 c -39.89,0 -72.43,32.22 -72.43,72.42 0,39.87 32.54,72.41 72.43,72.41 40.18,0 72.71,-32.54 72.71,-72.41 0,-40.2 -32.53,-72.42 -72.71,-72.42 m 0,228.39 c -86.15,0 -156,-69.84 -156,-155.97 0,-86.11 69.85,-155.99 156,-155.99 86.12,0 155.97,69.88 155.97,155.99 0,86.13 -69.85,155.97 -155.97,155.97"
         style="fill:#8784ef;fill-opacity:1;fill-rule:nonzero;stroke:none"
         id="path34" /><path
         d="m 1887.64,1313.55 c -39.89,0 -72.42,32.22 -72.42,72.42 0,39.87 32.53,72.41 72.42,72.41 40.18,0 72.72,-32.54 72.72,-72.41 0,-40.2 -32.54,-72.42 -72.72,-72.42 m 0,228.39 c -86.14,0 -156,-69.84 -156,-155.97 0,-86.11 69.86,-155.99 156,-155.99 86.12,0 155.97,69.88 155.97,155.99 0,86.13 -69.85,155.97 -155.97,155.97"
         style="fill:#9aa3f4;fill-opacity:1;fill-rule:nonzero;stroke:none"
         id="path36" /><path
         d="M 3090.49,3300.26 H 2621.8 c -51.88,0 -100.09,-26.76 -127.54,-70.84 l -283.25,-454.81 12.74,-7.93 283.24,454.81 c 24.72,39.69 68.11,63.77 114.81,63.77 h 468.69 v 15"
         style="fill:#9aa3f4;fill-opacity:1;fill-rule:nonzero;stroke:none"
         id="path38" /><path
         d="m 958.191,1934.69 v -7.5 H 2005.49 c 59.44,0.01 110.1,43.2 119.52,101.9 l 108.35,676.01 c 1.04,6.52 1.55,13 1.55,19.38 -0.01,65.52 -53.2,120.79 -121.07,120.82 H 849.828 c -67.883,-0.03 -121.07,-55.3 -121.074,-120.82 0,-6.38 0.508,-12.86 1.555,-19.38 l 108.363,-676.01 c 9.43,-58.69 60.078,-101.89 119.519,-101.9 v 7.5 7.5 c -52.062,0 -96.453,37.86 -104.711,89.28 l -108.363,676 c -0.918,5.74 -1.363,11.42 -1.363,17.01 0,28.66 11.641,55.1 30.742,74.41 19.113,19.31 45.559,31.4 75.332,31.41 H 2113.84 c 29.77,-0.01 56.21,-12.1 75.33,-31.41 19.1,-19.31 30.74,-45.75 30.74,-74.41 0,-5.59 -0.45,-11.27 -1.37,-17.01 l -108.35,-676 c -8.24,-51.42 -52.64,-89.28 -104.7,-89.28 H 958.191 v -7.5"
         style="fill:#9aa3f4;fill-opacity:1;fill-rule:nonzero;stroke:none"
         id="path40" /><path
         d="m 1474.33,1934.69 h 15 v 903.109 h -15 z"
         style="fill:#9aa3f4;fill-opacity:1;fill-rule:nonzero;stroke:none"
         id="path42" /><path
         d="m 789.008,2378.75 h 1385.65 v 15 H 789.008 Z"
         style="fill:#9aa3f4;fill-opacity:1;fill-rule:nonzero;stroke:none"
         id="path44" /><path
         d="m 1887.99,2838.54 -89.62,-903.11 14.93,-1.48 89.62,903.11"
         style="fill:#9aa3f4;fill-opacity:1;fill-rule:nonzero;stroke:none"
         id="path46" /><path
         d="m 1081.42,2837.12 82.73,-903.11 14.94,1.37 -82.73,903.1"
         style="fill:#9aa3f4;fill-opacity:1;fill-rule:nonzero;stroke:none"
         id="path48" /><path
         d="m 2086.65,1971.59 169.66,-252.3 c 11.39,-16.96 16.48,-35.27 16.49,-53.2 0.01,-24.87 -9.91,-48.99 -26.88,-66.8 -16.99,-17.81 -40.81,-29.33 -69.15,-29.35 H 789.02 v -15 h 1387.75 c 32.5,-0.02 60.45,13.42 80.01,34 19.59,20.59 31.01,48.29 31.02,77.15 0.01,20.78 -5.98,42.16 -19.04,61.57 l -169.66,252.3 -12.45,-8.37"
         style="fill:#9aa3f4;fill-opacity:1;fill-rule:nonzero;stroke:none"
         id="path50" /><path
         d="M 5739.83,1469.49 H 4303.21 v 386.47 h 1436.62 v -386.47"
         style="fill:#4a41a3;fill-opacity:1;fill-rule:nonzero;stroke:none"
         id="path52" /><path
         d="m 7240.95,1729.78 h -4423.7 c -153.68,0 -278.26,124.59 -278.26,278.27 v 3026.41 c 0,153.68 124.58,278.24 278.26,278.24 h 4423.7 c 153.68,0 278.24,-124.56 278.24,-278.24 V 2008.03 c 0,-153.66 -124.56,-278.25 -278.24,-278.25"
         style="fill:#5851bc;fill-opacity:1;fill-rule:nonzero;stroke:none"
         id="path54" /><path
         d="M 7193.99,2073.56 H 2849.07 c -94.43,0 -170.97,76.53 -170.97,170.96 V 5011.1 c 0,94.42 76.54,170.96 170.97,170.96 h 4344.92 c 94.4,0 170.96,-76.54 170.96,-170.96 V 2244.52 c 0,-94.43 -76.56,-170.96 -170.96,-170.96"
         style="fill:#c4c3fc;fill-opacity:1;fill-rule:nonzero;stroke:none"
         id="path56" /><path
         d="M 6357.33,1259.45 H 3685.7 v 26.57 c 0,119.9 97.18,217.07 217.05,217.07 h 2237.54 c 119.86,0 217.04,-97.17 217.04,-217.07 v -26.57"
         style="fill:#5851bc;fill-opacity:1;fill-rule:nonzero;stroke:none"
         id="path58" /><g
         id="g60"><g
           id="g62"
           clip-path="url(#clipPath66)"><path
             d="m 6933.09,2763.02 h -660.92 v 349.54 h 155.1 v 55.79 h -155.1 v 116.1 h 155.1 v 55.75 h -155.1 v 317.27 h 568.26 v 25.58 h -568.26 v 54.02 h 568.26 v 25.59 h -568.26 v 54.02 h 568.26 v 25.58 h -568.26 v 54.02 h 568.26 v 25.59 h -568.26 v 54.02 h 568.26 v 25.58 h -568.26 v 54.02 h 568.26 v 25.59 h -568.26 v 53.99 h 568.26 v 25.61 h -568.26 v 53.99 h 568.26 v 25.56 h -568.26 v 54.04 h 568.26 v 25.6 h -568.26 v 54.01 h 568.26 v 25.56 h -568.26 v 22.49 c 0,79.35 -64.33,143.7 -143.7,143.7 H 3797.35 v 258.07 c 0,78.39 62.83,142.15 140.87,143.66 h 2997.7 c 77.06,-1.49 139.29,-63.68 140.84,-140.71 v 0 c -1.55,77.03 -63.78,139.22 -140.84,140.71 h -2997.7 c -78.04,-1.51 -140.87,-65.27 -140.87,-143.66 v -125.78 h 3279.44 l -0.03,-1794.15 c -1.57,-77.99 -65.31,-140.75 -143.67,-140.75 m -297.29,405.33 v -55.79 h 204.63 v 55.79 H 6635.8 m -125.14,42.34 v -98.13 h 98.11 v 98.13 h -98.11 m 125.14,129.51 v -55.75 h 204.63 v 55.75 H 6635.8 m -125.14,42.36 v -98.11 h 98.11 v 98.11 h -98.11 M 4014.69,4634.03 v -58.59 h 2825.74 v 58.59 H 4014.69"
             style="fill:#d9d8fd;fill-opacity:1;fill-rule:nonzero;stroke:none"
             id="path68" /></g></g><g
         id="g70"><g
           id="g72"
           clip-path="url(#clipPath76)"><path
             d="m 6272.17,3112.56 h 155.098 v 55.793 H 6272.17 Z"
             style="fill:#d5d4f9;fill-opacity:1;fill-rule:nonzero;stroke:none"
             id="path78" /><path
             d="m 6272.17,3284.45 h 155.098 v 55.75 H 6272.17 Z"
             style="fill:#d5d4f9;fill-opacity:1;fill-rule:nonzero;stroke:none"
             id="path80" /><path
             d="m 6510.66,3284.45 h 98.1094 v 98.1094 H 6510.66 Z"
             style="fill:#c8c7fc;fill-opacity:1;fill-rule:nonzero;stroke:none"
             id="path82" /><path
             d="m 6510.66,3112.56 h 98.1094 v 98.1328 H 6510.66 Z"
             style="fill:#d8c5c1;fill-opacity:1;fill-rule:nonzero;stroke:none"
             id="path84" /><path
             d="m 6635.8,3112.56 h 204.629 v 55.793 H 6635.8 Z"
             style="fill:#d5d4f9;fill-opacity:1;fill-rule:nonzero;stroke:none"
             id="path86" /><path
             d="m 6635.8,3284.45 h 204.629 v 55.75 H 6635.8 Z"
             style="fill:#d5d4f9;fill-opacity:1;fill-rule:nonzero;stroke:none"
             id="path88" /><path
             d="m 6272.17,4294.27 h 568.258 v 25.6016 H 6272.17 Z"
             style="fill:#d5d4f9;fill-opacity:1;fill-rule:nonzero;stroke:none"
             id="path90" /><path
             d="m 4014.69,4575.44 h 2825.74 v 58.5898 H 4014.69 Z"
             style="fill:#d5d4f9;fill-opacity:1;fill-rule:nonzero;stroke:none"
             id="path92" /><path
             d="m 6272.17,4214.67 h 568.258 v 25.5586 H 6272.17 Z"
             style="fill:#d5d4f9;fill-opacity:1;fill-rule:nonzero;stroke:none"
             id="path94" /><path
             d="m 6272.17,4373.88 h 568.258 v 25.5625 H 6272.17 Z"
             style="fill:#d5d4f9;fill-opacity:1;fill-rule:nonzero;stroke:none"
             id="path96" /><path
             d="m 6272.17,4135.07 h 568.258 v 25.6094 H 6272.17 Z"
             style="fill:#d5d4f9;fill-opacity:1;fill-rule:nonzero;stroke:none"
             id="path98" /><path
             d="m 6272.17,4055.49 h 568.258 v 25.5938 H 6272.17 Z"
             style="fill:#d5d4f9;fill-opacity:1;fill-rule:nonzero;stroke:none"
             id="path100" /><path
             d="m 6272.17,3975.89 h 568.258 v 25.5781 H 6272.17 Z"
             style="fill:#d5d4f9;fill-opacity:1;fill-rule:nonzero;stroke:none"
             id="path102" /><path
             d="m 6272.17,3896.28 h 568.258 v 25.5898 H 6272.17 Z"
             style="fill:#d5d4f9;fill-opacity:1;fill-rule:nonzero;stroke:none"
             id="path104" /><path
             d="m 6272.17,3816.68 h 568.258 v 25.582 H 6272.17 Z"
             style="fill:#d5d4f9;fill-opacity:1;fill-rule:nonzero;stroke:none"
             id="path106" /><path
             d="m 6272.17,3737.07 h 568.258 v 25.5898 H 6272.17 Z"
             style="fill:#d5d4f9;fill-opacity:1;fill-rule:nonzero;stroke:none"
             id="path108" /><path
             d="m 6272.17,3657.47 h 568.258 v 25.582 H 6272.17 Z"
             style="fill:#d5d4f9;fill-opacity:1;fill-rule:nonzero;stroke:none"
             id="path110" /><path
             d="M 7076.79,4697.92 H 3797.35 v 125.78 c 0,78.39 62.83,142.15 140.87,143.66 h 2997.7 c 77.06,-1.49 139.29,-63.68 140.84,-140.71 v -128.73 m -125.43,171.19 c -22.93,0 -41.48,-18.56 -41.48,-41.39 0,-22.9 18.55,-41.42 41.48,-41.42 22.84,0 41.39,18.52 41.39,41.42 0,22.83 -18.55,41.39 -41.39,41.39 m -168.91,0 c -22.87,0 -41.42,-18.56 -41.42,-41.39 0,-22.9 18.55,-41.42 41.42,-41.42 22.87,0 41.43,18.52 41.43,41.42 0,22.83 -18.56,41.39 -41.43,41.39 m -168.88,0 c -22.86,0 -41.42,-18.56 -41.42,-41.39 0,-22.9 18.56,-41.42 41.42,-41.42 22.9,0 41.45,18.52 41.45,41.42 0,22.83 -18.55,41.39 -41.45,41.39"
             style="fill:#bdbcf6;fill-opacity:1;fill-rule:nonzero;stroke:none"
             id="path112" /><path
             d="m 6613.54,4786.3 c -22.86,0 -41.42,18.52 -41.42,41.42 0,22.83 18.56,41.39 41.42,41.39 22.9,0 41.45,-18.56 41.45,-41.39 0,-22.9 -18.55,-41.42 -41.45,-41.42"
             style="fill:#cfcefd;fill-opacity:1;fill-rule:nonzero;stroke:none"
             id="path114" /><path
             d="m 6782.42,4786.3 c -22.87,0 -41.42,18.52 -41.42,41.42 0,22.83 18.55,41.39 41.42,41.39 22.87,0 41.43,-18.56 41.43,-41.39 0,-22.9 -18.56,-41.42 -41.43,-41.42"
             style="fill:#cfcefd;fill-opacity:1;fill-rule:nonzero;stroke:none"
             id="path116" /><path
             d="m 6951.33,4786.3 c -22.93,0 -41.48,18.52 -41.48,41.42 0,22.83 18.55,41.39 41.48,41.39 22.84,0 41.39,-18.56 41.39,-41.39 0,-22.9 -18.55,-41.42 -41.39,-41.42"
             style="fill:#cfcefd;fill-opacity:1;fill-rule:nonzero;stroke:none"
             id="path118" /></g></g><g
         id="g120"><g
           id="g122"
           clip-path="url(#clipPath126)"><path
             d="M 6064.78,2275.46 H 3067.11 c -78.07,1.51 -140.87,65.27 -140.87,143.67 v 1916.95 c 0,53.15 28.86,99.56 71.76,124.42 -3.42,-12.27 -5.24,-25.21 -5.24,-38.57 V 2504.99 c 0,-79.38 64.32,-143.69 143.7,-143.69 h 2992.01 c 26.22,0 50.79,7.01 71.94,19.27 -16.61,-59.76 -70.88,-103.86 -135.63,-105.11"
             style="fill:#abaafa;fill-opacity:1;fill-rule:nonzero;stroke:none"
             id="path128" /></g></g><path
         d="M 6128.47,2361.3 H 3136.46 c -79.38,0 -143.7,64.31 -143.7,143.69 v 1916.94 c 0,79.35 64.32,143.7 143.7,143.7 h 2992.01 c 79.37,0 143.7,-64.35 143.7,-143.7 V 2504.99 c 0,-79.38 -64.33,-143.69 -143.7,-143.69"
         style="fill:#ffffff;fill-opacity:1;fill-rule:nonzero;stroke:none"
         id="path130" /><path
         d="m 3304.41,2596.75 h 142.852 v 358.629 H 3304.41 Z"
         style="fill:#fca70c;fill-opacity:1;fill-rule:nonzero;stroke:none"
         id="path132" /><path
         d="m 3626.33,2596.75 h 142.859 v 673.461 H 3626.33 Z"
         style="fill:#b1affd;fill-opacity:1;fill-rule:nonzero;stroke:none"
         id="path134" /><path
         d="m 3948.23,2596.75 h 142.852 v 603.809 H 3948.23 Z"
         style="fill:#fca70c;fill-opacity:1;fill-rule:nonzero;stroke:none"
         id="path136" /><path
         d="m 4270.12,2596.75 h 142.82 v 944.719 h -142.82 z"
         style="fill:#b1affd;fill-opacity:1;fill-rule:nonzero;stroke:none"
         id="path138" /><g
         id="g140"><g
           id="g142"
           clip-path="url(#clipPath146)"><path
             d="m 3626.33,2596.75 h 65.5664 v 673.461 H 3626.33 Z"
             style="fill:#aaa8f3;fill-opacity:1;fill-rule:nonzero;stroke:none"
             id="path148" /></g></g><g
         id="g150"><g
           id="g152"
           clip-path="url(#clipPath156)"><path
             d="m 3304.41,2596.75 h 65.5586 v 358.629 H 3304.41 Z"
             style="fill:#f2a00c;fill-opacity:1;fill-rule:nonzero;stroke:none"
             id="path158" /></g></g><g
         id="g160"><g
           id="g162"
           clip-path="url(#clipPath166)"><path
             d="m 4270.12,2596.75 h 65.5586 v 944.719 H 4270.12 Z"
             style="fill:#9593d4;fill-opacity:1;fill-rule:nonzero;stroke:none"
             id="path168" /></g></g><g
         id="g170"><g
           id="g172"
           clip-path="url(#clipPath176)"><path
             d="m 3948.23,2596.75 h 65.5313 v 603.809 H 3948.23 Z"
             style="fill:#f2a00c;fill-opacity:1;fill-rule:nonzero;stroke:none"
             id="path178" /></g></g><path
         d="M 4488.55,2498.01 H 3210.07 v 1239.76 h 19.51 V 2517.53 h 1258.97 v -19.52"
         style="fill:#d5dbda;fill-opacity:1;fill-rule:nonzero;stroke:none"
         id="path180" /><path
         d="m 3341.4,3123.33 -13.02,14.5 334.43,300.3 309.79,-67.3 335.41,373.44 14.53,-13.01 -343.03,-381.88 -311.09,67.59 -327.02,-293.64"
         style="fill:#d5dbda;fill-opacity:1;fill-rule:nonzero;stroke:none"
         id="path182" /><path
         d="m 4348.8,3676.08 -94.54,90.69 122.07,32.68 z"
         style="fill:#d5dbda;fill-opacity:1;fill-rule:nonzero;stroke:none"
         id="path184" /><path
         d="m 4707.71,2882.69 h -98.1 v 98.14 h 98.1 v -98.14"
         style="fill:#b1affd;fill-opacity:1;fill-rule:nonzero;stroke:none"
         id="path186" /><path
         d="m 4707.71,2710.81 h -98.1 v 98.12 h 98.1 v -98.12"
         style="fill:#fca70c;fill-opacity:1;fill-rule:nonzero;stroke:none"
         id="path188" /><path
         d="m 5045.73,2710.81 h -310.98 v 55.75 h 310.98 v -55.75"
         style="fill:#efefef;fill-opacity:1;fill-rule:nonzero;stroke:none"
         id="path190" /><path
         d="m 5045.73,2882.69 h -310.98 v 55.75 h 310.98 v -55.75"
         style="fill:#efefef;fill-opacity:1;fill-rule:nonzero;stroke:none"
         id="path192" /><path
         d="m 5284.66,2882.69 h -98.1 v 98.14 h 98.1 v -98.14"
         style="fill:#b1affd;fill-opacity:1;fill-rule:nonzero;stroke:none"
         id="path194" /><path
         d="m 5284.66,2710.81 h -98.1 v 98.12 h 98.1 v -98.12"
         style="fill:#fca70c;fill-opacity:1;fill-rule:nonzero;stroke:none"
         id="path196" /><path
         d="m 5622.65,2710.81 h -310.98 v 55.75 h 310.98 v -55.75"
         style="fill:#efefef;fill-opacity:1;fill-rule:nonzero;stroke:none"
         id="path198" /><path
         d="m 5622.65,2882.69 h -310.98 v 55.75 h 310.98 v -55.75"
         style="fill:#efefef;fill-opacity:1;fill-rule:nonzero;stroke:none"
         id="path200" /><path
         d="m 5804.18,2882.69 h -98.1 v 98.14 h 98.1 v -98.14"
         style="fill:#b1affd;fill-opacity:1;fill-rule:nonzero;stroke:none"
         id="path202" /><path
         d="m 5804.18,2710.81 h -98.1 v 98.12 h 98.1 v -98.12"
         style="fill:#fca70c;fill-opacity:1;fill-rule:nonzero;stroke:none"
         id="path204" /><path
         d="m 6035.84,2710.81 h -204.63 v 55.75 h 204.63 v -55.75"
         style="fill:#efefef;fill-opacity:1;fill-rule:nonzero;stroke:none"
         id="path206" /><path
         d="m 6035.84,2882.69 h -204.63 v 55.75 h 204.63 v -55.75"
         style="fill:#efefef;fill-opacity:1;fill-rule:nonzero;stroke:none"
         id="path208" /><path
         d="M 6035.84,3892.52 H 4628.02 v 25.61 h 1407.82 v -25.61"
         style="fill:#efefef;fill-opacity:1;fill-rule:nonzero;stroke:none"
         id="path210" /><path
         d="M 6035.84,4173.71 H 3210.1 v 58.56 h 2825.74 v -58.56"
         style="fill:#efefef;fill-opacity:1;fill-rule:nonzero;stroke:none"
         id="path212" /><path
         d="M 6035.84,3812.95 H 4623.77 v 25.58 h 1412.07 v -25.58"
         style="fill:#efefef;fill-opacity:1;fill-rule:nonzero;stroke:none"
         id="path214" /><path
         d="M 6035.84,3972.13 H 4623.77 v 25.58 h 1412.07 v -25.58"
         style="fill:#efefef;fill-opacity:1;fill-rule:nonzero;stroke:none"
         id="path216" /><path
         d="M 6035.84,3733.34 H 4623.77 v 25.58 h 1412.07 v -25.58"
         style="fill:#efefef;fill-opacity:1;fill-rule:nonzero;stroke:none"
         id="path218" /><path
         d="M 6035.84,3653.73 H 4623.77 v 25.56 h 1412.07 v -25.56"
         style="fill:#efefef;fill-opacity:1;fill-rule:nonzero;stroke:none"
         id="path220" /><path
         d="M 6035.84,3574.13 H 4623.77 v 25.58 h 1412.07 v -25.58"
         style="fill:#efefef;fill-opacity:1;fill-rule:nonzero;stroke:none"
         id="path222" /><path
         d="M 6035.84,3494.52 H 4623.77 v 25.56 h 1412.07 v -25.56"
         style="fill:#efefef;fill-opacity:1;fill-rule:nonzero;stroke:none"
         id="path224" /><path
         d="M 6035.84,3414.92 H 4623.77 v 25.61 h 1412.07 v -25.61"
         style="fill:#efefef;fill-opacity:1;fill-rule:nonzero;stroke:none"
         id="path226" /><path
         d="M 6035.84,3335.34 H 4623.77 v 25.56 h 1412.07 v -25.56"
         style="fill:#efefef;fill-opacity:1;fill-rule:nonzero;stroke:none"
         id="path228" /><path
         d="m 6035.84,3255.74 h -1239.2 v 25.58 h 1239.2 v -25.58"
         style="fill:#efefef;fill-opacity:1;fill-rule:nonzero;stroke:none"
         id="path230" /><path
         d="m 9029.36,1130.48 h -315.95 c -29.04,0 -52.57,23.54 -52.57,52.54 v 656.21 c 0,29.04 23.53,52.57 52.57,52.57 h 315.95 c 29.01,0 52.54,-23.53 52.54,-52.57 v -656.21 c 0,-29 -23.53,-52.54 -52.54,-52.54"
         style="fill:#fca70c;fill-opacity:1;fill-rule:nonzero;stroke:none"
         id="path232" /><path
         d="m 8690.59,1151.59 v 659.59 c 0,28.08 22.76,50.86 50.86,50.86 h 319.35 c 6.29,0 12.22,-1.3 17.74,-3.35 -7.2,19.3 -25.67,33.11 -47.47,33.11 H 8711.7 c -28.08,0 -50.86,-22.78 -50.86,-50.87 v -659.59 c 0,-21.82 13.81,-40.23 33.11,-47.5 -2.08,5.56 -3.36,11.5 -3.36,17.75"
         style="fill:#f9c110;fill-opacity:1;fill-rule:nonzero;stroke:none"
         id="path234" /><path
         d="m 2959.53,2170.36 -101.17,-1048.16 994.02,-0.22 -96.14,1050.15 -796.71,-1.77"
         style="fill:#fca70c;fill-opacity:1;fill-rule:nonzero;stroke:none"
         id="path236" /><path
         d="m 3138.68,2074.43 h 0.18 z m 31.41,19.57 c -13.92,-0.03 -25.24,-8.81 -25.24,-19.54 0.06,-10.74 11.38,-19.45 25.27,-19.45 h 0.03 c 13.95,0.03 25.27,8.8 25.24,19.54 -0.03,10.73 -11.37,19.45 -25.27,19.45 z m -37.26,-19.6 v 0.03 c -0.02,17.36 16.68,31.55 37.24,31.61 h 0.05 c 20.53,0 37.26,-14.1 37.31,-31.47 0.03,-17.37 -16.67,-31.55 -37.25,-31.6 h -0.03 c -20.52,0 -37.26,14.09 -37.32,31.43"
         style="fill:#5851bc;fill-opacity:1;fill-rule:nonzero;stroke:none"
         id="path238" /><path
         d="m 3540.53,2094.83 c -7.84,-0.03 -15.14,-2.8 -19.95,-7.67 -2.4,-2.4 -5.26,-6.39 -5.24,-11.83 0.06,-10.77 11.38,-19.48 25.28,-19.48 h 0.06 c 6.97,0.03 13.45,2.22 18.29,6.16 4.46,3.67 6.86,8.43 6.86,13.4 0,10.71 -11.32,19.42 -25.21,19.42 z m -37.2,-19.56 6.02,0.03 -6.02,-0.03 c -0.03,7.46 3.07,14.7 8.72,20.4 7.06,7.1 17.45,11.18 28.45,11.18 h 0.15 c 20.49,0 37.19,-14.04 37.25,-31.41 0.03,-8.66 -3.99,-16.73 -11.32,-22.72 -6.94,-5.7 -16.12,-8.87 -25.87,-8.89 h -0.06 c -20.5,0 -37.26,14.07 -37.32,31.44"
         style="fill:#5851bc;fill-opacity:1;fill-rule:nonzero;stroke:none"
         id="path240" /><path
         d="m 3344.41,1845.34 c 3.48,0 6.98,0.06 10.57,0.17 68.08,2.26 120.01,24.2 154.29,65.16 56.79,67.82 43.94,162.42 43.36,166.39 -0.95,6.57 -7.12,11.34 -13.6,10.19 -6.58,-0.95 -11.18,-7.03 -10.22,-13.6 0.11,-0.87 11.84,-88.2 -38.1,-147.67 -29.7,-35.4 -75.66,-54.38 -136.54,-56.41 -58.94,-1.74 -102.88,13.54 -132.12,46.11 -53.09,59.08 -40,156.14 -39.88,157.16 0.95,6.57 -3.65,12.64 -10.22,13.6 -6.34,0.96 -12.68,-3.62 -13.61,-10.22 -0.64,-4.43 -14.85,-108.96 45.71,-176.52 32.36,-36.1 79.55,-54.36 140.36,-54.36"
         style="fill:#5851bc;fill-opacity:1;fill-rule:nonzero;stroke:none"
         id="path242" /><g
         id="g244"><g
           id="g246"
           clip-path="url(#clipPath250)"><path
             d="m 9213.64,5641.97 h -544.13 c 0.53,21.16 0.88,42.57 1.05,64.09 h 543.08 v -64.09"
             style="fill:#ffffff;fill-opacity:1;fill-rule:nonzero;stroke:none"
             id="path252" /><path
             d="m 8669.51,5641.97 h -125.65 v 64.09 h 126.7 c -0.17,-21.52 -0.52,-42.93 -1.05,-64.09"
             style="fill:#f3f1ff;fill-opacity:1;fill-rule:nonzero;stroke:none"
             id="path254" /></g></g><g
         id="g256"><g
           id="g258"
           clip-path="url(#clipPath262)"><path
             d="m 9213.64,5546.25 h -547.7 c 1.05,21.11 1.94,42.52 2.65,64.09 h 545.05 v -64.09"
             style="fill:#ffffff;fill-opacity:1;fill-rule:nonzero;stroke:none"
             id="path264" /><path
             d="m 8665.94,5546.25 h -122.08 v 64.09 h 124.73 c -0.71,-21.57 -1.6,-42.98 -2.65,-64.09"
             style="fill:#f3f1ff;fill-opacity:1;fill-rule:nonzero;stroke:none"
             id="path266" /></g></g><g
         id="g268"><g
           id="g270"
           clip-path="url(#clipPath274)"><path
             d="M 9213.64,5452.95 H 8660.2 c 1.54,21.02 2.94,42.49 4.18,64.09 h 549.26 v -64.09"
             style="fill:#ffffff;fill-opacity:1;fill-rule:nonzero;stroke:none"
             id="path276" /><path
             d="m 8660.2,5452.95 h -116.34 v 64.09 h 120.52 c -1.24,-21.6 -2.64,-43.07 -4.18,-64.09"
             style="fill:#f3f1ff;fill-opacity:1;fill-rule:nonzero;stroke:none"
             id="path278" /></g></g><g
         id="g280"><g
           id="g282"
           clip-path="url(#clipPath286)"><path
             d="m 9010.92,5341.35 h -360.46 c 2.13,20.98 4.12,42.37 5.98,64.1 h 354.48 v -64.1"
             style="fill:#ffffff;fill-opacity:1;fill-rule:nonzero;stroke:none"
             id="path288" /><path
             d="m 8650.46,5341.35 h -106.6 v 64.1 h 112.58 c -1.86,-21.73 -3.85,-43.12 -5.98,-64.1"
             style="fill:#f3f1ff;fill-opacity:1;fill-rule:nonzero;stroke:none"
             id="path290" /></g></g><path
         d="m 8390.91,5309.86 h -220.06 c -55.41,0 -100.33,44.93 -100.33,100.33 v 291.27 c 0,55.43 44.92,100.33 100.33,100.33 h 220.06 c 55.4,0 100.33,-44.9 100.33,-100.33 v -291.27 c 0,-55.4 -44.93,-100.33 -100.33,-100.33"
         style="fill:#a9adff;fill-opacity:1;fill-rule:nonzero;stroke:none"
         id="path292" /><g
         id="g294"><g
           id="g296"
           clip-path="url(#clipPath300)"><path
             d="m 8070.51,5195.78 h 420.699 v 52.8008 H 8070.51 Z"
             style="fill:#f3f1ff;fill-opacity:1;fill-rule:nonzero;stroke:none"
             id="path302" /></g></g><path
         d="m 8322.39,5482.56 h -152.7 c -8.6,0 -16.12,5.76 -18.38,14.07 l -29.35,108.43 c -3.3,12.13 5.81,24.03 18.38,24.03 h 211.4 c 12.56,0 21.68,-11.9 18.38,-24.03 l -29.35,-108.43 c -2.26,-8.31 -9.79,-14.07 -18.38,-14.07"
         style="fill:#ffffff;fill-opacity:1;fill-rule:nonzero;stroke:none"
         id="path304" /><path
         d="m 8349.28,5458.16 h -183.91 c -2.08,0 -3.78,1.68 -3.78,3.79 0,2.09 1.7,3.79 3.78,3.79 h 181.04 l 63.98,223.15 c 0.46,1.62 1.97,2.76 3.65,2.76 h 40 c 2.08,0 3.79,-1.71 3.79,-3.79 0,-2.12 -1.71,-3.8 -3.79,-3.8 h -37.14 l -63.98,-223.16 c -0.46,-1.62 -1.96,-2.74 -3.64,-2.74"
         style="fill:#ffffff;fill-opacity:1;fill-rule:nonzero;stroke:none"
         id="path306" /><path
         d="m 8193.54,5428.26 c 0,-12.28 -9.96,-22.24 -22.23,-22.24 -12.27,0 -22.23,9.96 -22.23,22.24 0,12.27 9.96,22.22 22.23,22.22 12.27,0 22.23,-9.95 22.23,-22.22"
         style="fill:#ffffff;fill-opacity:1;fill-rule:nonzero;stroke:none"
         id="path308" /><path
         d="m 8355.21,5428.26 c 0,-12.28 -9.93,-22.24 -22.23,-22.24 -12.27,0 -22.23,9.96 -22.23,22.24 0,12.27 9.96,22.22 22.23,22.22 12.3,0 22.23,-9.95 22.23,-22.22"
         style="fill:#ffffff;fill-opacity:1;fill-rule:nonzero;stroke:none"
         id="path310" /><path
         d="m 3800.68,5951.22 h 1867.27 l -223.62,165.4 v 1021.62 c 0,67.38 -54.62,122.01 -122.01,122.01 H 3800.68 c -67.39,0 -122.01,-54.63 -122.01,-122.01 V 6073.2 c 0,-67.38 54.62,-121.98 122.01,-121.98"
         style="fill:#d5d2ff;fill-opacity:1;fill-rule:nonzero;stroke:none"
         id="path312" /><g
         id="g314"><g
           id="g316"
           clip-path="url(#clipPath320)"><path
             d="m 3840.89,6989.15 h 853.359 v 81.6602 H 3840.89 Z"
             style="fill:#e8e6ff;fill-opacity:1;fill-rule:nonzero;stroke:none"
             id="path322" /><path
             d="m 3840.89,6867.18 h 853.359 v 81.6289 H 3840.89 Z"
             style="fill:#e8e6ff;fill-opacity:1;fill-rule:nonzero;stroke:none"
             id="path324" /><path
             d="m 3840.89,6745.2 h 853.359 v 81.6641 H 3840.89 Z"
             style="fill:#e8e6ff;fill-opacity:1;fill-rule:nonzero;stroke:none"
             id="path326" /><path
             d="m 3840.89,6626.34 h 853.359 v 81.6602 H 3840.89 Z"
             style="fill:#e8e6ff;fill-opacity:1;fill-rule:nonzero;stroke:none"
             id="path328" /><path
             d="m 3840.89,6507.47 h 853.359 v 81.6602 H 3840.89 Z"
             style="fill:#e8e6ff;fill-opacity:1;fill-rule:nonzero;stroke:none"
             id="path330" /><path
             d="m 3840.89,6291.49 h 853.359 v 81.6797 H 3840.89 Z"
             style="fill:#e8e6ff;fill-opacity:1;fill-rule:nonzero;stroke:none"
             id="path332" /><path
             d="M 5297.34,6162.91 H 3840.89 v 81.63 h 1456.48 l -0.03,-81.63"
             style="fill:#e8e6ff;fill-opacity:1;fill-rule:nonzero;stroke:none"
             id="path334" /></g></g><path
         d="m 4889.12,6444.03 h 280.36 c 70.6,0 127.86,57.24 127.86,127.85 v 371.08 c 0,70.61 -57.26,127.85 -127.86,127.85 h -280.36 c -70.6,0 -127.79,-57.24 -127.79,-127.85 v -371.08 c 0,-70.61 57.19,-127.85 127.79,-127.85"
         style="fill:#c4c4f7;fill-opacity:1;fill-rule:nonzero;stroke:none"
         id="path336" /><g
         id="g338"><g
           id="g340"
           clip-path="url(#clipPath344)"><path
             d="m 4761.29,6298.7 h 536.051 v 67.2617 H 4761.29 Z"
             style="fill:#e8e6ff;fill-opacity:1;fill-rule:nonzero;stroke:none"
             id="path346" /></g></g><path
         d="m 4976.43,6664.07 h 194.53 c 10.97,0 20.58,7.36 23.44,17.9 l 37.4,138.2 c 4.17,15.42 -7.44,30.58 -23.41,30.58 h -269.36 c -16.01,0 -27.62,-15.16 -23.45,-30.58 l 37.43,-138.2 c 2.87,-10.54 12.45,-17.9 23.42,-17.9"
         style="fill:#ffffff;fill-opacity:1;fill-rule:nonzero;stroke:none"
         id="path348" /><path
         d="m 4942.16,6632.98 h 234.3 c 2.66,0 4.83,2.17 4.83,4.84 0,2.66 -2.17,4.83 -4.83,4.83 H 4945.8 l -81.51,284.29 c -0.58,2.07 -2.49,3.54 -4.63,3.54 h -50.98 c -2.66,0 -4.83,-2.18 -4.83,-4.84 0,-2.66 2.17,-4.86 4.83,-4.86 h 47.33 l 81.52,-284.3 c 0.6,-2.08 2.48,-3.5 4.63,-3.5"
         style="fill:#ffffff;fill-opacity:1;fill-rule:nonzero;stroke:none"
         id="path350" /><path
         d="m 5140.59,6594.89 c 0,-15.65 12.68,-28.34 28.31,-28.34 15.66,0 28.34,12.69 28.34,28.34 0,15.65 -12.68,28.34 -28.34,28.34 -15.63,0 -28.31,-12.69 -28.31,-28.34"
         style="fill:#ffffff;fill-opacity:1;fill-rule:nonzero;stroke:none"
         id="path352" /><path
         d="m 4934.57,6594.89 c 0,-15.65 12.71,-28.34 28.34,-28.34 15.66,0 28.34,12.69 28.34,28.34 0,15.65 -12.68,28.34 -28.34,28.34 -15.63,0 -28.34,-12.69 -28.34,-28.34"
         style="fill:#ffffff;fill-opacity:1;fill-rule:nonzero;stroke:none"
         id="path354" /><path
         d="m 8942.29,660.301 c 0,-47.91 -368.41,-86.731 -822.88,-86.731 -454.48,0 -822.88,38.821 -822.88,86.731 0,47.898 368.4,86.75 822.88,86.75 454.47,0 822.88,-38.852 822.88,-86.75"
         style="fill:#eae6ff;fill-opacity:1;fill-rule:nonzero;stroke:none"
         id="path356" /><g
         id="g358"><g
           id="g360"
           clip-path="url(#clipPath364)"><path
             d="m 2014.98,5409.01 v 0 l -82.1,41.32 c 18.27,11.51 34.55,25.62 48.23,41.78 l 33.87,-83.1"
             style="fill:#c3c3f2;fill-opacity:1;fill-rule:nonzero;stroke:none"
             id="path366" /><path
             d="m 1815.22,5416.76 c -117.21,0 -212.24,89.68 -212.24,200.32 0,110.63 95.03,200.29 212.24,200.29 117.23,0 212.24,-89.66 212.24,-200.29 v 0 c 0,-47.27 -17.35,-90.72 -46.35,-124.97 -13.68,-16.16 -29.96,-30.27 -48.23,-41.78 -33.68,-21.21 -74.14,-33.57 -117.66,-33.57 m -36.96,281.13 c -7.83,0 -15,-6.26 -15,-15.01 v -143.21 c 0,-8.77 7.2,-15.03 15.05,-15.03 2.48,0 5.03,0.63 7.44,2.01 l 124.01,71.62 c 10.01,5.78 10.01,20.23 0,25.96 l -124.01,71.62 c -2.42,1.4 -4.99,2.04 -7.49,2.04"
             style="fill:#c3c3f2;fill-opacity:1;fill-rule:nonzero;stroke:none"
             id="path368" /><path
             d="m 1778.31,5524.64 c -7.85,0 -15.05,6.26 -15.05,15.03 v 143.21 c 0,8.75 7.17,15.01 15,15.01 2.5,0 5.07,-0.64 7.49,-2.04 l 124.01,-71.62 c 10.01,-5.73 10.01,-20.18 0,-25.96 l -124.01,-71.62 c -2.41,-1.38 -4.96,-2.01 -7.44,-2.01"
             style="fill:#ffffff;fill-opacity:1;fill-rule:nonzero;stroke:none"
             id="path370" /></g></g><g
         id="g372"><g
           id="g374"
           clip-path="url(#clipPath378)"><path
             d="m 8760.9,3885.94 h -0.04 l 33.85,83.1 c 13.68,-16.15 29.96,-30.27 48.24,-41.78 l -82.05,-41.32"
             style="fill:#b5b2f2;fill-opacity:1;fill-rule:nonzero;stroke:none"
             id="path380" /><path
             d="m 9086.73,3932.89 c -10.09,11.55 -20.15,23.28 -30.21,35.29 -8.43,10.07 -16.81,20.08 -25.08,30.01 9.1,0.31 18.06,0.74 26.84,1.32 13.47,0.87 25.1,21.07 8.75,27.44 6.88,3.33 13.86,6.54 16.87,13.84 2.84,6.88 -0.58,16.24 -8.19,18 1.14,-0.27 2.23,-0.4 3.28,-0.4 13.56,0 18.2,21.24 6.56,28.45 6.63,5.32 12.16,12.36 13.55,20.47 1.39,8.1 -2.11,17.25 -9.76,21.15 -5.01,2.58 -10.96,2.7 -16.64,2.73 -19.29,0.15 -38.5,0.29 -57.75,0.4 5.21,28.43 6.78,59.37 -8.51,84.32 -3.58,5.87 -11.84,12.6 -19.97,12.6 -2.34,0 -4.66,-0.56 -6.86,-1.85 -9.21,-5.41 -6.66,-18.88 -6.2,-27.39 1.7,-30.98 -14.47,-62.14 -40.79,-80.56 -36.25,45.35 -70.34,89.69 -101.87,133.75 35.89,26.24 80.93,41.84 129.83,41.84 116.04,0 210.34,-87.85 212.25,-196.93 v -6.76 c -1.13,-64.65 -34.74,-121.85 -86.1,-157.72"
             style="fill:#c3c3f2;fill-opacity:1;fill-rule:nonzero;stroke:none"
             id="path382" /><path
             d="m 8960.58,3893.71 c -43.51,0 -83.96,12.36 -117.63,33.55 -18.28,11.51 -34.56,25.63 -48.24,41.78 -28.32,33.44 -45.53,75.62 -46.33,121.57 v 6.76 c 1.1,63.1 33.12,119.1 82.37,155.09 31.53,-44.06 65.62,-88.4 101.87,-133.75 -3.69,-2.59 -7.59,-4.93 -11.67,-6.98 0,0 2.18,-75.26 1.71,-113.67 20.16,-0.33 40.41,-0.62 60.36,-0.62 16.42,0 32.63,0.2 48.42,0.75 8.27,-9.93 16.65,-19.94 25.08,-30.01 10.06,-12.01 20.12,-23.74 30.21,-35.29 -35.27,-24.62 -78.91,-39.18 -126.15,-39.18 m -124.59,218.02 v -113.55 h 69.89 v 113.55 h -69.89"
             style="fill:#b5b2f2;fill-opacity:1;fill-rule:nonzero;stroke:none"
             id="path384" /><path
             d="m 9031.44,3998.19 c -34.39,41.21 -67.4,81.22 -98.82,120.52 26.32,18.42 42.49,49.58 40.79,80.56 -0.46,8.51 -3.01,21.98 6.2,27.39 2.2,1.29 4.52,1.85 6.86,1.85 8.13,0 16.39,-6.73 19.97,-12.6 15.29,-24.95 13.72,-55.89 8.51,-84.32 19.25,-0.11 38.46,-0.25 57.75,-0.4 5.68,-0.03 11.63,-0.15 16.64,-2.73 7.65,-3.9 11.15,-13.05 9.76,-21.15 -1.39,-8.11 -6.92,-15.15 -13.55,-20.47 11.64,-7.21 7,-28.45 -6.56,-28.45 -1.05,0 -2.14,0.13 -3.28,0.4 7.61,-1.76 11.03,-11.12 8.19,-18 -3.01,-7.3 -9.99,-10.51 -16.87,-13.84 16.35,-6.37 4.72,-26.57 -8.75,-27.44 -8.78,-0.58 -17.74,-1.01 -26.84,-1.32"
             style="fill:#ffffff;fill-opacity:1;fill-rule:nonzero;stroke:none"
             id="path386" /><path
             d="m 8983.02,3997.44 c -19.95,0 -40.2,0.29 -60.36,0.62 0.47,38.41 -1.71,113.67 -1.71,113.67 4.08,2.05 7.98,4.39 11.67,6.98 31.42,-39.3 64.43,-79.31 98.82,-120.52 -15.79,-0.55 -32,-0.75 -48.42,-0.75"
             style="fill:#f0edff;fill-opacity:1;fill-rule:nonzero;stroke:none"
             id="path388" /><path
             d="m 8835.99,3998.18 h 69.8867 v 113.551 H 8835.99 Z"
             style="fill:#f0edff;fill-opacity:1;fill-rule:nonzero;stroke:none"
             id="path390" /></g></g><g
         id="g392"><g
           id="g394"
           clip-path="url(#clipPath398)"><path
             d="m 5676.63,5704.73 c -4.88,13.08 -11.7,25.3 -20.12,36.36 l 65.66,12.87 v -0.02 l -45.54,-49.21"
             style="fill:#b5b2f2;fill-opacity:1;fill-rule:nonzero;stroke:none"
             id="path400" /><path
             d="m 5531.44,5511.16 v 0 c -85.02,0 -153.92,65.05 -153.92,145.26 0,80.24 68.9,145.26 153.92,145.26 51.52,0 97.13,-23.9 125.07,-60.59 8.42,-11.06 15.24,-23.28 20.12,-36.36 5.65,-15.11 8.72,-31.37 8.72,-48.31 0,-80.21 -68.93,-145.26 -153.91,-145.26 m 12.29,242.79 c -1.52,0 -3.04,-0.4 -4.48,-1.34 -6.05,-3.91 -4.37,-13.69 -4.05,-19.86 1.24,-25.61 -12.71,-51.38 -34.39,-63.48 0,0 1.45,-54.57 1.13,-82.41 13.25,-0.24 26.59,-0.46 39.73,-0.46 16.88,0 33.43,0.36 49.11,1.5 8.83,0.64 16.44,15.28 5.7,19.89 4.54,2.43 9.12,4.75 11.06,10.04 1.88,5.01 -0.35,11.78 -5.33,13.05 0.75,-0.19 1.47,-0.28 2.15,-0.28 8.89,0 11.91,15.39 4.31,20.64 4.31,3.84 7.93,8.94 8.86,14.82 0.9,5.87 -1.39,12.53 -6.4,15.37 -3.27,1.85 -7.24,1.94 -10.94,1.97 -12.59,0.08 -25.19,0.2 -37.81,0.29 3.42,20.6 4.46,43.04 -5.56,61.16 -2.36,4.23 -7.78,9.1 -13.09,9.1 m -98.58,-84.71 v -82.32 h 45.79 v 82.32 h -45.79"
             style="fill:#b5b2f2;fill-opacity:1;fill-rule:nonzero;stroke:none"
             id="path402" /><path
             d="m 5541.67,5586.4 c -13.14,0 -26.48,0.22 -39.73,0.46 0.32,27.84 -1.13,82.41 -1.13,82.41 21.68,12.1 35.63,37.87 34.39,63.48 -0.32,6.17 -2,15.95 4.05,19.86 1.44,0.94 2.96,1.34 4.48,1.34 5.31,0 10.73,-4.87 13.09,-9.1 10.02,-18.12 8.98,-40.56 5.56,-61.16 12.62,-0.09 25.22,-0.21 37.81,-0.29 3.7,-0.03 7.67,-0.12 10.94,-1.97 5.01,-2.84 7.3,-9.5 6.4,-15.37 -0.93,-5.88 -4.55,-10.98 -8.86,-14.82 7.6,-5.25 4.58,-20.64 -4.31,-20.64 -0.68,0 -1.4,0.09 -2.15,0.28 4.98,-1.27 7.21,-8.04 5.33,-13.05 -1.94,-5.29 -6.52,-7.61 -11.06,-10.04 10.74,-4.61 3.13,-19.25 -5.7,-19.89 -15.68,-1.14 -32.23,-1.5 -49.11,-1.5"
             style="fill:#f0edff;fill-opacity:1;fill-rule:nonzero;stroke:none"
             id="path404" /><path
             d="m 5445.15,5586.92 h 45.7891 v 82.3203 H 5445.15 Z"
             style="fill:#f0edff;fill-opacity:1;fill-rule:nonzero;stroke:none"
             id="path406" /></g></g><g
         id="g408"><g
           id="g410"
           clip-path="url(#clipPath414)"><path
             d="m 6401.88,6642.16 v 0 l -87.94,46.86 c -36.01,-24.01 -79.26,-38.06 -125.84,-38.06 -125.42,0 -227.09,101.68 -227.09,227.09 0,124.2 99.67,225.14 223.38,227.12 h 7.43 c 123.74,-1.98 223.41,-102.92 223.41,-227.12 0,-53.53 -18.65,-102.67 -49.65,-141.51 l 36.3,-94.38 m -270.73,313.79 c -13.99,0 -28,-5.27 -38.8,-15.85 -21.89,-21.44 -22.26,-56.53 -0.84,-78.44 l 53.06,-54.18 c 10.86,-11.07 25.24,-16.66 39.64,-16.66 2.83,0 5.66,0.22 8.47,0.65 11.06,1.69 21.71,6.76 30.31,15.18 l 0.31,0.35 53.93,53.15 c 21.83,21.49 22.09,56.59 0.61,78.43 -10.85,11.02 -25.16,16.55 -39.5,16.55 -14.05,0 -28.11,-5.32 -38.92,-15.96 l -14.53,-14.34 -14.1,14.44 c -10.87,11.11 -25.25,16.68 -39.64,16.68"
             style="fill:#b5b2f2;fill-opacity:1;fill-rule:nonzero;stroke:none"
             id="path416" /><path
             d="m 6184.21,6790.82 c -14.4,0 -28.78,5.59 -39.64,16.66 l -53.06,54.18 c -21.42,21.91 -21.05,57 0.84,78.44 10.8,10.58 24.81,15.85 38.8,15.85 14.39,0 28.77,-5.57 39.64,-16.68 l 14.1,-14.44 14.53,14.34 c 10.81,10.64 24.87,15.96 38.92,15.96 14.34,0 28.65,-5.53 39.5,-16.55 21.48,-21.84 21.22,-56.94 -0.61,-78.43 l -53.93,-53.15 -0.31,-0.35 c -8.6,-8.42 -19.25,-13.49 -30.31,-15.18 -2.81,-0.43 -5.64,-0.65 -8.47,-0.65"
             style="fill:#f0eeff;fill-opacity:1;fill-rule:nonzero;stroke:none"
             id="path418" /></g></g><path
         d="m 7857.52,4209.22 c 0,0 -80.11,-9.86 -132.78,-108.62 -52.65,-98.74 -13.14,-217.23 -85.58,-325.86 -72.4,-108.6 -75.69,-204.09 32.93,-253.45 108.59,-49.36 167.86,9.87 233.7,5.46 65.81,-4.37 268.54,-191.8 390.6,-83.34 199.74,177.46 -57.05,272.08 -83.39,377.39 -26.35,105.37 -31.75,376.95 -193.11,399.41 -126.16,17.53 -162.37,-10.99 -162.37,-10.99"
         style="fill:#3b2d7a;fill-opacity:1;fill-rule:nonzero;stroke:none"
         id="path420" /><path
         d="M 7722.98,1942.8 7589.08,916.238 c -2.29,-17.418 -17.08,-30.367 -34.6,-30.367 -20.55,0 -36.63,17.641 -34.73,38.109 l 103.66,1103.06 99.57,-84.24"
         style="fill:#fba60b;fill-opacity:1;fill-rule:nonzero;stroke:none"
         id="path422" /><path
         d="m 7767.41,3511.39 c 0,0 -153.98,9.9 -205.68,-202.66 -51.72,-212.51 -183.84,-568.68 -183.84,-568.68 l 183.84,11.51 258.49,631.87 -52.81,127.96"
         style="fill:#7875d0;fill-opacity:1;fill-rule:nonzero;stroke:none"
         id="path424" /><path
         d="m 8216.57,1847.06 h -598.02 v 1114.4 c 0,86.69 185.81,156.99 272.51,156.99 h 344.64 c 86.73,0 157.04,-70.3 157.04,-156.99 v -938.24 c 0,-97.27 -78.88,-176.16 -176.17,-176.16"
         style="fill:#fba60b;fill-opacity:1;fill-rule:nonzero;stroke:none"
         id="path426" /><path
         d="m 8212.75,2740.05 c 0,0 0.16,-6.67 0.92,-18.58 3.01,-46.5 15.39,-172.7 64.18,-291.6 61.27,-149.37 7.66,-367.62 -103.41,-398.3 -111.01,-30.63 -233.59,-9.55 -233.59,-9.55 0,0 80.4,-384.88 166.59,-1024.411 h -63.19 c 0,0 -430.82,921.021 -373.36,1191.001 51.68,63.19 155.08,124.47 155.08,124.47 l -126.38,321.66"
         style="fill:#333333;fill-opacity:1;fill-rule:nonzero;stroke:none"
         id="path428" /><path
         d="m 7721.47,3511.39 h 504.71 c 0,0 122.88,-8.75 131.66,-162.37 8.76,-153.61 -140.43,-412.53 -140.43,-697.8 h -574.95 l 13.15,388.41 c 0,0 -65.81,72.41 -72.38,144.79 -6.61,72.44 105.31,324.8 138.24,326.97"
         style="fill:#7875d0;fill-opacity:1;fill-rule:nonzero;stroke:none"
         id="path430" /><path
         d="m 7518.48,2651.22 -17.53,-324.72 c 0,0 -160.84,-46 -149.37,-212.58 11.49,-166.56 241.28,-1108.6 241.28,-1108.6 h 51.68 l -11.48,1114.35 281.49,189.56 -22.98,327.44 -373.09,14.55"
         style="fill:#333333;fill-opacity:1;fill-rule:nonzero;stroke:none"
         id="path432" /><g
         id="g434"><g
           id="g436"
           clip-path="url(#clipPath440)"><path
             d="m 7971.07,2954.29 c -4.99,-4.01 -11.45,-5.43 -17.64,-3.78 -19.62,5.25 -62.91,20.23 -84.72,55.13 l -18.54,29.68 c -5.66,8.98 -17.28,12.02 -26.66,6.97 -17.19,-9.29 -41.97,-21.13 -43.87,-13.67 -2.85,11.45 23.03,45.98 23.03,45.98 l 71.79,52.64 c 8.19,5.99 19.55,4.93 26.5,-2.45 l 74,-78.93 31.88,-35.9 c 7.68,-8.6 6.55,-21.84 -2.44,-29.01 l -33.33,-26.66"
             style="fill:url(#linearGradient448);fill-opacity:1;fill-rule:nonzero;stroke:none"
             id="path450" /></g></g><path
         d="M 8277.85,1942.8 8411.76,916.238 c 2.26,-17.418 17.07,-30.367 34.59,-30.367 20.54,0 36.61,17.641 34.7,38.109 l -103.63,1103.06 -99.57,-84.24"
         style="fill:#fba60b;fill-opacity:1;fill-rule:nonzero;stroke:none"
         id="path452" /><path
         d="M 8101.93,2468.14 H 7419 c -22.71,0 -41.11,18.38 -41.11,41.1 0,22.74 18.4,41.14 41.11,41.14 h 682.93 c 22.7,0 41.13,-18.4 41.13,-41.14 0,-22.72 -18.43,-41.1 -41.13,-41.1"
         style="fill:#fba60b;fill-opacity:1;fill-rule:nonzero;stroke:none"
         id="path454" /><path
         d="m 7648.12,2459.2 h -746.94 c -32.75,0 -61.14,22.76 -68.28,54.72 l -102.83,460.76 c -9.77,43.69 23.5,85.2 68.26,85.2 h 746.92 c 32.8,0 61.15,-22.74 68.3,-54.73 l 102.85,-460.77 c 9.75,-43.67 -23.49,-85.18 -68.28,-85.18"
         style="fill:#fbd60b;fill-opacity:1;fill-rule:nonzero;stroke:none"
         id="path456" /><path
         d="m 7623.09,2459.2 h -746.9 c -32.78,0 -61.16,22.76 -68.3,54.72 l -102.86,460.76 c -9.74,43.69 23.53,85.2 68.29,85.2 h 746.92 c 32.77,0 61.17,-22.74 68.29,-54.73 l 102.88,-460.77 c 9.73,-43.67 -23.51,-85.18 -68.32,-85.18"
         style="fill:#fba60b;fill-opacity:1;fill-rule:nonzero;stroke:none"
         id="path458" /><path
         d="m 8197.06,2416.66 128.7,-128.7 h 112.62 L 8976.82,878.512 c 5.19,-13.543 18.17,-22.5 32.64,-22.5 23.8,0 40.68,23.297 33.17,45.918 L 8534.92,2440.8 h -305.7 c 0,0 -24.11,-32.18 -32.16,-24.14"
         style="fill:#7875d0;fill-opacity:1;fill-rule:nonzero;stroke:none"
         id="path460" /><path
         d="m 8679.74,2416.66 128.67,-128.7 h 112.63 L 9459.49,878.512 c 5.16,-13.543 18.15,-22.5 32.67,-22.5 23.8,0 40.61,23.297 33.17,45.918 L 9017.57,2440.8 h -305.69 c 0,0 -24.14,-32.18 -32.14,-24.14"
         style="fill:#7875d0;fill-opacity:1;fill-rule:nonzero;stroke:none"
         id="path462" /><path
         d="m 6934.11,2416.66 -128.7,-128.7 H 6692.78 L 6154.33,878.512 c -5.16,-13.543 -18.15,-22.5 -32.64,-22.5 -23.83,0 -40.65,23.297 -33.21,45.918 l 507.77,1538.87 h 305.68 c 0,0 24.14,-32.18 32.18,-24.14"
         style="fill:#7875d0;fill-opacity:1;fill-rule:nonzero;stroke:none"
         id="path464" /><path
         d="m 6558.69,2416.66 -128.71,-128.7 h -112.6 L 5778.92,878.512 c -5.14,-13.543 -18.17,-22.5 -32.67,-22.5 -23.79,0 -40.62,23.297 -33.16,45.918 l 507.76,1538.87 h 305.69 c 0,0 24.1,-32.18 32.15,-24.14"
         style="fill:#7875d0;fill-opacity:1;fill-rule:nonzero;stroke:none"
         id="path466" /><path
         d="M 9197.03,2255.41 H 5966.29 c -34.99,0 -63.35,28.36 -63.35,63.35 v 113.61 h 3357.41 v -113.64 c 0,-34.97 -28.35,-63.32 -63.32,-63.32"
         style="fill:#5751bb;fill-opacity:1;fill-rule:nonzero;stroke:none"
         id="path468" /><path
         d="m 9398.18,2402.6 h -2687 c -31.09,0 -56.31,25.23 -56.31,56.35 0,31.06 25.22,56.3 56.31,56.3 h 2687 c 31.1,0 56.32,-25.24 56.32,-56.3 0,-31.12 -25.22,-56.35 -56.32,-56.35"
         style="fill:#6e66c9;fill-opacity:1;fill-rule:nonzero;stroke:none"
         id="path470" /><path
         d="M 8894.02,2402.6 H 5840.24 c -31.08,0 -56.32,25.23 -56.32,56.35 0,31.06 25.24,56.3 56.32,56.3 h 3053.78 c 31.12,0 56.32,-25.24 56.32,-56.3 0,-31.12 -25.2,-56.35 -56.32,-56.35"
         style="fill:#6e66c9;fill-opacity:1;fill-rule:nonzero;stroke:none"
         id="path472" /><g
         id="g474"><g
           id="g476"
           clip-path="url(#clipPath480)"><path
             d="m 7869.06,3653.65 c 0,0 15.51,-82.62 -30.98,-142.08 -43.92,-59.39 -18.09,-131.71 54.25,-139.43 72.31,-7.77 193.73,64.57 191.13,144.64 -25.81,77.45 -46.51,118.78 -38.72,232.43 l -175.68,-95.56"
             style="fill:url(#linearGradient488);fill-opacity:1;fill-rule:nonzero;stroke:none"
             id="path490" /></g></g><g
         id="g492"><g
           id="g494"
           clip-path="url(#clipPath498)"><path
             d="m 7767.25,4015.28 c -16.91,-59.76 -63.22,-253.4 10.71,-363.9 10.05,-15.02 23.83,-27.72 40.59,-34.34 99.23,-38.9 244.49,78.65 269.56,178.68 27.17,108.48 0,263.47 -76.14,299.62 -68.88,32.72 -168.98,18.88 -223.65,-41.43 -9.98,-11.04 -17.03,-24.29 -21.07,-38.63"
             style="fill:url(#linearGradient506);fill-opacity:1;fill-rule:nonzero;stroke:none"
             id="path508" /></g></g><path
         d="m 7755.44,4061.75 c 0,0 -25.81,-80.07 90.4,-113.66 116.24,-33.56 154.99,-18.07 154.99,-18.07 0,0 7.72,-51.63 43.91,-67.14 0,0 36.11,20.65 38.72,-23.25 2.6,-43.91 -12.91,-77.48 -36.15,-87.84 0,0 -7.8,-28.39 18.05,-43.9 25.85,-15.48 74.95,41.32 87.84,126.56 12.92,85.23 12.92,167.89 -46.5,237.65 -59.39,69.74 -123.97,92.95 -198.89,80.03 -74.89,-12.87 -121.38,-30.94 -152.37,-90.38"
         style="fill:#3b2d7a;fill-opacity:1;fill-rule:nonzero;stroke:none"
         id="path510" /><path
         d="m 8217.37,2651.22 c 0,285.27 149.23,544.19 140.47,697.8 -4.97,86.94 -46.48,127.47 -81.58,146.27 l -74.01,-12.1 c 0,0 -72.29,-92.97 -51.65,-206.61 20.7,-113.65 72.32,-173.05 51.65,-258.27 -20.65,-85.24 -111.04,-144.65 -103.28,-193.74 6.3,-40.12 15.63,-112.82 -2.17,-173.35 h 120.57"
         style="fill:#6764c9;fill-opacity:1;fill-rule:nonzero;stroke:none"
         id="path512" /><path
         d="m 8226.18,3511.39 c 0,0 132.33,9.24 182.73,-145.7 50.35,-154.97 65.87,-437.82 27.11,-468.79 -38.76,-31 -131.71,-34.87 -170.47,69.71 -38.75,104.63 -77.5,271.21 -92.98,391.33 -15.52,120.09 29.71,144.25 53.61,153.45"
         style="fill:#7875d0;fill-opacity:1;fill-rule:nonzero;stroke:none"
         id="path514" /><path
         d="m 7954.32,2930.46 c 0,0 32.27,86.55 51.67,98.16 19.34,7.75 262.13,-43.92 320.26,-12.91 58.11,30.99 123.95,3.86 123.95,-81.39 0,-85.23 -178.18,-135.6 -263.41,-104.6 -85.24,31.03 -232.47,100.74 -232.47,100.74"
         style="fill:#7875d0;fill-opacity:1;fill-rule:nonzero;stroke:none"
         id="path516" /><path
         d="m 7649.53,1060.48 -77.47,-15.49 c 0,0 5.16,-25.83 -5.17,-46.51 -10.35,-20.66 -56.82,-59.41 -111.09,-74.898 -2.57,-20.66 69.75,-33.57 108.5,-10.332 38.76,23.242 59.38,49.102 59.38,49.102 l -2.55,-43.922 h 25.83 c 0,0 18.06,36.16 23.21,59.39 5.22,23.27 -7.73,54.23 -7.73,54.23 l -12.91,28.43"
         style="fill:#7875d0;fill-opacity:1;fill-rule:nonzero;stroke:none"
         id="path518" /><path
         d="m 8098.97,1060.48 -77.5,-15.49 c 0,0 5.18,-25.83 -5.16,-46.51 -10.32,-20.66 -56.8,-59.41 -111.07,-74.898 -2.58,-20.66 69.73,-33.57 108.51,-10.332 38.72,23.242 59.37,49.102 59.37,49.102 l -2.57,-43.922 h 25.82 c 0,0 18.09,36.16 23.24,59.39 5.18,23.27 -7.74,54.23 -7.74,54.23 l -12.9,28.43"
         style="fill:#7875d0;fill-opacity:1;fill-rule:nonzero;stroke:none"
         id="path520" /><path
         d="m 2325.21,5066.88 c 0,0 140.6,-68.77 105.82,-255.85 -34.73,-187.1 -50.16,-212.34 -11.27,-285.42 38.9,-73.09 84.82,-384.94 49.79,-444.04 -34.99,-59.11 -433.16,259.72 -488.38,527.23 -55.21,267.51 35.04,386.52 66.87,430.85 31.87,44.35 153.04,90.19 277.17,27.23"
         style="fill:#0e2d3d;fill-opacity:1;fill-rule:nonzero;stroke:none"
         id="path522" /><path
         d="M 2272.16,725 H 2304 v 150.262 c 0,0 62.51,-41.692 101.73,-99.27 39.25,-57.594 93.13,-52.691 175.22,-48.98 82.12,3.64 78.48,36.726 71.11,83.308 -7.35,46.539 -90.64,61.262 -117.63,68.61 -26.97,7.351 -88.14,112.808 -107.85,138.47 -26.82,35.05 -41.06,68.65 -41.06,68.65 0,0 -15.3,62.48 -91.28,0 -75.99,-62.51 -53.94,-182.601 -45.37,-193.609 C 2257.47,881.41 2272.16,725 2272.16,725"
         style="fill:#163342;fill-opacity:1;fill-rule:nonzero;stroke:none"
         id="path524" /><path
         d="m 2432.7,878.93 c 28.15,-18.348 101.73,0 101.73,0 -20.82,26.961 -148.91,207.12 -148.91,207.12 -77.82,45.33 -108.55,-17.08 -108.55,-17.08 31.74,-9.65 127.51,-171.638 155.73,-190.04"
         style="fill:#eea886;fill-opacity:1;fill-rule:nonzero;stroke:none"
         id="path526" /><path
         d="m 3252.08,3651.23 c 0,0 51.06,-9.8 68.47,14.22 14.81,20.37 48.75,36 59.15,40.84 13.96,6.47 49.32,42.27 57.63,24.74 8.33,-17.48 -55.45,-61.77 -67.01,-73.75 -11.53,-11.96 62.62,-17.3 75.34,-28.93 12.83,-11.6 -2.93,-133.87 -53.39,-124.35 -50.44,9.49 -98.09,52.93 -107.22,52.87 -9.24,-0.06 -36.98,5.5 -36.98,5.5 l 4.01,88.86"
         style="fill:#eea886;fill-opacity:1;fill-rule:nonzero;stroke:none"
         id="path528" /><path
         d="m 3434.49,3633.37 c 0,0 152.5,-39.43 160.38,-50.53 8,-11.16 5.4,-19.25 -8.99,-16.16 -14.44,3.04 -148.47,33.75 -148.47,33.75 0,0 172.68,-76.96 181.14,-84.64 5.04,-4.5 0.91,-20.53 -7,-19.59 -7.86,0.93 -183.35,67.45 -183.35,67.45 0,0 161.13,-72.2 166.28,-80.73 4.55,-7.52 -2.91,-21.28 -15.27,-16.77 -12.26,4.55 -165.62,63.05 -165.62,63.05 0,0 114,-59.88 114.11,-69.72 0.09,-6.02 -2.88,-20.06 -31.77,-3.72 -28.9,16.41 -101.23,47.87 -101.23,47.87 l 39.79,129.74"
         style="fill:#eea886;fill-opacity:1;fill-rule:nonzero;stroke:none"
         id="path530" /><path
         d="m 1859.27,714.73 h 19.61 v 110.309 c 0,0 34.92,-35.898 50.79,-88.598 15.96,-52.679 73.01,-68.3 160.01,-65.859 87.01,2.43 88.22,36.777 80.89,88.258 -7.38,51.48 -80.89,78.449 -80.89,78.449 -33.09,29.43 -115.21,151.34 -115.21,151.34 0,0 -52.69,14.081 -94.05,-19.328 -41.33,-33.371 -28.48,-108.719 -27.27,-128.332 1.25,-19.617 6.12,-126.239 6.12,-126.239"
         style="fill:#163342;fill-opacity:1;fill-rule:nonzero;stroke:none"
         id="path532" /><path
         d="m 1919.34,3342.23 c 0,0 -103.72,-134.85 -131.78,-294.75 -28.16,-159.95 16.58,-696.71 15.33,-775.75 -1.21,-79.04 -74.76,-275.77 -59.98,-424.64 14.65,-148.89 72.68,-889.988 72.68,-889.988 l 158.88,31.527 c 0,0 -9.17,755.541 0,818.051 9.2,62.46 27.68,290.3 31.33,316.02 3.68,25.73 233.37,701.51 233.37,816.83 0,115.33 -69.84,590.8 -319.83,402.7"
         style="fill:#1d3b54;fill-opacity:1;fill-rule:nonzero;stroke:none"
         id="path534" /><path
         d="m 2440.17,3289.5 c 0,0 170.31,-650.13 190.57,-740.17 20.21,-90.1 49.55,-164.38 49.55,-202.62 0,-88.74 -32.98,-231.25 -32.98,-231.25 L 2431,1080.92 h -206.01 c 0,0 114.73,620.64 117.84,742.05 3.12,121.63 96.72,294.33 78.33,345.82 -18.37,51.46 -295.95,645.26 -295.95,645.26 0,0 -210.14,664.23 314.96,475.45"
         style="fill:#1d3b54;fill-opacity:1;fill-rule:nonzero;stroke:none"
         id="path536" /><path
         d="m 2089.68,837.289 -115.21,151.34 -94.05,-19.328 c 0,0 25.31,-67.731 71.02,-118.66 54.18,-60.371 138.24,-13.352 138.24,-13.352"
         style="fill:#eea886;fill-opacity:1;fill-rule:nonzero;stroke:none"
         id="path538" /><path
         d="m 2369.8,4394.33 c 0,0 70.29,-6.61 123.36,-63.46 53.05,-56.87 102.8,-147.54 116.73,-177.9 13.87,-30.31 208.7,-311.33 218.82,-317.65 10.15,-6.3 108.09,-39.05 172.92,-60.88 100.13,-33.68 300.92,-106.63 300.92,-106.63 l -39.88,-126.23 c 0,0 -377.5,123.49 -472,146.81 -115.55,28.43 -381.71,369.85 -381.71,369.85 0,0 -198.36,232.49 -39.16,336.09"
         style="fill:#6e66c9;fill-opacity:1;fill-rule:nonzero;stroke:none"
         id="path540" /><path
         d="m 2247.27,4443.62 c 0,0 90.97,-42.98 122.53,-49.29 31.6,-6.33 154.19,-165.52 175.66,-223.64 21.45,-58.09 0,-145.32 -44.29,-247.68 -44.17,-102.3 -2.43,-136.44 -22.69,-238.77 -20.24,-102.36 -13.71,-485.23 -9.92,-542.1 3.77,-56.85 -591.4,-142.99 -708.86,-39.36 0,0 79.51,345.04 173.68,443.5 20.38,21.3 18.27,163.25 4.36,198.61 -13.91,35.36 -170.66,299.44 -170.66,299.44 0,0 -11.48,267.85 56.91,320.92 59.37,46.14 221.23,62.58 250.29,72.7 29.03,10.08 113.59,14.5 172.99,5.67"
         style="fill:#ffbf55;fill-opacity:1;fill-rule:nonzero;stroke:none"
         id="path542" /><path
         d="m 2290.68,4548.58 c 0,0 -2.7,-25.04 -5.82,-58.87 -1.25,-13.44 -2.55,-28.21 -3.74,-43.38 -3.65,-45.36 -6.53,-94.05 -4.77,-119 0,0 -94.59,-94.73 -202.07,110.59 0,0 45.21,84.63 11.21,199.93 -34.06,115.33 205.19,-89.27 205.19,-89.27"
         style="fill:#eea886;fill-opacity:1;fill-rule:nonzero;stroke:none"
         id="path544" /><path
         d="m 2555.29,3885.28 c 0,0 22.75,151.4 -1.43,243.4 0,0 0,-79.15 -43.37,-191.52 l 44.8,-51.88"
         style="fill:#5751bb;fill-opacity:1;fill-rule:nonzero;stroke:none"
         id="path546" /><path
         d="m 2001.67,4423.36 c 0,0 65,-192.06 243.55,-177.96 178.55,14.14 84.64,162.22 84.64,162.22 0,0 -44.5,25.46 -57.02,27.89 -12.51,2.44 -197.41,4.75 -197.41,4.75 l -73.76,-16.9"
         style="fill:#eea886;fill-opacity:1;fill-rule:nonzero;stroke:none"
         id="path548" /><path
         d="m 2329.86,4407.62 c 0,0 93.49,-258.7 93.49,-522.34 0,-263.57 7.57,-693.06 40.21,-828.67 32.62,-135.62 125.61,-555.01 125.61,-555.01 l 72.81,37.64 c 0,0 -175.17,669.38 -188.4,717.65 -13.2,48.29 10.06,558.16 22.6,600.86 12.58,42.69 65.99,232.75 57.68,285.47 -10.5,66.42 -72.68,164.83 -173.12,249.36 l -50.88,15.04"
         style="fill:#6e66c9;fill-opacity:1;fill-rule:nonzero;stroke:none"
         id="path550" /><path
         d="m 2036.95,4431.44 c 0,0 58.12,-186.1 87.58,-424.43 29.46,-238.36 -90.43,-1344.66 -170.8,-1595.81 l -311.4,50.25 c 0,0 67.02,781.98 158.01,924.3 90.99,142.29 119.99,268.2 21.75,565.21 -98.26,297.07 43.02,444.17 43.02,444.17 0,0 144.49,33.23 171.84,36.31"
         style="fill:#6e66c9;fill-opacity:1;fill-rule:nonzero;stroke:none"
         id="path552" /><path
         d="m 2372.91,3642.27 -377.58,-654.02 -419.75,242.36 361.18,663.46 436.15,-251.8"
         style="fill:#616161;fill-opacity:1;fill-rule:nonzero;stroke:none"
         id="path554" /><path
         d="m 2327.4,3619.77 -335.37,-580.85 -372.81,215.23 320.8,589.27 387.38,-223.65"
         style="fill:#e0cec7;fill-opacity:1;fill-rule:nonzero;stroke:none"
         id="path556" /><path
         d="m 2203.69,3671.94 23.5,40.78 -150.69,87.02 -29.43,-37.41 156.62,-90.39"
         style="fill:#616161;fill-opacity:1;fill-rule:nonzero;stroke:none"
         id="path558" /><path
         d="m 2185.68,3207.92 c 0,0 -17.19,-0.06 -24.69,3.55 0,0 -13.23,7.66 -22.9,12.5 -3.09,1.57 -5.79,2.84 -7.65,3.47 -7.72,2.63 -25.4,6.17 -42.11,17.77 -16.67,11.62 -75.79,80.04 -75.79,80.04 l 27.97,42.5 20.47,43.49 c 0,0 124.13,-8.05 140.9,-17.06 1.63,-0.86 3.23,-1.81 4.65,-2.77 13.44,-9.01 19.7,-21.39 26.26,-26.87 2.4,-2.07 24.78,-24.01 24.03,-33.32 -1.13,-12.97 -7.12,-21.49 -14.89,-25.73 0,0 -3.24,-25.27 -15.7,-37.02 0,0 -2.19,-23.43 -21.83,-33.68 0,0 -4.93,-23.49 -18.72,-26.87"
         style="fill:#eea886;fill-opacity:1;fill-rule:nonzero;stroke:none"
         id="path560" /><path
         d="m 1929.82,4394.33 c 0,0 -114.68,32.84 -180.39,-93.51 -65.68,-126.33 -65.36,-180.27 -74.14,-241.96 -8.3,-58.26 -45.75,-217.32 -49.49,-233.75 -3.82,-16.38 -88.56,-212.25 -49.72,-280.7 39.07,-68.85 435.98,-271.37 433.42,-286.56 -2.54,-15.19 68.77,153.11 68.77,153.11 0,0 -160.62,89.52 -186.94,117.08 -42.68,44.77 -132.82,93.04 -114.31,148.52 21.75,65.24 87.08,285.36 102.27,317.61 15.13,32.18 147.18,359.1 50.53,400.16"
         style="fill:#6e66c9;fill-opacity:1;fill-rule:nonzero;stroke:none"
         id="path562" /><path
         d="m 2304.85,5046.12 c 0,0 204.12,-64.14 93.31,-416.47 -110.8,-352.25 -389.6,40.84 -360.47,255.48 29.16,214.63 267.16,160.99 267.16,160.99"
         style="fill:#eea987;fill-opacity:1;fill-rule:nonzero;stroke:none"
         id="path564" /><path
         d="m 2418.99,4840.57 c 0,0 -101.44,-99.54 -271.17,-111.97 0,0 -65.24,-76.47 -70.22,-106.54 0,0 -151.49,258.15 34.68,412.91 186.17,154.77 375.16,-130.62 306.71,-194.4"
         style="fill:#0e2d3d;fill-opacity:1;fill-rule:nonzero;stroke:none"
         id="path566" /><path
         d="m 2149.84,4721.57 c -1.31,25.64 -17.09,83.97 -55.19,67.67 -38.12,-16.36 2.34,-135.13 27.59,-127.87 0,0 30.68,-0.47 27.6,60.2"
         style="fill:#eea987;fill-opacity:1;fill-rule:nonzero;stroke:none"
         id="path568" /><path
         d="m 2284.86,4489.71 c -1.25,-13.44 -2.55,-28.21 -3.74,-43.38 0,0 -90.1,5.4 -150.33,139.42 3.91,-5.84 69.96,-102.82 154.07,-96.04"
         style="fill:#a77860;fill-opacity:1;fill-rule:nonzero;stroke:none"
         id="path570" /><g
         id="g572"><g
           id="g574"
           clip-path="url(#clipPath578)"><path
             d="m 7580.67,5563.08 c 0,-282.22 -228.8,-510.99 -510.99,-510.99 -282.24,0 -510.99,228.77 -510.99,510.99 0,282.19 228.75,510.96 510.99,510.96 282.19,0 510.99,-228.77 510.99,-510.96"
             style="fill:url(#linearGradient586);fill-opacity:1;fill-rule:nonzero;stroke:none"
             id="path588" /></g></g><path
         d="m 7148.42,5463.12 c 0,20.57 -16.97,31.71 -42.31,40.51 v -81.09 c 29.4,6.47 42.31,21.78 42.31,40.58 z m -101.04,141.68 v 83.46 c -31.22,-7.06 -43.52,-24.14 -43.52,-43.49 0,-20.61 17.62,-31.79 43.52,-39.97 z m 58.73,-259.85 v -65.9 h -58.73 v 64.1 c -58.28,3.54 -114.09,21.77 -146.46,47.08 l 32.37,71.68 c 29.35,-21.74 71.68,-37.64 114.09,-41.73 v 98.18 c -65.31,15.88 -138.23,37.59 -138.23,121.66 0,62.37 45.34,115.86 138.23,126.45 v 65.24 h 58.73 v -64.09 c 44.1,-3.5 86.97,-15.27 119.35,-35.89 l -29.37,-72.29 c -30.02,17.04 -60.58,27.05 -89.98,30.59 v -99.98 c 65.29,-15.26 137.01,-37.01 137.01,-119.91 0,-61.13 -44.67,-114.05 -137.01,-125.19"
         style="fill:#f9fbfc;fill-opacity:1;fill-rule:nonzero;stroke:none"
         id="path590" /></g></g></svg>
